<ttFont>
          <CharString index="0">
            hlineto
            -106 callsubr
            return
          </CharString>
          <CharString index="1">
            -105 callsubr
            15 return
          </CharString>
          <CharString index="2">
            44 24 12 20 27 -38 return
          </CharString>
          <CharString index="3">
            -21 -110 -24 -107 -19 207 callgsubr
            16 31 31 172 143 32 258 callsubr
          </CharString>
          <CharString index="4">
            172 143 33 -99 callgsubr
            return
          </CharString>
          <CharString index="5">
            rmoveto
            -4 -24 -4 -24 -5 -23 -42 -147 -162 -113 -140 -12 rrcurveto
            95 62 87 107 102 -54 callsubr
            return
          </CharString>
          <CharString index="6">
            vvcurveto
            73 -43 74 -77 -136 -102 -110 -151 -109 58 -100 100 53 43 33 28 21 -10 14 -21 vhcurveto
            -30 -1 -23 -42 hhcurveto
            -41 -32 52 75 100 75 85 83 41 13 -43 -35 hvcurveto
            -40 -12 200 callgsubr
            7 -13 20 vhcurveto
            return
          </CharString>
          <CharString index="7">
            21 90 26 -89 callgsubr
            return
          </CharString>
          <CharString index="8">
            -48 -34 -105 callgsubr
            return
          </CharString>
          <CharString index="9">
            -90 callsubr
            199 -258 43 16 12 164 callsubr
            -48 62 vhcurveto
            128 callgsubr
            return
          </CharString>
          <CharString index="10">
            -1 0 -2 -1 vvcurveto
            -20 30 -32 22 vhcurveto
            19 17 35 41 hhcurveto
            29 16 -21 -37 return
          </CharString>
          <CharString index="11">
            318 callgsubr
            -31 51 -73 callsubr
            -10 -43 -8 -42 -9 -44 -60 -34 -73 -25 -77 -20 rrcurveto
            29 40 18 46 41 vvcurveto
            74 -39 64 -87 -69 -59 -59 -56 -24 26 -30 15 11 9 7 8 4 vhcurveto
            7 9 2 13 7 16 rrcurveto
            19 7 18 14 26 hhcurveto
            32 15 -25 -34 -50 -34 -49 -56 -35 hvcurveto
            3 -18 -20 2 -19 hhcurveto
            -51 -35 -9 -25 -23 39 -45 27 31 31 8 13 28 hvcurveto
            25 -10 15 -18 -28 vvcurveto
            -73 -104 -41 -111 -120 -57 47 98 39 6 15 -3 20 vhcurveto
            9 -2 -6 6 -13 hhcurveto
            -46 -23 -59 -52 -123 109 -76 157 168 130 75 109 32 -10 27 -18 21 hvcurveto
            66 11 70 17 62 22 -3 -15 rcurveline
            -29 -128 -28 -121 -37 vvcurveto
            -16 30 -23 16 33 35 288 callgsubr
            20 95 callsubr
            96 hlineto
            return
          </CharString>
          <CharString index="12">
            rmoveto
            -99 callsubr
            return
          </CharString>
          <CharString index="13">
            40 callsubr
            0 1 vlineto
            return
          </CharString>
          <CharString index="14">
            32 -91 callgsubr
            return
          </CharString>
          <CharString index="15">
            -25 -3 -76 -182 hhcurveto
            -80 -81 14 37 53 153 153 62 hvcurveto
            45 15 -61 329 callgsubr
            6 4 3 7 2 7 rrcurveto
            1 2 1 3 2 vvcurveto
            1 6 0 6 6 vvcurveto
            17 0 18 2 16 vhcurveto
            5 62 19 38 13 25 rrcurveto
            194 -106 callgsubr
          </CharString>
          <CharString index="16">
            -14 -93 -13 -79 -17 vvcurveto
            -28 21 -16 16 40 17 152 300 callgsubr
            50 77 72 43 33 hhcurveto
            15 4 -20 -26 -95 -31 -88 -56 -12 hvcurveto
            -14 -6 -17 4 -16 vvcurveto
            -20 35 -36 26 87 51 167 117 70 -30 41 -67 -37 -65 -33 -38 -63 vhcurveto
            14 71 12 70 3 30 rrcurveto
            315 -106 callgsubr
          </CharString>
          <CharString index="17">
            -99 callsubr
            78 -75 callsubr
            199 callsubr
            -38 hhcurveto
            -9 -7 -10 -14 -4 hvcurveto
            -3 -4 -1 -6 -4 vvcurveto
            -41 return
          </CharString>
          <CharString index="18">
            -103 callgsubr
            158 hlineto
            -1 -12 0 -13 -14 vvcurveto
            -43 -2 -52 -4 -50 vhcurveto
            4 -26 -24 223 callsubr
            70 198 callgsubr
            40 -1 26 -1 16 hvcurveto
            return
          </CharString>
          <CharString index="19">
            rmoveto
            7 65 2 63 47 vvcurveto
            9 225 vlineto
            -9 -50 -9 -49 -10 -50 -49 -8 -75 -14 -64 -10 rrcurveto
            -166 -226 -40 callgsubr
            return
          </CharString>
          <CharString index="20">
            -12 -40 -6 -41 -36 vvcurveto
            -67 12 -66 30 38 -19 82 94 16 vhcurveto
            5 28 7 28 9 25 rrcurveto
            85 17 76 44 60 vvcurveto
            42 -26 33 -46 -57 -50 -55 -72 -34 vhcurveto
            -7 356 callsubr
            -73 -45 18 36 68 119 48 callgsubr
            -61 hvcurveto
            endchar
          </CharString>
          <CharString index="21">
            -12 -17 -29 -22 -26 46 -62 22 13 8 10 16 30 -31 83 -29 hvcurveto
            return
          </CharString>
          <CharString index="22">
            -21 -119 -28 -124 -21 -90 callgsubr
            return
          </CharString>
          <CharString index="23">
            rmoveto
            -86 callsubr
            return
          </CharString>
          <CharString index="24">
            rmoveto
            27 4 35 7 42 4 rrcurveto
            124 13 92 -3 34 vvcurveto
            25 -83 5 -109 -140 -53 -11 -23 -13 vhcurveto
            -4 -6 -2 -8 -11 -162 -112 -227 -105 vvcurveto
            -44 53 -39 59 128 179 53 50 11 -3 11 -14 vhcurveto
            -25 -121 -44 -145 hhcurveto
            -14 -9 6 14 29 25 74 27 84 hvcurveto
            140 117 17 48 11 -16 5 -22 -32 -53 -7 -2 -91 hvcurveto
            -8 356 callsubr
            20 68 15 67 50 vvcurveto
            endchar
          </CharString>
          <CharString index="25">
            -9 -53 -10 -52 -9 -53 rrcurveto
            -30 -40 -54 -33 -61 -51 -17 19 -29 hhcurveto
            -15 -8 -8 -15 -22 18 -18 26 -12 hvcurveto
            1 -2 1 -3 -3 vvcurveto
            -62 -88 -52 -95 -29 -13 12 35 68 34 94 86 31 vhcurveto
            16 7 322 callgsubr
            16 -43 25 -28 return
          </CharString>
          <CharString index="26">
            -36 -17 7 -26 hhcurveto
            -16 -7 -9 -16 -18 14 -15 23 -10 hvcurveto
            2 -4 2 -4 -5 vvcurveto
            -56 50 callsubr
            -83 -86 30 callgsubr
            137 84 83 7 -2 8 -3 8 vhcurveto
            return
          </CharString>
          <CharString index="27">
            rrcurveto
            21 21 23 14 21 hhcurveto
            19 16 -20 -23 13 hvcurveto
            -23 13 13 -20 18 hhcurveto
            16 8 16 21 47 -52 79 -54 -132 -111 -180 -132 -78 32 -53 84 return
          </CharString>
          <CharString index="28">
            -76 callgsubr
            33 return
          </CharString>
          <CharString index="29">
            rmoveto
            -53 -14 -37 -28 -40 -65 73 45 38 63 14 77 5 vhcurveto
            2 -22 5 -22 -41 vvcurveto
            -194 417 -95 callsubr
            return
          </CharString>
          <CharString index="30">
            hhcurveto
            -137 -155 -29 -90 -80 116 -130 81 83 33 88 83 33 -3 29 -7 22 hvcurveto
            0 vlineto
            return
          </CharString>
          <CharString index="31">
            rmoveto
            -25 -8 29 34 87 66 130 60 39 40 -76 -103 13 hvcurveto
            -57 -52 -75 -44 -58 hhcurveto
            return
          </CharString>
          <CharString index="32">
            -74 callgsubr
            -97 -92 -99 return
          </CharString>
          <CharString index="33">
            -38 callsubr
            -22 -9 -17 -22 -77 89 -65 117 -61 callsubr
          </CharString>
          <CharString index="34">
            -9 84 hvcurveto
            return
          </CharString>
          <CharString index="35">
            -80 callgsubr
            hhcurveto
            return
          </CharString>
          <CharString index="36">
            hhcurveto
            -106 -67 -64 -78 30 callsubr
            hvcurveto
            -51 -37 -66 -35 -74 -72 -17 62 -40 hhcurveto
            -13 -9 -19 -21 hvcurveto
            -52 callsubr
            return
          </CharString>
          <CharString index="37">
            rmoveto
            -109 -108 -19 -18 -10 -24 13 -16 rlinecurve
            17 -21 25 19 18 11 114 83 rcurveline
            17 11 2 35 -20 23 -15 17 -15 5 -18 -17 rrcurveto
            return
          </CharString>
          <CharString index="38">
            2 hlineto
            -7 -31 -4 -31 -27 vvcurveto
            -9 0 -9 1 -9 vhcurveto
            12 -24 -28 6 -26 hhcurveto
            -67 -106 -76 -35 -29 hvcurveto
            -33 -29 -19 -32 4 -13 10 -9 15 8 43 20 37 14 41 36 51 21 36 17 39 2 34 -15 35 -2 7 -13 17 -3 309 callsubr
            1 hlineto
            1 hlineto
            1 1 0 1 2 hvcurveto
            13 4 2 22 2 32 1 21 0 18 3 36 2 27 6 28 8 28 rrcurveto
            83 18 75 45 56 vvcurveto
            42 -26 33 -46 -59 -47 -56 -70 -30 vhcurveto
            -1 -8 -9 0 -9 hhcurveto
            -73 -45 230 callgsubr
            64 hvcurveto
            52 11 -39 26 hhcurveto
            11 11 7 11 7 hvcurveto
            6 8 2 13 15 101 callsubr
            134 -94 callgsubr
            endchar
          </CharString>
          <CharString index="39">
            -81 callsubr
            2 hlineto
            return
          </CharString>
          <CharString index="40">
            4 callsubr
            -197 74 -69 callgsubr
            return
          </CharString>
          <CharString index="41">
            rmoveto
            -40 -15 18 27 36 31 59 32 36 7 -53 -58 -7 0 -8 -1 -8 hvcurveto
            -4 -15 -16 -2 -19 hhcurveto
            return
          </CharString>
          <CharString index="42">
            rmoveto
            -9 -52 -10 -50 -9 -52 144 callsubr
            -63 53 -53 73 -9 hvcurveto
            -31 -61 -68 -16 -62 callgsubr
            176 -293 347 callsubr
            -48 -31 -20 -39 -21 -43 hvcurveto
            return
          </CharString>
          <CharString index="43">
            rmoveto
            85 -55 82 -82 -123 -118 -177 -156 -89 48 -71 69 143 118 170 156 vhcurveto
            -125 109 rmoveto
            30 -18 16 -48 -44 vvcurveto
            -93 -72 -150 -107 -18 vhcurveto
            -30 14 -9 38 38 vvcurveto
            108 71 148 101 25 vhcurveto
            return
          </CharString>
          <CharString index="44">
            rmoveto
            -18 -51 -23 -70 -76 hvcurveto
            62 -78 -12 65 -36 hhcurveto
            -16 -13 -14 -19 -55 129 -112 21 21 27 33 29 39 hvcurveto
            43 32 49 19 30 vvcurveto
            15 -10 8 -19 vhcurveto
            return
          </CharString>
          <CharString index="45">
            rmoveto
            -75 64 -102 84 180 158 241 170 114 -73 113 -103 -131 -179 -226 -235 vhcurveto
            314 379 rmoveto
            43 42 -52 -105 -129 -153 -194 -92 -38 -32 40 71 174 158 195 72 hvcurveto
            return
          </CharString>
          <CharString index="46">
            192 callgsubr
            185 -106 callgsubr
          </CharString>
          <CharString index="47">
            rmoveto
            -54 callgsubr
            318 67 rmoveto
            -19 -34 -30 -31 -46 hvcurveto
            -43 51 -51 77 -37 64 -80 callsubr
            126 179 124 52 17 -6 7 -17 hvcurveto
            return
          </CharString>
          <CharString index="48">
            rmoveto
            24 21 -23 -15 -40 -76 -18 -82 -4 hvcurveto
            52 34 43 48 36 hhcurveto
            -354 93 callsubr
            333 hlineto
            -12 -28 -6 -38 -1 -35 rrcurveto
            10 -17 -17 6 -16 hhcurveto
            -108 -237 -191 -117 -38 41 -56 47 -19 hvcurveto
            return
          </CharString>
          <CharString index="49">
            -59 callsubr
            14 -6 16 -5 17 -4 rrcurveto
            -49 -57 -60 -88 -21 -47 callsubr
            29 -62 76 -6 103 hvcurveto
            130 2 127 50 72 vvcurveto
            50 -69 79 -56 -65 -88 -83 -90 -51 vhcurveto
            37 callgsubr
          </CharString>
          <CharString index="50">
            -13 callsubr
            218 20 rmoveto
            318 callgsubr
            -22 26 -11 45 -4 hvcurveto
            -12 -73 -14 -70 -13 -74 rrcurveto
            -91 -73 -140 -83 -95 41 callsubr
            -6 -8 -3 -5 -10 vhcurveto
            -11 -29 -51 -23 -51 92 callgsubr
            107 callgsubr
            7 hlineto
            -38 -41 -30 -46 -38 vvcurveto
            -44 31 -26 52 104 108 47 66 81 vhcurveto
            -18 -82 -17 -68 -16 260 callgsubr
            80 -106 callgsubr
          </CharString>
          <CharString index="51">
            vvcurveto
            -92 93 -42 115 -6 vhcurveto
            -111 10 59 -119 46 hhcurveto
            15 12 6 15 25 -61 63 -9 123 hvcurveto
            111 12 91 60 80 vvcurveto
            58 -50 42 -56 -103 -53 -87 -96 -12 vhcurveto
            -67 5 -56 19 44 vvcurveto
            return
          </CharString>
          <CharString index="52">
            74 -102 callgsubr
            return
          </CharString>
          <CharString index="53">
            vvcurveto
            28 -5 24 -9 20 vhcurveto
            return
          </CharString>
          <CharString index="54">
            43 -84 callsubr
            return
          </CharString>
          <CharString index="55">
            0 vlineto
            -1 vlineto
            -35 72 -92 52 -68 vhcurveto
            -75 callgsubr
            return
          </CharString>
          <CharString index="56">
            7 19 15 12 vhcurveto
            15 12 19 10 24 hhcurveto
            return
          </CharString>
          <CharString index="57">
            rmoveto
            61 callsubr
            51 -9 85 hvcurveto
            -15 callgsubr
            -22 -9 -17 -22 -55 46 -50 70 -23 hvcurveto
            -50 -54 -73 -105 -23 22 callgsubr
            99 5 69 56 77 140 -246 -14 31 vvcurveto
            28 102 30 39 vhcurveto
            31 22 -15 18 hhcurveto
            0 1 vlineto
            22 12 18 33 58 6 34 5 24 hvcurveto
            185 -106 callgsubr
          </CharString>
          <CharString index="58">
            rmoveto
            33 -28 -10 23 -26 hhcurveto
            -19 -42 -29 -27 -47 hvcurveto
            -49 -28 -20 -20 -29 vvcurveto
            -19 14 -11 16 33 42 56 36 70 vhcurveto
            -45 35 42 -60 35 hhcurveto
            14 11 9 11 24 -37 36 -34 40 hvcurveto
            return
          </CharString>
          <CharString index="59">
            35 -103 callsubr
            return
          </CharString>
          <CharString index="60">
            vvcurveto
            -16 16 -18 14 23 79 121 47 35 vhcurveto
            -85 3 67 -120 40 hhcurveto
            12 5 6 12 return
          </CharString>
          <CharString index="61">
            279 callsubr
            102 30 65 89 hvcurveto
            -14 -67 -13 -52 -14 vvcurveto
            -24 31 45 callsubr
            100 -106 callgsubr
          </CharString>
          <CharString index="62">
            -86 callgsubr
            hvcurveto
            return
          </CharString>
          <CharString index="63">
            573 -65 callsubr
            return
          </CharString>
          <CharString index="64">
            61 6 60 5 45 8 rrcurveto
            -22 -113 -25 -113 -20 207 callgsubr
            16 31 31 -88 callgsubr
            82 hlineto
            43 25 230 callsubr
            -62 hvcurveto
            endchar
          </CharString>
          <CharString index="65">
            -22 vvcurveto
            -24 35 -30 13 24 -48 callsubr
            return
          </CharString>
          <CharString index="66">
            -9 -55 -10 -52 -6 -39 rrcurveto
            22 -26 -32 17 -31 hhcurveto
            -51 -53 -41 -39 -45 hvcurveto
            -63 -58 -71 -79 -27 316 callgsubr
            25 65 72 52 55 vhcurveto
            39 42 40 29 35 hhcurveto
            31 30 -37 -22 22 hvcurveto
            10 -7 9 -7 11 -1 rrcurveto
            -1 2 2 0 1 hhcurveto
            34 21 166 142 29 hvcurveto
            43 77 65 37 36 hhcurveto
            17 3 -20 -26 -95 -31 -88 -56 -12 hvcurveto
            -14 -6 -17 4 -16 vvcurveto
            -20 35 -36 26 87 51 167 117 68 -28 43 -63 -46 -60 -30 -34 -63 vhcurveto
            13 68 12 68 3 28 rrcurveto
            307 -106 callgsubr
          </CharString>
          <CharString index="67">
            hlineto
            -25 -64 -25 -84 -101 vvcurveto
            -98 40 -80 77 147 108 185 177 20 -13 24 -16 21 vhcurveto
            return
          </CharString>
          <CharString index="68">
            rmoveto
            -27 -32 37 25 28 62 6 83 8 hvcurveto
            -60 -26 -32 -44 -28 hhcurveto
            86 302 78 callgsubr
            318 callgsubr
            -29 45 -10 74 -1 hvcurveto
            -12 -67 -12 -65 -13 -69 -43 -2 -61 -8 -69 -8 rrcurveto
            14 56 7 57 47 161 callgsubr
            18 vhcurveto
            -4 -22 -6 -23 -7 -22 rrcurveto
            -126 -13 -120 -6 -82 vvcurveto
            -64 71 -83 66 73 58 83 101 36 vhcurveto
            68 6 67 6 47 8 return
          </CharString>
          <CharString index="69">
            68 -36 137 -6 -47 vvcurveto
            -33 -36 -30 -71 -77 -34 28 39 -15 vhcurveto
            23 -9 -14 14 -20 hhcurveto
            return
          </CharString>
          <CharString index="70">
            rmoveto
            17 -49 -52 10 -82 hhcurveto
            -97 -51 -20 -21 hvcurveto
            1 -24 33 -41 34 1 rrcurveto
            36 35 12 1 53 hvcurveto
            70 2 72 -14 1 -15 2 -78 -402 -228 2 -112 rrcurveto
            -43 2 51 -53 55 hhcurveto
            165 192 46 46 18 -12 11 -27 hvcurveto
            -68 -138 -30 -92 hhcurveto
            -14 -5 7 7 hvcurveto
            -1 45 384 241 -2 115 -1 32 -36 48 -59 20 rrcurveto
            return
          </CharString>
          <CharString index="71">
            304 callsubr
            -66 -54 -43 -59 -38 hvcurveto
            37 -28 -50 31 -64 -20 callsubr
            350 -435 -76 callsubr
            -92 180 rmoveto
            -2 -5 -1 -1 -1 -2 -1 -1 rlinecurve
            -7 -8 rlineto
            -12 -15 -26 -9 -29 hhcurveto
            -56 -43 28 39 34 28 19 44 63 46 -48 -31 hvcurveto
            -604 326 115 callgsubr
            115 41 67 80 hvcurveto
            -9 vlineto
            1 callsubr
            vhcurveto
            -98 callgsubr
          </CharString>
          <CharString index="72">
            90 -47 73 -98 -89 -63 -62 -46 -22 14 -12 19 vhcurveto
            39 6 72 88 hhcurveto
            39 17 -33 -42 -92 -68 -123 -116 -32 -14 10 25 hvcurveto
            29 17 10 16 vvcurveto
            12 -6 6 -14 -34 -32 -38 -39 -56 41 -47 80 return
          </CharString>
          <CharString index="73">
            vvcurveto
            -16 7 -12 14 23 21 21 33 8 vhcurveto
            19 81 19 123 26 126 14 69 rcurveline
            122 58 98 91 105 vvcurveto
            61 -28 53 -61 -125 -41 -153 -161 -30 vhcurveto
            -31 -76 -83 -19 -61 hhcurveto
            -8 -4 3 5 51 74 70 56 44 hvcurveto
            21 17 38 28 18 vvcurveto
            4 -1 4 -2 3 vhcurveto
            8 -3 -10 3 -16 -26 -32 -11 -37 hhcurveto
            -32 -17 7 16 47 120 111 65 hvcurveto
            29 1 -28 17 hhcurveto
            9 12 19 16 16 -7 16 -12 11 hvcurveto
            349 -106 callgsubr
          </CharString>
          <CharString index="74">
            hlineto
            -60 callgsubr
            199 callsubr
            -38 hhcurveto
            -9 -7 -10 -14 -4 hvcurveto
            -3 -4 -1 -6 -4 vvcurveto
            return
          </CharString>
          <CharString index="75">
            vvcurveto
            -24 35 -30 13 24 42 callgsubr
            return
          </CharString>
          <CharString index="76">
            8 callgsubr
            74 20 110 31 73 hvcurveto
            return
          </CharString>
          <CharString index="77">
            rmoveto
            -8 -44 -8 -42 -8 -44 137 callgsubr
            -56 329 callsubr
            76 -7 hvcurveto
            -32 -60 -66 -18 -70 hhcurveto
            -68 -42 34 40 -34 hvcurveto
            122 28 83 92 101 vvcurveto
            30 -6 28 -12 23 vhcurveto
            184 -269 rmoveto
            -56 -44 28 39 34 29 19 44 63 45 -49 -30 -20 -38 -21 -43 hvcurveto
            -527 343 -23 callsubr
            54 80 -69 108 hhcurveto
            90 107 35 63 89 hvcurveto
            -11 -50 -10 -44 -6 -29 rrcurveto
            12 -26 -33 8 -30 hhcurveto
            -56 -65 -32 -41 -60 hvcurveto
            -69 -47 -66 -58 -30 vvcurveto
            -13 7 -10 178 callgsubr
            -9 -15 23 hvcurveto
            7 -4 7 -3 8 -1 rrcurveto
            -4 5 5 -2 16 callgsubr
            100 -106 callgsubr
          </CharString>
          <CharString index="78">
            207 callsubr
            31 31 52 16 67 8 hvcurveto
            -75 -11 -18 -60 -28 hhcurveto
            -474 352 rmoveto
            52 30 39 52 38 29 -34 -45 -49 -27 -41 -39 -38 vhcurveto
            -51 25 -32 37 54 35 callsubr
            234 490 rmoveto
            -48 -34 -19 callgsubr
            -46 -3 -67 -6 -65 vhcurveto
            -24 -2 -23 -3 -22 -5 rrcurveto
            -1 -25 -31 -3 -33 hhcurveto
            -75 -80 5 16 -67 hvcurveto
            41 45 29 53 64 162 callsubr
            -74 42 -52 62 -35 vhcurveto
            -105 -77 -130 -68 -103 -56 callsubr
            74 125 59 102 82 vhcurveto
            -22 70 80 -9 67 hhcurveto
            8 8 0 1 9 hvcurveto
            -4 -10 -3 -10 -12 315 callgsubr
            76 40 100 114 21 vhcurveto
            1 18 19 0 18 return
          </CharString>
          <CharString index="79">
            -1 15 -13 5 -48 -1 rrcurveto
            -150 -5 -132 -7 -28 vvcurveto
            1 -17 28 -28 27 1 25 1 36 9 74 12 return
          </CharString>
          <CharString index="80">
            -49 -33 -10 -24 return
          </CharString>
          <CharString index="81">
            150 callgsubr
            hvcurveto
            -128 240 186 callsubr
            98 -55 118 50 callgsubr
            return
          </CharString>
          <CharString index="82">
            rmoveto
            27 -35 70 -22 -20 -22 -27 -22 -27 45 -46 29 11 14 14 11 vhcurveto
            147 hmoveto
            27 -34 70 -22 -20 -23 -27 -22 -27 45 -46 30 318 callsubr
            vhcurveto
            return
          </CharString>
          <CharString index="83">
            16 callsubr
            25 vhcurveto
            return
          </CharString>
          <CharString index="84">
            205 callsubr
            24 hlineto
            -1 -2 0 -3 -2 vvcurveto
            -22 37 -39 22 vhcurveto
            23 16 44 54 hhcurveto
            38 17 -21 -40 -81 -76 -55 -99 -20 hvcurveto
            29 -25 -26 22 -38 hhcurveto
            -34 -19 -20 -28 -40 43 -26 50 -6 hvcurveto
            -75 return
          </CharString>
          <CharString index="85">
            -40 -38 -44 -36 -36 -31 rrcurveto
            1 7 0 8 7 vvcurveto
            73 -40 74 -84 return
          </CharString>
          <CharString index="86">
            647 -95 callsubr
            return
          </CharString>
          <CharString index="87">
            hhcurveto
            218 callsubr
            52 -53 73 -9 hvcurveto
            -32 -61 -67 -15 -62 callgsubr
            return
          </CharString>
          <CharString index="88">
            -22 8 -27 -34 vvcurveto
            -58 -14 -56 -35 -12 -10 11 13 -8 vhcurveto
            59 -27 -32 48 -30 hhcurveto
            -14 -23 -6 -25 -12 6 -19 16 -23 hvcurveto
            return
          </CharString>
          <CharString index="89">
            28 17 40 52 hhcurveto
            37 25 -27 -45 -83 -61 -69 -104 hvcurveto
            -37 -35 47 -28 hhcurveto
            -12 -10 -18 -22 -11 6 -13 10 -12 hvcurveto
            25 -32 52 -48 34 -48 rrcurveto
            -91 65 32 -52 20 hhcurveto
            19 9 9 16 22 -29 58 -55 79 hvcurveto
            -9 13 -11 14 -10 14 rrcurveto
            133 14 79 99 111 vvcurveto
            33 -7 return
          </CharString>
          <CharString index="90">
            68 callsubr
            -66 -6 -64 vhcurveto
            return
          </CharString>
          <CharString index="91">
            7 248 94 rmoveto
            -91 -54 26 40 26 18 11 24 46 29 -43 -60 29 hvcurveto
            -138 553 -95 callsubr
            240 150 callsubr
            -48 hhcurveto
            -77 -34 -30 -44 hvcurveto
            -128 239 186 callsubr
            99 -55 117 183 callsubr
            42 -100 36 hhcurveto
            14 9 6 16 26 -40 80 -33 78 hvcurveto
            77 16 51 38 63 144 -230 40 71 vvcurveto
            12 12 5 21 vhcurveto
            84 50 -49 25 hhcurveto
            3 3 0 1 2 hvcurveto
            26 7 9 82 75 vvcurveto
            13 -3 12 -4 11 vhcurveto
            134 -107 callgsubr
            -108 hlineto
            -32 23 -66 19 73 vvcurveto
            47 48 35 63 vhcurveto
            131 55 -109 28 hhcurveto
            8 3 6 9 60 -104 110 -124 -110 -77 -60 -98 -44 20 -41 30 -30 hvcurveto
            return
          </CharString>
          <CharString index="92">
            rmoveto
            -87 39 177 -166 69 hhcurveto
            22 9 10 13 22 -59 41 -52 46 hvcurveto
            -55 48 -67 66 24 23 247 57 159 vvcurveto
            91 -82 46 -124 -74 -108 -37 -29 -13 16 -27 17 -12 vhcurveto
            -13 -158 -95 -253 -60 vvcurveto
            -23 31 -34 18 16 27 115 115 34 vhcurveto
            return
          </CharString>
          <CharString index="93">
            62 -38 82 -59 37 vhcurveto
            14 37 12 47 2 33 rrcurveto
            200 -106 callgsubr
          </CharString>
          <CharString index="94">
            228 callsubr
            -4 -4 1 2 -5 hvcurveto
            66 45 68 63 37 hhcurveto
            return
          </CharString>
          <CharString index="95">
            58 callgsubr
            -78 -32 -13 43 60 121 46 82 12 44 vhcurveto
            return
          </CharString>
          <CharString index="96">
            rmoveto
            363 callgsubr
            245 callsubr
            vhcurveto
            -16 -70 -24 -77 -13 -60 rrcurveto
            -25 -4 16 -22 17 hhcurveto
            16 15 12 39 13 hvcurveto
            63 198 39 153 30 vvcurveto
            return
          </CharString>
          <CharString index="97">
            280 callsubr
            rlineto
            -138 -39 -115 -123 -77 hhcurveto
            -20 -14 41 60 66 12 72 24 66 hvcurveto
            return
          </CharString>
          <CharString index="98">
            173 hlineto
            -1 -12 0 -13 -14 vvcurveto
            -43 -2 -52 -4 -50 vhcurveto
            4 -26 -24 223 callsubr
            70 -104 80 122 44 202 179 40 -1 26 -2 16 hvcurveto
            167 hlineto
            -15 -85 -16 -83 -16 -89 rrcurveto
            -22 223 callgsubr
            36 -30 13 23 36 -88 callgsubr
            80 -106 callgsubr
          </CharString>
          <CharString index="99">
            rmoveto
            -14 -77 -11 -69 -12 -76 rrcurveto
            -39 -71 -63 -28 -45 hhcurveto
            -11 -5 20 30 66 23 108 29 65 hvcurveto
            -196 -55 callsubr
            51 hlineto
            -24 -65 -20 -89 -72 vvcurveto
            -71 15 -75 54 62 69 27 32 65 vhcurveto
            -9 -54 -8 -51 -5 -38 rrcurveto
            24 -26 -34 19 -33 hhcurveto
            -51 -58 -47 -43 -47 hvcurveto
            -60 -58 -66 -75 -25 316 callgsubr
            25 61 73 52 55 vhcurveto
            39 42 41 33 35 hhcurveto
            33 30 -41 -24 24 hvcurveto
            6 -4 6 -5 7 -2 rrcurveto
            -3 4 4 -1 3 hhcurveto
            41 16 158 146 29 hvcurveto
            41 76 58 29 38 hhcurveto
            34 11 -25 292 callgsubr
            60 -70 -46 -55 -24 -32 -61 vhcurveto
            14 70 12 70 3 29 rrcurveto
            286 -106 callgsubr
          </CharString>
          <CharString index="100">
            rmoveto
            30 -43 70 -49 -67 -152 -91 -75 vhcurveto
            -89 186 -41 -74 vvcurveto
            -27 -31 -24 -75 vhcurveto
            -92 -28 53 -28 hhcurveto
            -12 -9 -9 -18 -35 80 -63 97 106 77 61 56 hvcurveto
            105 -185 55 46 vvcurveto
            47 103 43 31 vhcurveto
            35 16 -37 25 hhcurveto
            10 5 7 10 hvcurveto
            return
          </CharString>
          <CharString index="101">
            -17 -29 -12 -39 -1 -38 rrcurveto
            11 -19 -19 8 -16 hhcurveto
            return
          </CharString>
          <CharString index="102">
            rmoveto
            61 callsubr
            51 -9 85 hvcurveto
            306 hlineto
            -14 -75 -13 -85 -15 -80 rrcurveto
            59 -16 -34 59 -60 hhcurveto
            -108 -114 273 callgsubr
            57 -45 43 return
          </CharString>
          <CharString index="103">
            360 200 rmoveto
            1 hlineto
            29 53 37 35 75 hvcurveto
            78 36 88 29 32 vvcurveto
            17 -10 8 -18 -38 -125 -48 -49 -81 vhcurveto
            36 callsubr
            return
          </CharString>
          <CharString index="104">
            rmoveto
            -54 -13 -41 -33 -58 -92 rrcurveto
            3 25 0 19 16 vvcurveto
            55 -1 -29 29 -22 hhcurveto
            -29 -1 10 -49 1 -66 3 -78 -16 -95 -41 -122 -16 -44 25 -42 23 1 36 1 6 81 56 142 49 127 48 54 73 31 59 28 -27 38 -58 -12 rrcurveto
            return
          </CharString>
          <CharString index="105">
            vhcurveto
            -39 -79 -69 -29 -55 145 callgsubr
            -69 211 callsubr
            308 hlineto
            -13 -75 -14 -84 -15 -78 rrcurveto
            58 -18 -33 57 332 callsubr
            52 69 21 32 72 hvcurveto
            -12 -55 -10 -43 339 callsubr
            31 26 91 100 23 vhcurveto
            40 22 40 23 38 24 rrcurveto
            -11 -29 -7 -26 -20 vvcurveto
            -46 62 -45 43 59 75 42 52 74 vhcurveto
            -16 -75 -15 -62 173 callgsubr
            39 30 137 122 27 vhcurveto
            60 80 71 54 40 hhcurveto
            20 9 -11 -20 hvcurveto
            -126 -124 -68 -38 232 callgsubr
            41 123 139 101 59 -48 58 -62 -45 -55 -33 -42 -59 vhcurveto
            17 78 18 87 3 34 rrcurveto
            331 -106 callgsubr
          </CharString>
          <CharString index="106">
            rmoveto
            34 29 19 44 63 45 -49 -30 -20 -38 -21 -43 -56 -44 28 39 vhcurveto
            -427 276 -23 callsubr
            55 81 -69 106 hhcurveto
            46 52 12 20 51 hvcurveto
            -124 -115 -134 -88 -31 vvcurveto
            -13 8 -9 15 86 306 290 129 59 vhcurveto
            0 vlineto
            6 12 4 13 14 vvcurveto
            58 -65 79 -104 -82 -56 329 callsubr
            76 -7 vhcurveto
            -32 -57 -65 -18 -74 hhcurveto
            -68 -42 34 40 -34 hvcurveto
            122 28 83 92 101 vvcurveto
            30 -6 28 -12 23 vhcurveto
            314 -106 callgsubr
          </CharString>
          <CharString index="107">
            rmoveto
            36 -40 35 339 callgsubr
            -116 -128 -331 -85 vvcurveto
            -44 54 -39 59 128 165 55 50 11 -3 6 -14 vhcurveto
            -25 -108 -41 -144 hhcurveto
            -15 -8 6 14 18 10 34 30 100 hvcurveto
            42 133 38 132 56 vvcurveto
            return
          </CharString>
          <CharString index="108">
            -76 26 -61 71 73 77 38 50 56 return
          </CharString>
          <CharString index="109">
            rmoveto
            -25 -30 46 30 28 71 7 83 8 hvcurveto
            -69 -30 -37 -50 -32 hhcurveto
            return
          </CharString>
          <CharString index="110">
            -13 -64 -14 -64 -14 -74 rrcurveto
            17 -57 -64 9 -70 hhcurveto
            return
          </CharString>
          <CharString index="111">
            45 callgsubr
            -13 -2 85 callsubr
            return
          </CharString>
          <CharString index="112">
            -46 -100 -122 118 -123 68 47 callgsubr
            return
          </CharString>
          <CharString index="113">
            10 46 7 37 19 vvcurveto
            32 -45 31 -18 -15 -3 -9 -21 -1 vhcurveto
            -3 -50 -8 -49 -9 -48 rrcurveto
            -68 -12 -57 -16 -16 vvcurveto
            -18 24 -26 20 13 20 4 6 29 vhcurveto
            -35 -136 -45 -114 -54 vvcurveto
            -43 48 -40 53 77 96 67 34 11 -3 6 -14 vhcurveto
            -23 -61 -42 -69 hhcurveto
            -14 -9 6 14 14 9 39 32 103 hvcurveto
            16 52 15 53 13 48 rrcurveto
            return
          </CharString>
          <CharString index="114">
            rmoveto
            -62 -81 -80 -58 -62 hhcurveto
            -21 -10 8 17 45 98 137 55 41 35 -49 -34 26 hvcurveto
            return
          </CharString>
          <CharString index="115">
            79 -46 callgsubr
            308 hlineto
            -12 -60 -11 -66 -11 -64 rrcurveto
            49 -87 -140 46 -72 hhcurveto
            204 callsubr
            hvcurveto
            49 -17 39 -18 36 -17 rrcurveto
            -2 vlineto
            -1 -5 -44 -25 -59 -37 -53 -32 rlinecurve
            218 callgsubr
            32 20 34 20 30 18 rrcurveto
            -19 -84 -17 -72 -18 66 callgsubr
            39 30 144 123 28 vhcurveto
            52 69 59 41 34 hhcurveto
            20 9 -12 -19 hvcurveto
            -126 -124 -69 -37 232 callgsubr
            41 123 138 102 59 -48 57 -62 -37 -45 -22 -32 -47 vhcurveto
            16 76 17 83 3 33 rrcurveto
            263 -94 callgsubr
            endchar
          </CharString>
          <CharString index="116">
            35 172 33 callsubr
            return
          </CharString>
          <CharString index="117">
            hlineto
            -9 0 -9 -10 vvcurveto
            -43 -2 -51 -4 -51 vhcurveto
            4 -26 -25 223 callsubr
            71 198 callgsubr
            return
          </CharString>
          <CharString index="118">
            -85 -15 -83 -17 -89 return
          </CharString>
          <CharString index="119">
            20 87 26 123 4 43 rrcurveto
            return
          </CharString>
          <CharString index="120">
            255 callsubr
            57 -3 hvcurveto
            -10 -58 -10 -56 -11 -59 -81 -104 -133 -64 -133 -5 rrcurveto
            134 76 91 128 119 vvcurveto
            80 -56 60 -77 return
          </CharString>
          <CharString index="121">
            -6 -1 -7 -8 vvcurveto
            return
          </CharString>
          <CharString index="122">
            rmoveto
            318 callsubr
            27 -34 70 -22 -20 -23 -27 -22 -27 45 -46 30 hvcurveto
            -148 hmoveto
            11 14 14 11 27 -35 70 -22 -20 -22 -27 -22 -27 45 -46 29 hvcurveto
            return
          </CharString>
          <CharString index="123">
            vvcurveto
            34 -7 30 -15 return
          </CharString>
          <CharString index="124">
            68 -37 50 -69 -89 -52 -83 -86 -46 17 -41 33 -22 vhcurveto
            -57 -94 -127 -38 -88 hhcurveto
            -8 -4 3 5 58 98 88 58 42 hvcurveto
            15 11 13 12 14 vvcurveto
            13 -10 10 -19 vhcurveto
            -28 277 callgsubr
            112 66 hvcurveto
            29 0 -28 17 hhcurveto
            9 12 19 16 15 -6 16 -13 12 hvcurveto
            return
          </CharString>
          <CharString index="125">
            rmoveto
            -13 -16 -29 -22 -26 46 -62 21 14 8 10 16 30 -32 83 -28 hvcurveto
            -464 264 -102 callgsubr
            308 hlineto
            -6 -22 -3 -25 -22 -6 0 -6 -6 vvcurveto
            7 -13 -16 5 -14 hhcurveto
            -79 -143 -70 -53 -22 24 -44 296 callgsubr
            137 -5 -49 vvcurveto
            -34 -36 -30 -73 -80 -32 31 37 309 callgsubr
            -8 170 callsubr
            225 -39 callgsubr
          </CharString>
          <CharString index="126">
            -10 289 348 rmoveto
            -25 -45 34 74 -35 hvcurveto
            91 -45 0 107 -38 hhcurveto
            -31 -12 -31 -43 3 hvcurveto
            15 -149 75 -133 107 -32 rrcurveto
            -52 -98 -39 -82 -35 vvcurveto
            -23 9 -12 15 32 38 74 132 71 vhcurveto
            92 163 130 171 45 vvcurveto
            30 -22 23 -28 vhcurveto
            -60 -118 -306 -37 hhcurveto
            return
          </CharString>
          <CharString index="127">
            5 218 575 -66 callgsubr
            return
          </CharString>
          <CharString index="128">
            rmoveto
            -245 -67 -2 -23 -23 29 -38 21 37 61 5 2 62 hvcurveto
            -16 -153 -93 -283 -60 vvcurveto
            -23 31 -34 17 17 25 114 116 31 vhcurveto
            41 156 28 118 35 vvcurveto
            5 -1 5 -1 5 vhcurveto
            60 -2 47 -3 52 -2 rrcurveto
            43 -1 20 4 15 vvcurveto
            29 -84 38 -115 vhcurveto
            endchar
          </CharString>
          <CharString index="129">
            573 rmoveto
            -13 -61 -12 -62 -14 -67 -93 -48 -123 -40 -80 -5 rrcurveto
            -63 44 -73 30 40 63 callsubr
            return
          </CharString>
          <CharString index="130">
            43 callsubr
            75 127 59 103 84 vhcurveto
            -20 61 69 -8 61 hhcurveto
            return
          </CharString>
          <CharString index="131">
            vvcurveto
            12 12 5 21 vhcurveto
            85 50 -49 25 hhcurveto
            4 3 1 1 3 hvcurveto
            25 10 8 80 73 vvcurveto
            13 -3 12 -4 11 vhcurveto
            return
          </CharString>
          <CharString index="132">
            rmoveto
            49 51 8 17 49 hvcurveto
            -86 -210 -248 -107 -41 vvcurveto
            -11 12 -8 12 98 300 259 180 19 -7 14 -13 vhcurveto
            -30 -82 -48 -106 -47 -9 9 -35 hhcurveto
            -15 -8 -9 -16 -17 12 -14 18 -9 hvcurveto
            5 -5 3 -6 -7 vvcurveto
            -57 -95 -52 -84 -29 -13 12 35 62 35 89 81 29 vhcurveto
            17 5 20 3 244 callgsubr
            -85 -78 -122 -110 -76 40 -56 78 125 136 79 78 8 -2 10 -5 9 vhcurveto
            -358 391 -95 callsubr
            507 -106 callgsubr
          </CharString>
          <CharString index="133">
            2 callsubr
            101 332 -66 callsubr
            return
          </CharString>
          <CharString index="134">
            69 -4 -23 94 -86 hhcurveto
            -134 -143 -251 -122 -57 56 -63 61 35 51 24 36 48 hvcurveto
            -136 -39 -18 -122 -67 -90 -14 95 -35 hhcurveto
            -12 -15 -27 -18 -45 66 -68 102 157 -6 250 196 89 hvcurveto
            15 25 11 25 5 24 2 15 -5 17 -8 11 return
          </CharString>
          <CharString index="135">
            -102 callsubr
            -297 -11 callgsubr
            1 -45 callsubr
            -140 -199 -85 -36 vvcurveto
            -36 40 -47 callgsubr
            -104 callsubr
          </CharString>
          <CharString index="136">
            5 -3 16 callgsubr
            return
          </CharString>
          <CharString index="137">
            -77 70 -66 113 22 21 3 4 20 return
          </CharString>
          <CharString index="138">
            -46 66 -70 104 -41 79 rrcurveto
            -64 -216 rmoveto
            40 7 50 12 49 vhcurveto
            43 -70 65 -83 46 -55 rrcurveto
            -32 -46 -49 -25 -35 hhcurveto
            -30 -13 66 60 hvcurveto
            -103 290 266 callgsubr
            -22 -68 -15 -71 -78 vvcurveto
            -98 30 -108 83 41 return
          </CharString>
          <CharString index="139">
            -12 callsubr
            -175 -55 callsubr
            30 -40 callsubr
            return
          </CharString>
          <CharString index="140">
            143 33 -34 callgsubr
            return
          </CharString>
          <CharString index="141">
            -38 53 -118 -179 hhcurveto
            -97 -51 45 52 hvcurveto
            9 3 1 9 vvcurveto
            15 -33 21 -21 -19 -8 -14 -21 -122 120 -60 108 return
          </CharString>
          <CharString index="142">
            vvcurveto
            159 -367 rmoveto
            22 15 -14 -24 -40 -51 -31 -77 -7 hvcurveto
            67 8 30 49 53 hhcurveto
            return
          </CharString>
          <CharString index="143">
            1 11 40 callsubr
            return
          </CharString>
          <CharString index="144">
            rmoveto
            21 27 33 29 39 hvcurveto
            43 32 49 19 30 vvcurveto
            15 -10 8 -19 -18 -51 -23 -70 -76 vhcurveto
            62 -78 -12 65 -36 hhcurveto
            -16 -13 -14 -19 -55 129 -112 21 hvcurveto
            return
          </CharString>
          <CharString index="145">
            -5 4 14 14 5 18 8 19 hvcurveto
            -4 11 12 -2 return
          </CharString>
          <CharString index="146">
            vvcurveto
            -66 64 -39 109 132 194 88 113 -14 callsubr
          </CharString>
          <CharString index="147">
            1 12 12 -101 callsubr
            return
          </CharString>
          <CharString index="148">
            243 callsubr
            74 73 55 107 callsubr
            return
          </CharString>
          <CharString index="149">
            484 308 rmoveto
            52 -240 156 -100 -59 -28 -52 -49 -61 39 -75 65 56 56 54 45 32 vhcurveto
            39 -19 33 -25 35 -27 -45 -21 -84 -47 -60 -37 rrcurveto
            -97 -59 -85 -44 310 callsubr
            70 43 60 98 vhcurveto
            85 52 136 72 41 vvcurveto
            38 265 rmoveto
            -106 callsubr
            -62 hvcurveto
            -406 hlineto
            -99 callsubr
            23 -229 rmoveto
            -25 -14 40 19 23 16 18 23 22 31 -13 -21 35 hvcurveto
            -28 -22 -39 -38 -27 hhcurveto
            return
          </CharString>
          <CharString index="150">
            -105 -77 -132 -68 -104 -56 callsubr
            return
          </CharString>
          <CharString index="151">
            hlineto
            4 -21 6 -28 2 -49 rrcurveto
            4 -20 -25 1 -25 hhcurveto
            -97 -79 -35 -66 return
          </CharString>
          <CharString index="152">
            -30 14 -27 callgsubr
            return
          </CharString>
          <CharString index="153">
            -9 hlineto
            -25 -144 328 callgsubr
            -7 -5 -9 -15 38 -50 28 26 28 1 1 28 hvcurveto
            -12 -20 -6 -23 -27 vvcurveto
            -121 118 -117 244 callsubr
            60 -138 6 130 vvcurveto
            56 53 26 96 return
          </CharString>
          <CharString index="154">
            -95 callsubr
            503 hlineto
            -8 -44 -8 -43 -8 -43 rrcurveto
            -32 -40 -56 -35 -64 -47 -16 17 -31 hhcurveto
            -16 -7 -9 -16 -17 13 -15 20 -12 hvcurveto
            3 -4 2 -5 -5 vvcurveto
            -62 -87 -47 -87 -29 -13 12 35 62 35 90 82 28 308 callsubr
            25 -28 -85 -77 -123 -110 -76 39 -56 78 130 125 73 85 5 -1 4 -1 6 vhcurveto
            -1 4 5 0 4 hhcurveto
            44 48 12 21 39 hvcurveto
            -3 -17 return
          </CharString>
          <CharString index="155">
            -21 -26 -20 -21 -27 37 6 14 -28 hvcurveto
            -11 -45 -76 229 callsubr
            return
          </CharString>
          <CharString index="156">
            -27 callgsubr
            90 -106 callgsubr
          </CharString>
          <CharString index="157">
            259 callgsubr
            -14 12 34 75 38 89 85 32 vhcurveto
            17 6 20 2 244 callgsubr
            return
          </CharString>
          <CharString index="158">
            527 117 rmoveto
            -48 -35 37 45 -26 hvcurveto
            80 85 76 82 38 hhcurveto
            16 9 -9 -19 -86 -46 -130 -69 hvcurveto
            -357 1 rmoveto
            -22 -9 11 19 53 69 137 56 38 30 -53 -39 26 hvcurveto
            -68 -71 -68 -60 -49 hhcurveto
            446 322 rmoveto
            -54 -79 -74 -77 -80 hvcurveto
            55 -24 -52 72 -67 hhcurveto
            -110 -91 -190 -88 -47 67 -47 47 59 72 52 62 69 hvcurveto
            -64 35 54 -47 68 hhcurveto
            128 61 173 106 61 -43 53 -60 hvcurveto
            return
          </CharString>
          <CharString index="159">
            51 -137 21 111 vvcurveto
            57 49 22 94 42 40 -3 -8 38 vhcurveto
            -81 41 163 -203 37 hhcurveto
            16 213 callsubr
            -60 79 -47 63 hvcurveto
            -12 16 -12 17 -12 17 35 1 33 6 32 11 21 -1 22 -1 24 1 84 1 91 12 77 25 rrcurveto
            -21 -112 -24 -109 -20 vvcurveto
            -28 25 -19 16 31 31 -88 callgsubr
            72 -94 callgsubr
            endchar
          </CharString>
          <CharString index="160">
            -69 callgsubr
            45 74 61 30 39 hhcurveto
            return
          </CharString>
          <CharString index="161">
            rmoveto
            139 callgsubr
            31 28 -34 -41 326 callgsubr
            -12 4 -11 6 rrcurveto
            261 158 rmoveto
            -27 callsubr
            -25 35 -11 58 -3 hvcurveto
            -10 -55 -10 -54 -10 -55 -81 -101 -125 -63 -130 -5 rrcurveto
            125 75 87 114 121 vvcurveto
            80 -56 60 -77 -69 -51 -44 -70 -86 66 -58 72 -11 vhcurveto
            -66 -90 -118 -48 -29 vvcurveto
            -36 50 -49 41 109 113 42 71 86 vhcurveto
            return
          </CharString>
          <CharString index="162">
            rmoveto
            18 16 6 12 14 hvcurveto
            1 -1 rlineto
            26 34 39 30 48 93 32 -73 30 hhcurveto
            8 4 5 10 52 -69 84 -104 -21 -19 -4 -8 -19 hvcurveto
            3 17 1 17 17 vvcurveto
            57 -11 50 -40 -18 -14 -12 -19 vhcurveto
            147 callgsubr
            endchar
          </CharString>
          <CharString index="163">
            rmoveto
            1 12 0 12 10 vvcurveto
            133 -47 146 -153 -196 -200 -269 -84 -16 12 -15 16 30 17 23 30 19 vhcurveto
            142 callgsubr
            -238 hlineto
            165 callsubr
            endchar
          </CharString>
          <CharString index="164">
            hlineto
            -5 -9 -3 -9 -9 vvcurveto
            -23 40 -28 20 18 9 18 15 11 vhcurveto
            16 11 21 11 25 hhcurveto
            40 18 -25 -45 return
          </CharString>
          <CharString index="165">
            16 60 8 63 57 vvcurveto
            86 -29 91 -90 -71 -66 -96 -83 102 callsubr
            return
          </CharString>
          <CharString index="166">
            rrcurveto
            -10 -40 -10 -52 -29 vvcurveto
            -18 5 -16 15 36 20 103 134 32 vhcurveto
            9 36 11 41 13 39 rrcurveto
            78 19 67 41 57 vvcurveto
            42 -26 33 -46 -61 -38 -53 -73 -27 vhcurveto
            -1 -12 -12 0 -12 hhcurveto
            -73 -45 18 36 68 119 48 callgsubr
            -61 hvcurveto
            endchar
          </CharString>
          <CharString index="167">
            rmoveto
            36 7 -53 -58 -7 0 -8 -1 -8 hvcurveto
            -4 -15 -16 -2 -19 hhcurveto
            -40 -15 18 27 36 31 59 32 hvcurveto
            return
          </CharString>
          <CharString index="168">
            -27 callsubr
            -31 return
          </CharString>
          <CharString index="169">
            -24 rrcurveto
            -89 -35 rmoveto
            -29 -78 -75 -22 -49 hhcurveto
            -19 -8 6 18 41 94 132 54 47 18 -96 -43 18 hvcurveto
            -298 413 -5 callsubr
            45 70 20 27 77 hvcurveto
            -12 -52 -9 -40 339 callsubr
            30 25 81 93 22 vhcurveto
            43 17 44 19 return
          </CharString>
          <CharString index="170">
            24 callsubr
            -227 -479 rmoveto
            -90 -55 26 40 26 18 11 25 46 29 -43 -60 29 hvcurveto
            return
          </CharString>
          <CharString index="171">
            rmoveto
            -38 -32 65 33 32 30 14 49 23 22 -3 -3 20 hvcurveto
            -77 -13 -23 -61 -38 hhcurveto
            return
          </CharString>
          <CharString index="172">
            57 -24 callsubr
            return
          </CharString>
          <CharString index="173">
            hhcurveto
            -487 81 callgsubr
            34 2 33 8 31 14 return
          </CharString>
          <CharString index="174">
            58 -46 callgsubr
            57 57 callsubr
            -103 -94 -81 -112 hvcurveto
            -37 -24 42 -28 hhcurveto
            -11 -11 -18 -22 -7 2 -8 5 -8 hvcurveto
            16 -42 50 -78 41 -53 rrcurveto
            -81 63 48 -62 30 hhcurveto
            19 8 8 17 22 -54 60 -55 77 hvcurveto
            -15 21 -17 27 -18 27 return
          </CharString>
          <CharString index="175">
            14 callsubr
            -46 -3 return
          </CharString>
          <CharString index="176">
            rmoveto
            -9 -3 -5 -7 -3 -9 -46 -139 -112 -84 -67 2 rrcurveto
            -25 1 -18 15 26 vvcurveto
            86 144 210 88 34 19 -39 -53 vhcurveto
            70 41 rmoveto
            340 callgsubr
            -134 -166 -251 -122 -57 65 -63 60 60 72 51 65 54 vhcurveto
            -66 3 11 -50 27 hhcurveto
            30 -9 56 62 11 hvcurveto
            14 77 21 44 30 vvcurveto
            8 -5 9 -6 8 vhcurveto
            12 20 12 28 22 vvcurveto
            endchar
          </CharString>
          <CharString index="177">
            rmoveto
            33 42 56 36 70 hvcurveto
            -45 35 42 -60 35 hhcurveto
            14 11 9 11 24 -37 36 -34 40 hvcurveto
            33 -28 -10 23 -26 hhcurveto
            -19 -42 -29 -27 -47 hvcurveto
            -49 -28 -20 -20 -29 vvcurveto
            -19 14 -11 16 vhcurveto
            return
          </CharString>
          <CharString index="178">
            356 callgsubr
            64 183 323 148 205 33 callgsubr
          </CharString>
          <CharString index="179">
            rmoveto
            353 callgsubr
            -84 -45 18 vhcurveto
            -43 -73 -71 -26 -60 hhcurveto
            -20 -7 7 17 hvcurveto
            664 351 rmoveto
            -92 -49 -123 -108 -121 -85 20 86 24 115 -51 callgsubr
            return
          </CharString>
          <CharString index="180">
            hlineto
            -4 -8 -3 -9 -8 vvcurveto
            -23 40 -29 20 19 7 19 15 13 177 callsubr
            return
          </CharString>
          <CharString index="181">
            129 -228 -7 31 vvcurveto
            25 98 22 40 vhcurveto
            31 21 -15 19 hhcurveto
            0 1 vlineto
            22 12 14 33 return
          </CharString>
          <CharString index="182">
            rmoveto
            12 callsubr
            return
          </CharString>
          <CharString index="183">
            -75 57 -44 113 146 117 83 79 61 -56 39 -56 18 vhcurveto
            18 79 220 68 63 hhcurveto
            14 9 -5 -13 hvcurveto
            -76 -171 -79 -31 vvcurveto
            -37 50 -42 33 106 124 41 82 91 vhcurveto
            -20 -107 -22 -102 -19 vvcurveto
            -28 25 -19 16 31 31 -88 callgsubr
            96 -106 callgsubr
          </CharString>
          <CharString index="184">
            132 callgsubr
            -43 -69 -63 -35 -44 hhcurveto
            -13 -2 85 callsubr
            -197 74 53 callsubr
            34 11 -20 -31 hvcurveto
            return
          </CharString>
          <CharString index="185">
            313 callsubr
            76 4 72 37 50 52 rrcurveto
            77 114 128 78 77 hhcurveto
            32 13 -18 -33 hvcurveto
            -114 -181 -88 -32 vvcurveto
            -37 40 -37 33 106 120 54 84 89 vhcurveto
            -18 -95 -19 -86 -17 -64 callgsubr
            69 hlineto
            43 25 230 callsubr
            -62 hvcurveto
            endchar
          </CharString>
          <CharString index="186">
            vvcurveto
            -28 -30 -19 -45 -10 vhcurveto
            86 -37 -52 79 -86 hhcurveto
            return
          </CharString>
          <CharString index="187">
            4 -21 6 -31 -39 vvcurveto
            -116 return
          </CharString>
          <CharString index="188">
            rmoveto
            4 39 11 47 11 37 rrcurveto
            47 161 26 86 44 113 callgsubr
            -18 549 rmoveto
            -14 -8 -7 -14 -20 24 -28 37 -17 hvcurveto
            -8 -128 -100 -263 -76 125 callsubr
            vhcurveto
            endchar
          </CharString>
          <CharString index="189">
            rmoveto
            -29 -122 -146 -221 -154 hvcurveto
            65 190 58 245 129 vvcurveto
            39 -36 44 -20 -17 -4 -8 -20 -141 -53 -251 -76 -289 vhcurveto
            -24 -3 30 -40 18 hhcurveto
            21 36 44 118 88 hvcurveto
            -82 9 102 -80 61 hhcurveto
            20 15 7 16 hvcurveto
            31 -138 29 107 vvcurveto
            78 105 86 70 85 vhcurveto
            21 6 -29 33 -23 hhcurveto
            endchar
          </CharString>
          <CharString index="190">
            -18 42 52 -8 61 hhcurveto
            133 133 50 74 50 -69 79 -56 -65 -88 -83 -90 -51 hvcurveto
            37 callgsubr
          </CharString>
          <CharString index="191">
            hvcurveto
            26 -14 16 -23 -29 vvcurveto
            -67 -88 -45 -101 -110 -61 45 67 vhcurveto
            46 32 14 36 vvcurveto
            18 -9 10 -17 -54 -32 -60 -58 -113 93 -81 156 161 115 81 107 return
          </CharString>
          <CharString index="192">
            30 30 74 20 110 31 73 hvcurveto
            return
          </CharString>
          <CharString index="193">
            18 11 19 12 11 vvcurveto
            15 -17 23 -17 return
          </CharString>
          <CharString index="194">
            rmoveto
            -19 -10 11 17 47 91 129 44 35 37 -49 -40 26 hvcurveto
            -62 -70 -91 -53 -43 hhcurveto
            return
          </CharString>
          <CharString index="195">
            -17 25 -8 22 20 vvcurveto
            53 52 38 65 vhcurveto
            138 43 -112 34 hhcurveto
            7 4 4 10 62 -100 113 -128 return
          </CharString>
          <CharString index="196">
            -79 callsubr
            vhcurveto
            21 90 return
          </CharString>
          <CharString index="197">
            15 -11 17 -11 16 return
          </CharString>
          <CharString index="198">
            454 -52 callgsubr
            return
          </CharString>
          <CharString index="199">
            vvcurveto
            -16 34 -26 16 23 39 246 callgsubr
            31 vhcurveto
            20 95 callsubr
            return
          </CharString>
          <CharString index="200">
            431 -102 callgsubr
            return
          </CharString>
          <CharString index="201">
            -3 -18 -3 -21 -5 -19 -5 -16 -4 -13 -4 -10 return
          </CharString>
          <CharString index="202">
            88 31 124 6 39 rrcurveto
            return
          </CharString>
          <CharString index="203">
            -75 callgsubr
            98 -67 78 -119 return
          </CharString>
          <CharString index="204">
            573 304 callsubr
            return
          </CharString>
          <CharString index="205">
            53 43 33 28 21 -11 13 -18 return
          </CharString>
          <CharString index="206">
            286 hlineto
            94 callsubr
            rrcurveto
            -147 -2 -187 -183 -112 vvcurveto
            return
          </CharString>
          <CharString index="207">
            -29 -14 3 -18 hhcurveto
            -15 -8 -9 -16 -14 13 -14 21 -10 hvcurveto
            4 -5 3 -6 349 callgsubr
            -13 12 34 75 37 89 86 32 308 callsubr
            24 -28 -82 -87 30 callgsubr
            138 84 83 9 -3 9 -4 10 vhcurveto
            47 1 57 16 return
          </CharString>
          <CharString index="208">
            vvcurveto
            91 21 48 13 32 vhcurveto
            return
          </CharString>
          <CharString index="209">
            19 callgsubr
            rrcurveto
            -131 -11 -124 -10 -79 94 callgsubr
            return
          </CharString>
          <CharString index="210">
            rmoveto
            271 callsubr
            -91 189 -252 56 16 17 8 16 10 -14 17 -20 23 vhcurveto
            88 callsubr
            hvcurveto
            endchar
          </CharString>
          <CharString index="211">
            6 -6 -11 -54 -93 -61 -62 return
          </CharString>
          <CharString index="212">
            rmoveto
            -12 callsubr
            return
          </CharString>
          <CharString index="213">
            -59 hhcurveto
            -107 239 callsubr
            -82 206 callsubr
            return
          </CharString>
          <CharString index="214">
            33 hvcurveto
            86 callsubr
            return
          </CharString>
          <CharString index="215">
            39 45 24 56 65 callsubr
            return
          </CharString>
          <CharString index="216">
            -20 callsubr
            246 57 callgsubr
            return
          </CharString>
          <CharString index="217">
            rmoveto
            -25 1 -19 15 26 vvcurveto
            86 120 210 85 35 8 -50 -50 6 vhcurveto
            1 -15 2 -12 4 -9 -42 -112 -119 -92 -56 2 rrcurveto
            return
          </CharString>
          <CharString index="218">
            rmoveto
            67 42 87 103 57 -11 50 -40 -18 -14 -12 -19 hvcurveto
            147 callgsubr
            return
          </CharString>
          <CharString index="219">
            230 rmoveto
            -53 -14 -37 -28 -40 -65 73 45 38 63 14 77 5 vhcurveto
            2 -22 5 -22 -41 vvcurveto
            return
          </CharString>
          <CharString index="220">
            333 hlineto
            -1 -5 -20 -96 -11 -85 -17 -77 rlinecurve
            99 -18 -44 102 -82 hhcurveto
            return
          </CharString>
          <CharString index="221">
            rrcurveto
            12 336 callsubr
            67 -52 354 callsubr
            28 -5 313 callgsubr
            31 5 28 hhcurveto
            36 27 -10 -23 32 hvcurveto
            -8 9 8 -6 6 hhcurveto
            23 36 -29 callgsubr
            -34 callgsubr
            return
          </CharString>
          <CharString index="222">
            hlineto
            500 hlineto
            -82 callsubr
            return
          </CharString>
          <CharString index="223">
            25 51 193 -62 callsubr
            return
          </CharString>
          <CharString index="224">
            178 5 callgsubr
            return
          </CharString>
          <CharString index="225">
            -5 -13 hvcurveto
            -71 -172 -78 -31 vvcurveto
            -37 51 -42 33 105 124 40 82 91 vhcurveto
            -20 -107 -22 -101 -19 -90 callgsubr
            90 -106 callgsubr
          </CharString>
          <CharString index="226">
            rmoveto
            17 11 2 35 -20 23 -15 17 -15 5 -18 -17 -109 -108 rcurveline
            267 callsubr
            rrcurveto
            return
          </CharString>
          <CharString index="227">
            270 callgsubr
            109 callgsubr
            vhcurveto
            return
          </CharString>
          <CharString index="228">
            vhcurveto
            15 12 19 10 24 hhcurveto
            37 21 -23 -44 return
          </CharString>
          <CharString index="229">
            33 -19 -7 -8 -5 -15 vhcurveto
            -6 -236 -41 -112 -1 -50 rrcurveto
            -23 27 -21 13 -1 vhcurveto
            413 459 rmoveto
            -12 3 -3 -9 -13 -18 -283 -399 -184 -256 -10 -45 -4 -16 20 -24 14 -3 15 -4 50 69 177 257 return
          </CharString>
          <CharString index="230">
            hlineto
            -27 -24 1 -41 hhcurveto
            -179 -256 -25 -173 -115 122 -97 68 281 callgsubr
            55 -141 12 107 vvcurveto
            return
          </CharString>
          <CharString index="231">
            287 callsubr
            50 23 22 -3 -3 19 hvcurveto
            -77 -13 -22 -61 -38 hhcurveto
            return
          </CharString>
          <CharString index="232">
            vvcurveto
            -35 39 -50 25 137 287 188 120 185 -251 145 -168 return
          </CharString>
          <CharString index="233">
            -54 -61 -67 -48 -1 hvcurveto
            -17 -1 13 -11 18 hhcurveto
            return
          </CharString>
          <CharString index="234">
            198 callsubr
            51 -9 85 hvcurveto
            return
          </CharString>
          <CharString index="235">
            -13 20 vhcurveto
            0 1 vlineto
            return
          </CharString>
          <CharString index="236">
            341 308 rmoveto
            118 165 144 166 5 50 3 21 -22 43 -18 1 rrcurveto
            -9 -5 -9 -16 -11 hvcurveto
            -290 -420 -184 -242 -3 -41 -2 -15 21 -24 11 -1 17 -2 46 68 179 256 rrcurveto
            endchar
          </CharString>
          <CharString index="237">
            134 201 rmoveto
            -54 callgsubr
            return
          </CharString>
          <CharString index="238">
            573 rmoveto
            -6 callsubr
            return
          </CharString>
          <CharString index="239">
            2 37 10 33 16 return
          </CharString>
          <CharString index="240">
            -376 hlineto
            -89 callsubr
            return
          </CharString>
          <CharString index="241">
            208 rmoveto
            40 6 50 13 49 vhcurveto
            43 -70 65 -84 45 -54 rrcurveto
            -32 -45 -49 -25 -36 hhcurveto
            -30 -12 66 60 hvcurveto
            -103 290 248 callsubr
            return
          </CharString>
          <CharString index="242">
            376 573 105 callsubr
            return
          </CharString>
          <CharString index="243">
            213 callgsubr
            17 25 62 73 52 55 vhcurveto
            40 42 return
          </CharString>
          <CharString index="244">
            rmoveto
            314 callgsubr
            17 12 -20 -24 -3 hvcurveto
            -23 -1 -17 -20 -16 hhcurveto
            -17 -13 20 23 4 hvcurveto
            20 -94 rmoveto
            47 43 44 52 6 hvcurveto
            52 6 -34 44 -47 hhcurveto
            -48 -42 -44 -52 -6 hvcurveto
            -52 -6 34 -44 47 hhcurveto
            return
          </CharString>
          <CharString index="245">
            rmoveto
            -28 49 -45 27 12 14 14 8 26 -33 80 -24 -21 -24 -32 -23 vhcurveto
            endchar
          </CharString>
          <CharString index="246">
            135 322 389 rmoveto
            8 63 2 63 49 vvcurveto
            9 242 vlineto
            -9 -49 -9 -49 -9 -49 -46 -6 -88 -17 -72 -11 rrcurveto
            -161 -206 rmoveto
            -25 -42 38 31 24 50 15 69 12 hvcurveto
            -68 -11 -17 -52 -24 hhcurveto
            return
          </CharString>
          <CharString index="247">
            -60 -54 -53 -75 -58 71 callsubr
          </CharString>
          <CharString index="248">
            62 -77 vhcurveto
            -68 53 55 -60 22 hhcurveto
            36 callgsubr
            hvcurveto
            return
          </CharString>
          <CharString index="249">
            vvcurveto
            22 -2 22 -4 21 vhcurveto
            -4 22 30 -2 35 hhcurveto
            -308 return
          </CharString>
          <CharString index="250">
            vvcurveto
            -45 59 -34 60 -13 vhcurveto
            -12 -10 -13 -11 -11 -10 rrcurveto
            -47 return
          </CharString>
          <CharString index="251">
            137 callgsubr
            -57 -53 -65 return
          </CharString>
          <CharString index="252">
            -57 33 -48 85 18 return
          </CharString>
          <CharString index="253">
            -34 -79 -69 -149 -36 -17 7 -26 hhcurveto
            -16 -7 -9 -16 -18 14 -15 23 -10 hvcurveto
            2 -4 2 -4 -5 vvcurveto
            -56 50 callsubr
            return
          </CharString>
          <CharString index="254">
            hhcurveto
            -73 -45 230 callgsubr
            64 hvcurveto
            52 11 -39 26 hhcurveto
            11 11 7 11 7 hvcurveto
            6 8 2 13 15 vvcurveto
            91 21 48 14 299 callsubr
          </CharString>
          <CharString index="255">
            -95 callsubr
            100 hlineto
            -57 -33 -52 -47 -39 vvcurveto
            -44 55 -33 57 -14 vhcurveto
            -15 -11 -15 -12 -13 -12 rrcurveto
            -45 -40 -29 -42 -35 vvcurveto
            -43 31 -30 59 91 112 51 62 80 vhcurveto
            return
          </CharString>
          <CharString index="256">
            79 callsubr
            -64 -51 -38 -62 -89 return
          </CharString>
          <CharString index="257">
            -13 hlineto
            -28 0 -38 1 -34 vhcurveto
            20 -38 -54 15 return
          </CharString>
          <CharString index="258">
            -42 59 -71 124 -44 90 rrcurveto
            return
          </CharString>
          <CharString index="259">
            -4 3 5 41 75 345 callsubr
            -18 23 -17 -5 -7 -2 -5 -9 vhcurveto
            -11 -29 -53 -24 -51 hhcurveto
            -16 226 callsubr
            return
          </CharString>
          <CharString index="260">
            662 -49 callsubr
            return
          </CharString>
          <CharString index="261">
            -9 -44 -21 -128 -9 -43 rrcurveto
            48 -31 -37 48 -50 hhcurveto
            return
          </CharString>
          <CharString index="262">
            -25 3 -50 1 -57 -1 rrcurveto
            8 54 4 40 17 289 callgsubr
            -4 -9 -21 -41 -6 -59 -9 -68 vhcurveto
            -94 -5 -85 -12 -1 -18 rrcurveto
            -16 -1 22 -32 18 hhcurveto
            35 -2 34 8 61 5 return
          </CharString>
          <CharString index="263">
            -45 hvcurveto
            81 -25 -55 64 -101 hhcurveto
            -196 -200 -269 -84 -16 12 -15 16 30 17 23 30 19 hvcurveto
            142 callgsubr
            endchar
          </CharString>
          <CharString index="264">
            -278 211 448 -11 callsubr
            return
          </CharString>
          <CharString index="265">
            75 callgsubr
            101 326 -66 callsubr
            return
          </CharString>
          <CharString index="266">
            292 7 callsubr
            return
          </CharString>
          <CharString index="267">
            125 44 -109 29 hhcurveto
            6 4 4 10 60 -83 112 -136 return
          </CharString>
          <CharString index="268">
            vhcurveto
            138 40 -105 35 hhcurveto
            6 4 3 10 62 -98 108 -132 return
          </CharString>
          <CharString index="269">
            vvcurveto
            76 -50 72 -82 -111 -69 -86 -86 return
          </CharString>
          <CharString index="270">
            20 -15 35 31 vvcurveto
            31 19 17 27 return
          </CharString>
          <CharString index="271">
            12 15 17 -51 67 return
          </CharString>
          <CharString index="272">
            -99 callsubr
            178 hlineto
            -24 -197 -77 -276 -59 vvcurveto
            -19 15 -16 19 45 81 346 221 24 vhcurveto
            109 -94 callgsubr
            return
          </CharString>
          <CharString index="273">
            -95 callsubr
            360 hlineto
            -14 -56 -13 -87 -23 -98 rrcurveto
            87 -23 -46 94 -67 hhcurveto
            -114 -85 -156 -100 -76 32 -43 71 62 69 25 39 56 hvcurveto
            -4 return
          </CharString>
          <CharString index="274">
            -43 -105 -98 115 -120 70 281 callgsubr
            51 -137 21 111 vvcurveto
            57 49 22 return
          </CharString>
          <CharString index="275">
            -102 callgsubr
            309 hlineto
            return
          </CharString>
          <CharString index="276">
            rmoveto
            -22 -20 -2 -5 -14 hvcurveto
            31 -19 -28 20 -43 hhcurveto
            return
          </CharString>
          <CharString index="277">
            -17 -22 -77 89 -65 117 192 callgsubr
            return
          </CharString>
          <CharString index="278">
            -51 callgsubr
            -451 74 rmoveto
            -49 -33 -10 -24 -31 52 -9 84 hvcurveto
            309 238 callsubr
            -107 239 callsubr
            -82 -46 58 -45 43 return
          </CharString>
          <CharString index="279">
            vvcurveto
            43 -13 35 -29 23 vhcurveto
            -841 -351 rmoveto
            355 callgsubr
            return
          </CharString>
          <CharString index="280">
            -85 709 rmoveto
            -14 20 -6 19 17 vvcurveto
            47 49 35 71 161 callsubr
            -104 -84 -61 -94 -25 10 -25 19 -22 hvcurveto
            return
          </CharString>
          <CharString index="281">
            rmoveto
            177 callgsubr
            return
          </CharString>
          <CharString index="282">
            68 157 callgsubr
            return
          </CharString>
          <CharString index="283">
            68 callgsubr
            137 13 137 3 33 vvcurveto
            272 callgsubr
            return
          </CharString>
          <CharString index="284">
            180 callgsubr
            -98 -92 -98 return
          </CharString>
          <CharString index="285">
            33 183 131 28 vhcurveto
            20 90 29 122 5 41 rrcurveto
            return
          </CharString>
          <CharString index="286">
            498 -95 callsubr
            return
          </CharString>
          <CharString index="287">
            7 hlineto
            -38 -40 -30 -46 -39 vvcurveto
            -44 31 -26 52 return
          </CharString>
          <CharString index="288">
            -33 184 callgsubr
            return
          </CharString>
          <CharString index="289">
            7 -13 -15 5 -15 hhcurveto
            return
          </CharString>
          <CharString index="290">
            12 12 0 1 11 hvcurveto
            -97 40 return
          </CharString>
          <CharString index="291">
            -102 callgsubr
            304 hlineto
            -5 -21 -3 -23 -21 315 callsubr
            -6 vhcurveto
            7 -15 -16 4 -13 hhcurveto
            -76 -140 -61 -48 -22 return
          </CharString>
          <CharString index="292">
            hhcurveto
            -29 -12 63 55 61 15 79 25 67 hvcurveto
            -155 -11 callgsubr
            9 hlineto
            -20 -63 -12 -75 -62 vvcurveto
            -104 32 -100 83 46 return
          </CharString>
          <CharString index="293">
            -45 -90 149 callsubr
            return
          </CharString>
          <CharString index="294">
            -49 -77 -96 -68 vvcurveto
            -48 43 -26 49 -6 vhcurveto
            -60 -54 -53 -75 -58 356 callgsubr
            return
          </CharString>
          <CharString index="295">
            141 callsubr
            -12 return
          </CharString>
          <CharString index="296">
            52 -78 callsubr
            return
          </CharString>
          <CharString index="297">
            69 -87 30 hhcurveto
            18 9 8 17 22 -74 85 -55 77 hvcurveto
            return
          </CharString>
          <CharString index="298">
            52 -18 41 -19 38 -18 -45 -24 -63 -40 -56 -34 rrcurveto
            218 callgsubr
            98 61 106 56 38 vvcurveto
            return
          </CharString>
          <CharString index="299">
            -25 -3 -76 -182 hhcurveto
            -80 -81 14 37 53 153 153 62 hvcurveto
            45 15 -61 26 hhcurveto
            3 4 1 1 3 hvcurveto
            22 103 163 67 92 hhcurveto
            return
          </CharString>
          <CharString index="300">
            -91 -64 -83 -71 -56 hhcurveto
            -40 -35 32 51 166 188 216 109 hvcurveto
            return
          </CharString>
          <CharString index="301">
            vvcurveto
            86 -29 91 -90 return
          </CharString>
          <CharString index="302">
            75 callsubr
            407 hlineto
            -11 -63 -12 -69 -12 -67 rrcurveto
            44 -29 -46 43 -55 hhcurveto
            -32 -34 -17 -27 -30 hvcurveto
            -55 -37 return
          </CharString>
          <CharString index="303">
            146 555 rmoveto
            45 109 98 88 58 -44 42 -49 -29 -27 -21 -22 hvcurveto
            -36 67 8 -52 -70 -96 -44 -31 vvcurveto
            -12 9 -6 15 vhcurveto
            return
          </CharString>
          <CharString index="304">
            -85 3 67 -120 40 hhcurveto
            12 5 6 12 hvcurveto
            30 -68 82 111 vvcurveto
            return
          </CharString>
          <CharString index="305">
            647 rmoveto
            61 callsubr
            return
          </CharString>
          <CharString index="306">
            hvcurveto
            -56 -11 44 return
          </CharString>
          <CharString index="307">
            15 -61 hvcurveto
            endchar
          </CharString>
          <CharString index="308">
            -102 callgsubr
            287 hlineto
            -15 -33 -11 -42 -1 -33 rrcurveto
            11 -19 -20 8 -18 hhcurveto
            -98 -155 -165 -107 return
          </CharString>
          <CharString index="309">
            181 callgsubr
            hvcurveto
            -38 53 -118 -179 hhcurveto
            -97 -51 45 52 hvcurveto
            9 3 1 9 vvcurveto
            15 -33 21 -21 return
          </CharString>
          <CharString index="310">
            hhcurveto
            26 42 161 137 32 hvcurveto
            23 96 24 120 8 53 rrcurveto
            124 -94 callgsubr
            endchar
          </CharString>
          <CharString index="311">
            -21 -12 -10 -16 -29 80 -14 116 -39 return
          </CharString>
          <CharString index="312">
            rmoveto
            61 callsubr
            48 -73 callsubr
            return
          </CharString>
          <CharString index="313">
            -46 58 -45 43 return
          </CharString>
          <CharString index="314">
            rmoveto
            -25 -37 49 return
          </CharString>
          <CharString index="315">
            hhcurveto
            534 hlineto
            -8 -46 -22 -26 -37 -47 -42 -39 rlinecurve
            -22 callsubr
            return
          </CharString>
          <CharString index="316">
            -46 -108 -98 -88 -59 44 -41 49 29 27 21 22 hvcurveto
            36 -67 -8 52 70 96 44 31 vvcurveto
            12 -9 6 -15 vhcurveto
            endchar
          </CharString>
          <CharString index="317">
            166 118 vvcurveto
            8 -1 8 -1 8 vhcurveto
            -1 return
          </CharString>
          <CharString index="318">
            447 rmoveto
            61 callsubr
            51 -9 85 hvcurveto
            return
          </CharString>
          <CharString index="319">
            -74 295 callsubr
            return
          </CharString>
          <CharString index="320">
            11 12 15 17 return
          </CharString>
          <CharString index="321">
            1 -6 hhcurveto
            -8 -5 -8 -10 -2 hvcurveto
            -1 -3 -1 -4 -3 vvcurveto
            -3 1 -4 2 -4 vhcurveto
            1 -4 2 -4 2 -3 16 -29 return
          </CharString>
          <CharString index="322">
            573 rmoveto
            5 4 0 4 9 9 0 10 283 callgsubr
            return
          </CharString>
          <CharString index="323">
            -39 303 callgsubr
            return
          </CharString>
          <CharString index="324">
            22 33 67 hvcurveto
            -15 -67 -12 -54 -15 66 callgsubr
            34 28 return
          </CharString>
          <CharString index="325">
            319 callgsubr
            -63 return
          </CharString>
          <CharString index="326">
            hhcurveto
            -137 -155 -28 -91 -79 116 -130 81 83 33 88 83 32 -3 29 -7 22 hvcurveto
            0 159 vlineto
            9 return
          </CharString>
          <CharString index="327">
            -2 166 262 rmoveto
            61 57 111 51 38 45 -81 -71 15 vhcurveto
            -49 -55 -57 -21 -60 hhcurveto
            -28 -6 15 35 hvcurveto
            return
          </CharString>
          <CharString index="328">
            -86 161 83 rmoveto
            -26 -19 43 40 145 88 94 71 24 19 -16 -22 18 hvcurveto
            -129 -9 -89 -155 -77 hhcurveto
            return
          </CharString>
          <CharString index="329">
            -116 -22 vvcurveto
            -24 35 -30 13 return
          </CharString>
          <CharString index="330">
            2 -28 hhcurveto
            -85 -66 -28 -73 -80 return
          </CharString>
          <CharString index="331">
            -1 -11 235 callgsubr
            return
          </CharString>
          <CharString index="332">
            154 hlineto
            -94 -39 -92 -99 -74 vvcurveto
            -47 45 -25 49 -6 vhcurveto
            return
          </CharString>
          <CharString index="333">
            38 callsubr
            12 hhcurveto
            return
          </CharString>
          <CharString index="334">
            327 callgsubr
            19 return
          </CharString>
          <CharString index="335">
            rmoveto
            12 104 callsubr
            return
          </CharString>
          <CharString index="336">
            296 callsubr
            -5 12 return
          </CharString>
          <CharString index="337">
            12 20 27 -38 15 return
          </CharString>
          <CharString index="338">
            hhcurveto
            -12 -3 30 30 return
          </CharString>
          <CharString index="339">
            rrcurveto
            20 -20 -26 15 -29 hhcurveto
            -124 -102 -135 -156 -99 56 -61 65 144 121 196 185 return
          </CharString>
          <CharString index="340">
            rmoveto
            42 95 62 75 40 -36 31 -39 -20 -27 -20 -21 -27 38 6 13 -28 hvcurveto
            -10 -45 -77 290 callgsubr
            return
          </CharString>
          <CharString index="341">
            647 rmoveto
            -23 42 -124 99 92 97 callgsubr
            return
          </CharString>
          <CharString index="342">
            275 112 callsubr
            return
          </CharString>
          <CharString index="343">
            -9 136 callgsubr
            return
          </CharString>
          <CharString index="344">
            -10 -6 -3 -13 -91 189 -252 56 16 17 8 16 return
          </CharString>
          <CharString index="345">
            312 callsubr
            -71 rrcurveto
            57 -17 -34 55 -59 hhcurveto
            return
          </CharString>
          <CharString index="346">
            -115 -178 return
          </CharString>
          <CharString index="347">
            -178 rmoveto
            26 9 -22 -27 -43 -28 -39 -44 -36 hvcurveto
            -15 8 -16 17 39 vvcurveto
            54 26 49 42 vhcurveto
            return
          </CharString>
          <CharString index="348">
            vvcurveto
            246 callsubr
            return
          </CharString>
          <CharString index="349">
            -27 hvcurveto
            1 vlineto
            16 -42 -66 7 -59 hhcurveto
            return
          </CharString>
          <CharString index="350">
            321 callsubr
            5 41 return
          </CharString>
          <CharString index="351">
            175 callsubr
            vhcurveto
            return
          </CharString>
          <CharString index="352">
            -23 -9 -62 -177 -42 return
          </CharString>
          <CharString index="353">
            -122 118 -123 244 callsubr
            60 -138 7 136 vvcurveto
            56 55 28 94 return
          </CharString>
          <CharString index="354">
            183 124 callsubr
            return
          </CharString>
          <CharString index="355">
            -95 callsubr
            3 hlineto
            -22 -68 -16 -71 -78 vvcurveto
            -98 31 -108 82 return
          </CharString>
          <CharString index="356">
            -382 rmoveto
            44 70 72 55 33 vhcurveto
            320 callsubr
            return
          </CharString>
          <CharString index="357">
            -368 rmoveto
            -54 -14 -36 -28 -40 -65 73 45 37 63 14 77 5 vhcurveto
            2 -22 5 -22 -40 vvcurveto
            return
          </CharString>
          <CharString index="358">
            464 276 callsubr
            return
          </CharString>
          <CharString index="359">
            vvcurveto
            -160 145 -88 169 63 39 19 25 16 return
          </CharString>
          <CharString index="360">
            -102 callgsubr
            511 hlineto
            return
          </CharString>
          <CharString index="361">
            hhcurveto
            65 callgsubr
            return
          </CharString>
          <CharString index="362">
            245 callgsubr
            34 -11 return
          </CharString>
          <CharString index="363">
            41 95 132 53 return
          </CharString>
          <CharString index="364">
            hhcurveto
            -137 -154 -26 -86 -87 115 -95 81 83 33 87 64 28 -2 23 -6 18 hvcurveto
            return
          </CharString>
          <CharString index="365">
            -99 callgsubr
            103 -106 callgsubr
          </CharString>
          <CharString index="366">
            rmoveto
            -36 -14 8 28 48 52 78 44 36 28 -43 -62 20 hvcurveto
            -35 -37 -53 -22 -40 hhcurveto
            return
          </CharString>
          <CharString index="367">
            128 -53 callsubr
            return
          </CharString>
          <CharString index="368">
            rmoveto
            -25 -18 33 23 25 22 7 41 16 15 -1 -3 17 hvcurveto
            -48 -17 -24 -36 -27 hhcurveto
            return
          </CharString>
          <CharString index="369">
            -59 callgsubr
            -77 -60 -58 -74 -38 hvcurveto
            19 return
          </CharString>
          <CharString index="370">
            604 -102 callgsubr
            return
          </CharString>
          <CharString index="371">
            -20 2 -20 hhcurveto
            -51 -27 -11 -23 -21 37 -42 29 return
          </CharString>
          <CharString index="372">
            469 -102 callgsubr
            return
          </CharString>
          <CharString index="373">
            hlineto
            -16 -33 -10 -42 -1 -34 rrcurveto
            12 -19 -21 8 return
          </CharString>
          <CharString index="374">
            -19 -18 -10 -24 13 -16 17 -21 25 19 18 11 return
          </CharString>
          <CharString index="375">
            hhcurveto
            18 293 callgsubr
            return
          </CharString>
          <CharString index="376">
            -72 40 -60 78 132 return
          </CharString>
          <CharString index="377">
            5 -3 4 hhcurveto
            23 36 -29 callgsubr
            -34 callgsubr
            return
          </CharString>
          <CharString index="378">
            -82 -82 -49 -75 -15 hvcurveto
            -17 27 -11 28 28 vvcurveto
            35 -70 56 -41 -10 -6 -3 -13 return
          </CharString>
          <CharString index="379">
            rmoveto
            331 callsubr
            30 -36 71 -25 hvcurveto
            endchar
          </CharString>
          <CharString index="380">
            11 51 20 97 9 60 rrcurveto
            330 -107 callgsubr
            return
          </CharString>
          <CharString index="381">
            18 92 15 87 11 72 130 10 67 8 1 20 1 16 -20 9 -37 4 return
          </CharString>
          <CharString index="382">
            120 callgsubr
            endchar
          </CharString>
          <CharString index="383">
            320 75 callsubr
            return
          </CharString>
          <CharString index="384">
            -1 0 -2 -1 vvcurveto
            -20 29 -32 23 vhcurveto
            18 return
          </CharString>
          <CharString index="385">
            hhcurveto
            -107 -115 -178 -83 206 callsubr
            return
          </CharString>
          <CharString index="386">
            -80 54 77 -78 104 hhcurveto
            96 return
          </CharString>
          <CharString index="387">
            330 callgsubr
            -44 return
          </CharString>
          <CharString index="388">
            2 2 callsubr
            return
          </CharString>
          <CharString index="389">
            vvcurveto
            -92 127 -109 61 23 12 11 17 vhcurveto
            49 -139 33 90 vvcurveto
            return
          </CharString>
          <CharString index="390">
            40 -14 3 rrcurveto
            69 -426 rmoveto
            -10 -10 -7 -16 -32 -2 -29 -4 -28 hvcurveto
            return
          </CharString>
          <CharString index="391">
            -10 rrcurveto
            93 55 104 106 111 vvcurveto
            26 -5 25 -10 20 vhcurveto
            198 hlineto
            return
          </CharString>
          <CharString index="392">
            rmoveto
            27 -32 64 -23 -16 -16 -22 -23 -23 46 -48 22 13 6 10 15 vhcurveto
            return
          </CharString>
          <CharString index="393">
            172 callsubr
            53 44 return
          </CharString>
          <CharString index="394">
            rmoveto
            -38 -32 65 33 31 29 15 return
          </CharString>
          <CharString index="395">
            vvcurveto
            -24 36 -30 13 23 return
          </CharString>
          <CharString index="396">
            239 callgsubr
            hvcurveto
            return
          </CharString>
          <CharString index="397">
            vvcurveto
            30 callsubr
            vhcurveto
            -51 -37 -66 -35 -74 return
          </CharString>
          <CharString index="398">
            vvcurveto
            131 callgsubr
            return
          </CharString>
          <CharString index="399">
            333 callsubr
            15 -11 17 -11 16 return
          </CharString>
          <CharString index="400">
            28 hvcurveto
            0 vlineto
            199 callgsubr
            return
          </CharString>
          <CharString index="401">
            239 callsubr
            -82 206 callsubr
            61 return
          </CharString>
          <CharString index="402">
            -24 213 callgsubr
            return
          </CharString>
          <CharString index="403">
            290 callgsubr
            9 return
          </CharString>
          <CharString index="404">
            573 rmoveto
            3 callsubr
            return
          </CharString>
          <CharString index="405">
            517 325 callsubr
            -12 return
          </CharString>
          <CharString index="406">
            32 vhcurveto
            142 -106 callgsubr
          </CharString>
          <CharString index="407">
            211 callsubr
            306 hlineto
            return
          </CharString>
          <CharString index="408">
            hhcurveto
            77 94 29 32 10 -10 5 -21 hvcurveto
            -34 -41 -11 -54 hhcurveto
            return
          </CharString>
          <CharString index="409">
            228 callsubr
            -4 -5 1 2 -4 hvcurveto
            return
          </CharString>
          <CharString index="410">
            212 callgsubr
            -106 -112 return
          </CharString>
          <CharString index="411">
            rmoveto
            -59 callgsubr
            return
          </CharString>
          <CharString index="412">
            -13 hhcurveto
            -76 -140 -61 -48 -22 21 -34 296 callgsubr
            return
          </CharString>
          <CharString index="413">
            vhcurveto
            181 -106 callgsubr
          </CharString>
          <CharString index="414" raw="1">
            b408e706 f7081d0b  
          </CharString>
          <CharString index="415">
            vhcurveto
            16 6 322 callgsubr
            17 -43 return
          </CharString>
          <CharString index="416">
            rrcurveto
            -1 2 1 0 2 hhcurveto
            return
          </CharString>
          <CharString index="417">
            -27 vvcurveto
            -18 12 -14 22 20 return
          </CharString>
          <CharString index="418">
            338 callsubr
            -1 return
          </CharString>
          <CharString index="419">
            hlineto
            -13 -67 -12 -74 -13 return
          </CharString>
          <CharString index="420">
            -12 90 callsubr
            return
          </CharString>
          <CharString index="421">
            340 callsubr
            121 return
          </CharString>
          <CharString index="422">
            vvcurveto
            -7 0 -7 1 return
          </CharString>
          <CharString index="423">
            rmoveto
            -28 -11 -25 -31 return
          </CharString>
          <CharString index="424">
            -17 -4 -9 -21 return
          </CharString>
          <CharString index="425">
            11 13 14 11 return
          </CharString>
          <CharString index="426">
            193 147 36 vhcurveto
            23 98 36 185 48 vvcurveto
            17 return
          </CharString>
          <CharString index="427">
            86 callsubr
            -4 -6 -2 -3 return
          </CharString>
          <CharString index="428">
            hhcurveto
            -9 -4 3 return
          </CharString>
          <CharString index="429">
            -30 -12 60 61 return
          </CharString>
          <CharString index="430">
            rmoveto
            -38 -28 -6 -14 -11 hvcurveto
            39 -23 -41 25 -50 hhcurveto
            return
          </CharString>
          <CharString index="431">
            -55 callsubr
            8 hlineto
            return
          </CharString>
          <CharString index="432">
            -95 callsubr
            335 hlineto
            return
          </CharString>
          <CharString index="433">
            54 -24 callsubr
            return
          </CharString>
          <CharString index="434">
            56 -24 callsubr
            return
          </CharString>
          <CharString index="435">
            -54 15 -49 hhcurveto
            -76 -35 -30 -44 return
          </CharString>
          <CharString index="436">
            -53 -65 -64 54 -54 return
          </CharString>
          <CharString index="437">
            7 2 8 2 7 11 43 23 33 4 23 rrcurveto
            return
          </CharString>
          <CharString index="438">
            -18 -18 -24 -25 -26 51 -54 25 357 callgsubr
            return
          </CharString>
          <CharString index="439">
            -60 278 callsubr
            return
          </CharString>
          <CharString index="440">
            hhcurveto
            36 callgsubr
            hvcurveto
            -12 return
          </CharString>
          <CharString index="441">
            -11 -16 -28 -21 -24 44 -60 21 12 8 10 15 return
          </CharString>
          <CharString index="442">
            -10 -15 -26 -19 -23 40 -55 20 11 7 9 14 return
          </CharString>
          <CharString index="443">
            -22 -26 7 -34 hhcurveto
            -127 -179 -72 -88 -56 return
          </CharString>
          <CharString index="444">
            vlineto
            -106 callsubr
            -62 hvcurveto
            endchar
          </CharString>
          <CharString index="445">
            6 353 callsubr
            return
          </CharString>
          <CharString index="446">
            -13 66 callgsubr
            return
          </CharString>
          <CharString index="447">
            -12 hvcurveto
            69 -35 return
          </CharString>
          <CharString index="448">
            -33 -95 vvcurveto
            -64 83 -51 69 57 28 49 58 return
          </CharString>
          <CharString index="449">
            hhcurveto
            -59 -28 -52 -49 -62 39 -75 65 57 56 return
          </CharString>
          <CharString index="450">
            hhcurveto
            -29 -12 62 55 73 15 77 25 66 hvcurveto
            return
          </CharString>
          <CharString index="451">
            11 5 14 vhcurveto
            30 -256 80 38 vvcurveto
            30 return
          </CharString>
          <CharString index="452">
            73 360 callgsubr
            return
          </CharString>
          <CharString index="453">
            128 25 40 8 21 vvcurveto
            15 -21 9 -38 return
          </CharString>
          <CharString index="454">
            rmoveto
            -56 -43 28 39 34 28 19 44 63 46 return
          </CharString>
          <CharString index="455" raw="1">
            84778776 771af725 0a0b 
          </CharString>
          <CharString index="456">
            30 53 56 28 -6 30 -11 return
          </CharString>
          <CharString index="457">
            hlineto
            -45 -55 -33 -67 -58 vvcurveto
            return
          </CharString>
          <CharString index="458">
            4 53 8 rrcurveto
            -8 -31 -4 return
          </CharString>
          <CharString index="459">
            rmoveto
            -25 -7 -18 -22 -30 -36 return
          </CharString>
          <CharString index="460">
            5 0 1 5 hvcurveto
            return
          </CharString>
          <CharString index="461">
            69 72 30 53 56 return
          </CharString>
          <CharString index="462">
            25 122 4 return
          </CharString>
          <CharString index="463">
            -7 0 -7 hhcurveto
            return
          </CharString>
          <CharString index="464">
            25 26 -18 19 -26 -25 -19 -19 -26 vhcurveto
            return
          </CharString>
          <CharString index="465">
            -40 16 54 hvcurveto
            8 3 5 10 vvcurveto
            15 return
          </CharString>
          <CharString index="466">
            573 rmoveto
            -4 -23 -4 -24 -4 -23 -41 return
          </CharString>
          <CharString index="467">
            -25 181 callsubr
            return
          </CharString>
          <CharString index="468">
            -6 -12 vhcurveto
            -108 -18 -97 -25 vvcurveto
            -18 return
          </CharString>
          <CharString index="469">
            rmoveto
            -5 -6 0 -5 -5 -5 0 -6 hhcurveto
            return
          </CharString>
        <CharString name=".notdef">
          212 180 hmoveto
          390 701 -390 hlineto
          54 -50 rmoveto
          282 -601 -282 hlineto
          endchar
        </CharString>
        <CharString name="A">
          52 253 318 -95 callgsubr
        </CharString>
        <CharString name="AE">
          252 375 359 rmoveto
          -67 -8 -68 -10 -51 -12 44 109 49 112 15 15 10 10 41 3 73 3 -3 -68 -20 -78 -23 -76 rrcurveto
          -24 -79 rmoveto
          -22 -74 -20 -66 -44 vvcurveto
          -44 44 -39 69 128 178 53 50 11 -3 11 -14 vhcurveto
          -25 -121 -44 -144 hhcurveto
          -15 -8 6 14 27 23 71 25 81 hvcurveto
          137 18 81 11 23 vvcurveto
          1 27 -45 2 -44 1 rrcurveto
          -25 -38 -2 -4 -45 hvcurveto
          20 72 17 72 52 vvcurveto
          7 -1 6 -2 6 vhcurveto
          6 hlineto
          189 6 40 10 4 22 rrcurveto
          26 6 -56 17 -222 hhcurveto
          -134 -92 -7 -55 -25 hvcurveto
          -25 -57 -43 -103 -39 -97 rrcurveto
          -54 -135 -61 -119 -24 vvcurveto
          -29 27 -25 18 22 42 107 128 52 vhcurveto
          29 2 59 15 96 13 rrcurveto
          endchar
        </CharString>
        <CharString name="Aacute">
          52 534 815 119 callsubr
          -167 -414 -95 callgsubr
        </CharString>
        <CharString name="Abreve">
          52 398 718 rmoveto
          70 80 62 41 14 -7 8 -15 hvcurveto
          -34 -17 -60 -65 -74 4 94 -28 hhcurveto
          -18 -24 -18 -35 -46 63 -60 65 hvcurveto
          -145 -400 -95 callgsubr
        </CharString>
        <CharString name="Acircumflex">
          52 247 705 70 callsubr
          6 -387 -95 callgsubr
        </CharString>
        <CharString name="Adieresis">
          52 481 709 15 callsubr
          -80 -391 -95 callgsubr
        </CharString>
        <CharString name="Agrave">
          52 354 735 rmoveto
          -12 callgsubr
          -22 -22 3 -34 16 -11 rrcurveto
          9 -498 -95 callgsubr
        </CharString>
        <CharString name="Amacron">
          52 251 183 callgsubr
          2 -399 -95 callgsubr
        </CharString>
        <CharString name="Aogonek">
          52 253 318 rmoveto
          30 78 34 84 36 80 13 -65 11 -69 9 -81 -44 -7 -46 -9 -43 -11 rrcurveto
          156 -260 rmoveto
          -48 -37 -62 -65 -56 -49 callgsubr
          13 10 8 11 4 10 10 20 4 39 1 52 1 32 -3 58 -6 66 rrcurveto
          49 14 33 12 13 vvcurveto
          23 -33 0 -22 -10 -11 -1 -1 -12 vhcurveto
          147 -16 -31 159 -44 hhcurveto
          -35 -42 -27 -32 -11 hvcurveto
          -20 -57 -50 -103 -39 -96 -7 -18 -8 -19 -8 -18 rrcurveto
          -51 -17 -35 -17 -13 vvcurveto
          -25 24 -15 25 vhcurveto
          -32 -72 -25 -56 -8 vvcurveto
          -27 32 -27 19 20 36 90 124 49 vhcurveto
          23 6 29 9 34 9 30 8 30 7 29 7 2 -33 3 -35 2 -38 4 -42 3 -37 7 -28 rrcurveto
          endchar
        </CharString>
        <CharString name="Aring">
          52 366 795 137 callsubr
          -133 -383 -95 callgsubr
        </CharString>
        <CharString name="Atilde">
          52 255 717 rmoveto
          7 callgsubr
          126 callsubr
          -2 -399 -95 callgsubr
        </CharString>
        <CharString name="B">
          47 153 88 rmoveto
          10 14 9 39 19 68 10 37 10 36 9 34 rrcurveto
          -10 11 15 -9 15 hhcurveto
          79 110 -26 -37 -69 -164 -69 -133 -8 hvcurveto
          183 481 rmoveto
          59 48 -22 -37 -68 -86 -26 -67 -23 hvcurveto
          -21 -8 -20 -8 -15 -8 rrcurveto
          19 74 12 56 21 vvcurveto
          11 -9 16 -11 13 vhcurveto
          5 28 30 4 33 hhcurveto
          -153 -16 rmoveto
          -2 -151 -92 -219 -41 vvcurveto
          1 -22 19 -22 17 -11 rrcurveto
          1 -65 -20 40 -20 hhcurveto
          -10 -9 -8 -17 -36 58 -54 83 195 198 105 112 51 -65 54 -114 11 hvcurveto
          114 38 61 59 71 vvcurveto
          86 -95 51 -175 -76 -63 -18 -22 -15 29 -43 25 vhcurveto
          endchar
        </CharString>
        <CharString name="C">
          34 529 568 39 callgsubr
        </CharString>
        <CharString name="CR">
          endchar
        </CharString>
        <CharString name="Cacute">
          34 549 889 -70 callsubr
          -20 -321 39 callgsubr
        </CharString>
        <CharString name="Ccaron">
          34 581 870 -63 callsubr
          -52 -302 39 callgsubr
        </CharString>
        <CharString name="Ccedilla">
          34 453 565 rmoveto
          32 12 -14 18 hhcurveto
          8 6 5 12 32 -44 54 -37 -178 -208 -287 -173 -69 64 -73 71 -26 hvcurveto
          -17 -46 -25 -36 11 -13 -8 callgsubr
          11 18 9 18 6 15 rrcurveto
          109 5 150 98 40 vvcurveto
          11 -6 11 -11 vhcurveto
          -31 -85 -76 -135 hhcurveto
          -52 -41 35 52 167 202 206 95 hvcurveto
          endchar
        </CharString>
        <CharString name="D">
          67 151 105 81 callsubr
        </CharString>
        <CharString name="Dcaron">
          67 341 704 37 callsubr
          -190 -599 81 callsubr
        </CharString>
        <CharString name="Dcroat">
          77 209 285 rmoveto
          97 11 28 3 18 13 -2 15 rlinecurve
          -2 24 -40 16 -54 -6 -24 -3 rcurveline
          23 81 12 50 30 113 callgsubr
          4 39 11 47 11 37 rrcurveto
          -123 112 rmoveto
          -37 -5 -24 -18 2 -19 2 -19 24 -15 40 5 42 5 rcurveline
          -21 -75 -18 -66 -32 125 callsubr
          -14 -8 -7 -14 -20 24 -28 37 -17 vhcurveto
          -4 -56 -21 -83 -23 -81 rrcurveto
          endchar
        </CharString>
        <CharString name="E">
          14 255 560 -83 callsubr
        </CharString>
        <CharString name="Eacute">
          14 551 815 119 callsubr
          -182 -172 -83 callsubr
        </CharString>
        <CharString name="Ecaron">
          14 384 704 37 callsubr
          -129 -144 -83 callsubr
        </CharString>
        <CharString name="Ecircumflex">
          14 264 705 70 callsubr
          -9 -145 -83 callsubr
        </CharString>
        <CharString name="Edieresis">
          14 498 709 15 callsubr
          -95 -149 -83 callsubr
        </CharString>
        <CharString name="Edotaccent">
          14 419 711 rmoveto
          12 14 14 8 26 -33 80 -24 -21 -24 -32 -23 -28 49 -45 27 hvcurveto
          -164 -151 -83 callsubr
        </CharString>
        <CharString name="Egrave">
          14 371 735 rmoveto
          -12 callgsubr
          -22 -22 3 -34 16 -11 rrcurveto
          -6 -256 -83 callsubr
        </CharString>
        <CharString name="Emacron">
          14 268 183 callgsubr
          -13 -157 -83 callsubr
        </CharString>
        <CharString name="Eogonek">
          14 255 560 rmoveto
          27 4 35 7 42 4 rrcurveto
          124 13 92 -3 34 vvcurveto
          25 -83 5 -109 -140 -53 -11 -23 -13 vhcurveto
          -4 -6 -2 -8 -11 -162 -112 -227 -105 vvcurveto
          -44 53 -39 59 46 51 7 11 49 vhcurveto
          -20 -27 -14 -29 -26 -49 callgsubr
          15 12 9 12 3 12 rrcurveto
          16 11 10 11 12 vvcurveto
          11 -3 11 -14 vhcurveto
          -25 -121 -44 -145 hhcurveto
          -14 -9 6 14 29 25 74 27 84 hvcurveto
          140 117 17 48 11 -16 5 -22 -32 -53 -7 -2 -91 hvcurveto
          -8 356 callsubr
          20 68 15 67 50 vvcurveto
          endchar
        </CharString>
        <CharString name="Eth">
          77 210 287 rmoveto
          48 8 76 15 -1 9 rrcurveto
          16 9 -14 14 -28 hhcurveto
          5 -1 -35 1 -34 hhcurveto
          20 70 10 45 28 113 callgsubr
          4 39 11 47 11 37 rrcurveto
          -44 426 rmoveto
          -14 -8 -7 -14 -20 24 -28 37 -17 hvcurveto
          -4 -52 -18 -75 -21 -75 -42 -9 -62 -15 1 -9 -15 -14 3 -17 24 -3 rrcurveto
          -4 37 1 35 2 vhcurveto
          -24 -85 -22 -76 -36 125 callsubr
          vhcurveto
          endchar
        </CharString>
        <CharString name="Euro">
          6 204 206 rmoveto
          196 27 92 14 24 vvcurveto
          17 1 -35 6 -42 hhcurveto
          -41 -96 -7 -11 -88 hvcurveto
          8 28 12 28 16 28 26 2 rcurveline
          167 12 101 8 1 22 rrcurveto
          16 -20 10 -36 3 vhcurveto
          -23 3 -81 0 -84 -3 rrcurveto
          79 65 85 59 59 29 15 -27 15 hhcurveto
          10 11 14 17 26 -42 53 -37 -117 -121 -105 -123 -75 hvcurveto
          -66 -6 -52 -10 -14 vvcurveto
          -15 21 -32 18 -1 vhcurveto
          13 12 0 2 14 hvcurveto
          -12 -29 -10 -29 -6 -28 rrcurveto
          -53 -9 -38 -10 -9 vvcurveto
          -16 22 -31 18 14 14 0 2 16 vhcurveto
          -96 4 73 -79 117 hhcurveto
          110 150 88 41 11 -7 11 -11 hvcurveto
          -31 -83 -70 -125 hhcurveto
          -73 -37 44 62 -5 hvcurveto
          endchar
        </CharString>
        <CharString name="F">
          -45 531 615 rmoveto
          25 -82 9 -98 -154 -48 -14 -27 -6 vhcurveto
          -2 -5 -1 -6 -7 vvcurveto
          -3 -126 -98 -299 -10 -81 rrcurveto
          -22 -2 36 -46 19 hhcurveto
          13 13 56 82 22 hvcurveto
          9 34 12 48 13 52 rrcurveto
          127 130 27 37 12 -16 5 -22 -32 -52 -8 -1 -84 hvcurveto
          -13 -11 0 -9 hhcurveto
          19 82 16 79 36 2 0 2 2 vvcurveto
          28 2 37 5 45 5 rrcurveto
          115 11 89 -1 30 vvcurveto
          endchar
        </CharString>
        <CharString name="G">
          24 421 324 rmoveto
          253 callgsubr
          hvcurveto
          193 callsubr
          54 callgsubr
          vhcurveto
          endchar
        </CharString>
        <CharString name="Gbreve">
          24 427 565 rmoveto
          54 callgsubr
          253 callgsubr
          vhcurveto
          193 callsubr
          166 278 87 callgsubr
        </CharString>
        <CharString name="H">
          80 185 273 rmoveto
          29 6 33 7 39 7 53 9 49 7 41 5 rrcurveto
          -29 -109 -28 -101 -28 vvcurveto
          -30 33 -30 18 15 25 117 114 33 vhcurveto
          8 27 7 27 7 26 rrcurveto
          36 7 20 8 14 vvcurveto
          15 -16 7 -25 4 vhcurveto
          25 93 16 72 23 289 callgsubr
          -4 -9 -21 -46 -22 -95 -26 -98 vhcurveto
          -61 -4 -97 -12 -82 -15 rrcurveto
          28 107 19 85 25 vvcurveto
          39 -39 44 -19 317 callsubr
          -54 -31 -122 -31 -116 vhcurveto
          -30 -9 -19 -9 -8 vvcurveto
          -19 14 -17 17 -6 vhcurveto
          -23 -86 -19 -73 -26 vvcurveto
          -23 35 -39 17 15 25 117 114 33 vhcurveto
          endchar
        </CharString>
        <CharString name="I">
          -36 callgsubr
          endchar
        </CharString>
        <CharString name="Iacute">
          -36 callgsubr
          184 266 -70 callsubr
          endchar
        </CharString>
        <CharString name="Icircumflex">
          -36 callgsubr
          157 189 -49 callsubr
          endchar
        </CharString>
        <CharString name="Idieresis">
          -36 callgsubr
          57 111 -25 callsubr
          endchar
        </CharString>
        <CharString name="Idotaccent">
          -36 callgsubr
          25 161 138 callsubr
        </CharString>
        <CharString name="Igrave">
          -36 callgsubr
          -54 260 rmoveto
          -22 -22 3 -34 16 -11 110 -81 rcurveline
          -12 callgsubr
          rrcurveto
          endchar
        </CharString>
        <CharString name="Imacron">
          -36 callgsubr
          85 116 rmoveto
          219 callgsubr
          25 1 36 9 74 12 rrcurveto
          endchar
        </CharString>
        <CharString name="Iogonek">
          -257 90 -3 rmoveto
          15 12 9 13 3 11 17 38 21 100 24 94 rrcurveto
          39 156 25 116 33 vvcurveto
          39 -41 44 -20 -17 -3 -9 -21 vhcurveto
          -102 -109 -392 -56 vvcurveto
          -5 2 -5 2 -6 vhcurveto
          -48 -37 -61 -64 -56 -49 callgsubr
          endchar
        </CharString>
        <CharString name="J">
          -86 29 179 rmoveto
          -13 -7 -8 -19 -42 95 -94 84 103 8 81 329 108 hvcurveto
          24 71 46 116 27 vvcurveto
          24 -25 8 -20 -53 -233 -48 -47 -14 14 -10 23 31 88 29 13 83 vhcurveto
          -24 -41 -29 -93 -16 -56 rrcurveto
          -244 -70 -30 -72 -36 -75 -52 90 -24 hhcurveto
          endchar
        </CharString>
        <CharString name="K">
          9 546 614 70 callgsubr
        </CharString>
        <CharString name="L">
          -42 262 587 0 callsubr
          endchar
        </CharString>
        <CharString name="Lacute">
          -42 387 889 -70 callsubr
          -125 -302 0 callsubr
          endchar
        </CharString>
        <CharString name="Lcaron">
          -42 385 563 rmoveto
          -11 -46 -77 -28 -28 vvcurveto
          -12 10 -4 11 42 96 231 callgsubr
          -39 -20 -26 -20 -21 -27 37 6 14 -28 vhcurveto
          -123 24 0 callsubr
          endchar
        </CharString>
        <CharString name="Lslash">
          -42 224 349 rmoveto
          114 41 33 14 -4 19 -4 14 -14 3 -47 -10 -26 -6 -25 -6 -25 -6 rrcurveto
          21 76 15 64 35 vvcurveto
          36 -40 35 -20 317 callsubr
          -52 -25 -93 -28 -96 vhcurveto
          -68 -20 -47 -18 3 -16 4 -16 33 -23 26 7 7 1 8 3 10 3 rrcurveto
          -27 -92 -24 -83 -37 vvcurveto
          -44 54 -39 59 128 165 55 50 11 -3 6 -14 vhcurveto
          -25 -108 -41 -144 hhcurveto
          -15 -8 6 14 18 10 34 30 100 hvcurveto
          8 26 8 25 8 25 rrcurveto
          endchar
        </CharString>
        <CharString name="M">
          195 264 585 rmoveto
          29 -3 -55 39 -15 hhcurveto
          317 callsubr
          hvcurveto
          -106 -122 -374 -65 vvcurveto
          -23 31 -39 16 17 28 117 114 34 vhcurveto
          19 68 16 60 13 47 32 -75 33 -75 20 -31 rrcurveto
          -20 14 27 -14 17 hhcurveto
          42 53 78 211 175 hvcurveto
          -51 -128 -48 -224 -58 vvcurveto
          -38 22 -32 18 23 19 128 139 39 vhcurveto
          41 144 37 115 47 vvcurveto
          25 -32 30 -22 -40 -111 -160 -185 -156 vhcurveto
          -54 113 -51 130 -5 43 rrcurveto
          endchar
        </CharString>
        <CharString name="N">
          99 610 588 83 callgsubr
        </CharString>
        <CharString name="NULL">
          endchar
        </CharString>
        <CharString name="Nacute">
          99 488 889 -70 callsubr
          122 -301 83 callgsubr
        </CharString>
        <CharString name="Ncaron">
          99 520 870 -63 callsubr
          90 -282 83 callgsubr
        </CharString>
        <CharString name="Ntilde">
          99 610 588 -50 callgsubr
          -266 272 rmoveto
          126 callsubr
          7 callgsubr
          endchar
        </CharString>
        <CharString name="O">
          116 callsubr
          endchar
        </CharString>
        <CharString name="OE">
          490 205 92 rmoveto
          -38 -32 40 71 174 158 195 72 43 40 -52 -105 -124 -147 -199 -96 hvcurveto
          280 490 rmoveto
          43 -29 -43 29 -52 hhcurveto
          -131 -179 -226 -235 -75 64 -102 84 62 60 31 48 52 hvcurveto
          -43 1 52 -39 59 hhcurveto
          128 179 53 50 11 -4 11 -13 hvcurveto
          -25 -122 -44 -144 hhcurveto
          -14 -9 6 14 33 24 72 25 82 hvcurveto
          1 hlineto
          141 118 17 48 11 -16 5 -22 -32 -53 -7 -2 -91 hvcurveto
          -10 -8 0 -7 hhcurveto
          18 66 14 67 1 54 28 4 36 7 45 4 rrcurveto
          124 13 91 -3 34 vvcurveto
          25 -82 5 -109 -142 -52 -12 -23 -12 vhcurveto
          -4 -5 -2 -8 -11 vvcurveto
          endchar
        </CharString>
        <CharString name="Oacute">
          25 509 889 -70 callsubr
          -458 -696 -62 callsubr
          endchar
        </CharString>
        <CharString name="Ocircumflex">
          25 482 812 -49 callsubr
          -431 -619 -62 callsubr
          endchar
        </CharString>
        <CharString name="Odieresis">
          25 382 734 -25 callsubr
          -478 -541 -62 callsubr
          endchar
        </CharString>
        <CharString name="Ograve">
          116 callsubr
          -94 311 rmoveto
          -22 -22 3 -34 16 -11 110 -81 rcurveline
          -12 callgsubr
          rrcurveto
          endchar
        </CharString>
        <CharString name="Ohungarumlaut">
          25 426 917 -18 callgsubr
          -531 -714 -62 callsubr
          endchar
        </CharString>
        <CharString name="Omacron">
          25 410 739 rmoveto
          219 callgsubr
          25 1 36 9 74 12 rrcurveto
          -359 -546 -62 callsubr
          endchar
        </CharString>
        <CharString name="Oslash">
          36 466 425 rmoveto
          -129 -164 -210 -98 -18 -17 9 17 -14 vhcurveto
          57 71 92 115 158 180 rrcurveto
          3 -16 1 -17 -20 vvcurveto
          -336 -228 rmoveto
          175 170 209 72 24 21 -10 -20 16 vhcurveto
          -46 -53 -55 -68 -59 -74 -49 -61 -51 -61 -42 -53 rrcurveto
          -1 5 0 5 6 vvcurveto
          407 366 rmoveto
          33 37 10 22 14 vvcurveto
          13 -9 10 -14 -17 -26 -20 -35 -33 vhcurveto
          31 -31 -39 19 -45 hhcurveto
          -132 -183 -226 -235 -27 9 -30 15 -27 hvcurveto
          -24 -32 -14 -23 -10 vvcurveto
          -16 10 -13 16 10 13 12 32 26 vhcurveto
          -26 26 32 -17 34 hhcurveto
          179 167 241 170 42 -10 41 -18 36 hvcurveto
          endchar
        </CharString>
        <CharString name="Otilde">
          116 callsubr
          288 vmoveto
          126 callsubr
          7 callgsubr
          endchar
        </CharString>
        <CharString name="P">
          -39 182 311 rmoveto
          33 117 12 65 36 vvcurveto
          9 -2 9 -4 9 vhcurveto
          10 25 31 12 35 hhcurveto
          62 46 -32 -56 -70 -94 -71 -144 -38 hvcurveto
          320 190 rmoveto
          100 -80 60 -117 -71 -109 -32 -32 -10 10 -19 12 -13 vhcurveto
          -10 -157 -99 -262 -62 vvcurveto
          -23 31 -34 18 15 26 107 111 32 vhcurveto
          196 38 146 92 136 vvcurveto
          endchar
        </CharString>
        <CharString name="Q">
          80 222 92 rmoveto
          -47 -40 40 71 98 46 112 58 75 hvcurveto
          -3 -16 -1 -18 -19 vvcurveto
          -79 28 -125 37 -112 vhcurveto
          -17 -26 -27 -10 -25 hhcurveto
          245 329 rmoveto
          -86 -46 -97 -60 -66 vhcurveto
          -27 87 -21 104 114 vvcurveto
          38 5 29 11 20 vhcurveto
          5 13 11 3 12 hhcurveto
          43 59 -60 -91 hvcurveto
          87 6 rmoveto
          114 -90 113 -103 -142 -168 -226 -235 -86 73 -91 92 39 37 10 18 35 vhcurveto
          -97 37 41 -73 29 hhcurveto
          13 11 6 16 28 -34 67 -34 94 hvcurveto
          98 83 66 141 118 vvcurveto
          endchar
        </CharString>
        <CharString name="R">
          -15 221 557 rmoveto
          162 callgsubr
          211 callgsubr
          -50 -287 -15 callsubr
          endchar
        </CharString>
        <CharString name="Racute">
          -15 188 332 rmoveto
          211 callgsubr
          162 callgsubr
          -17 -62 -15 callsubr
          182 534 15 callgsubr
        </CharString>
        <CharString name="Rcaron">
          -15 188 332 rmoveto
          211 callgsubr
          162 callgsubr
          -17 -62 -15 callsubr
          323 623 86 callgsubr
        </CharString>
        <CharString name="S">
          -48 206 16 -20 callgsubr
          endchar
        </CharString>
        <CharString name="Sacute">
          -48 497 889 -70 callsubr
          -291 -873 -20 callgsubr
          endchar
        </CharString>
        <CharString name="Scaron">
          -48 529 870 -63 callsubr
          -323 -854 -20 callgsubr
          endchar
        </CharString>
        <CharString name="T">
          -79 334 649 21 callsubr
        </CharString>
        <CharString name="Tcaron">
          -79 313 704 37 callsubr
          21 -55 21 callsubr
        </CharString>
        <CharString name="Thorn">
          -38 170 240 rmoveto
          17 61 15 63 12 54 rrcurveto
          12 25 24 6 21 hhcurveto
          47 46 -30 -46 -69 -112 -59 -95 8 hvcurveto
          120 276 rmoveto
          -17 -20 -3 -6 -21 hvcurveto
          5 30 3 23 13 vvcurveto
          48 -43 33 -18 -18 -3 -9 -21 vhcurveto
          -180 -106 -307 -65 vvcurveto
          -23 24 -34 18 16 19 69 88 23 vhcurveto
          148 -11 152 83 118 vvcurveto
          77 -88 77 -74 vhcurveto
          endchar
        </CharString>
        <CharString name="U">
          20 callsubr
          endchar
        </CharString>
        <CharString name="Uacute">
          5 446 889 -70 callsubr
          -228 -314 -66 callgsubr
          endchar
        </CharString>
        <CharString name="Ucircumflex">
          5 419 812 -49 callsubr
          -201 -237 -66 callgsubr
          endchar
        </CharString>
        <CharString name="Udieresis">
          5 319 734 -25 callsubr
          -248 -159 -66 callgsubr
          endchar
        </CharString>
        <CharString name="Ugrave">
          20 callsubr
          -10 308 rmoveto
          -22 -22 3 -34 16 -11 110 -81 rcurveline
          -12 callgsubr
          rrcurveto
          endchar
        </CharString>
        <CharString name="Uhungarumlaut">
          20 callsubr
          145 342 -18 callgsubr
          endchar
        </CharString>
        <CharString name="Umacron">
          20 callsubr
          129 164 rmoveto
          219 callgsubr
          25 1 36 9 74 12 rrcurveto
          endchar
        </CharString>
        <CharString name="Uogonek">
          5 267 19 rmoveto
          9 7 7 8 5 7 124 72 97 215 -6 232 rrcurveto
          52 -1 -59 42 -21 hhcurveto
          -15 -5 -8 -14 hvcurveto
          -28 8 -8 -87 vvcurveto
          -216 -124 -193 -80 -42 -23 45 69 vhcurveto
          97 77 184 80 vvcurveto
          39 -45 40 -20 -17 -4 -10 -20 vhcurveto
          -118 -79 -169 -144 vvcurveto
          -76 49 -81 68 -18 vhcurveto
          -25 -30 -20 -34 -32 -49 callgsubr
          endchar
        </CharString>
        <CharString name="Uring">
          5 368 893 138 callgsubr
          -143 -264 -66 callgsubr
          endchar
        </CharString>
        <CharString name="V">
          -54 498 653 rmoveto
          -43 -172 -326 -164 -64 hvcurveto
          -48 173 -15 195 -17 53 rrcurveto
          41 -15 -31 28 -27 hhcurveto
          -11 -7 -10 -20 -63 77 -406 34 -81 hvcurveto
          -29 12 25 -31 18 hhcurveto
          38 36 115 197 100 hvcurveto
          90 176 65 76 43 vvcurveto
          16 -27 17 -18 vhcurveto
          endchar
        </CharString>
        <CharString name="W">
          235 471 654 rmoveto
          -29 -18 -9 -19 -23 32 -33 39 -2 hvcurveto
          77 -2 54 -108 -94 vvcurveto
          -130 -61 -134 -72 vhcurveto
          -100 18 257 -58 hhcurveto
          -41 -101 -103 -109 -73 hvcurveto
          17 172 40 182 10 81 rrcurveto
          35 2 -53 38 -26 hhcurveto
          -14 -9 -10 -27 hvcurveto
          -2 -191 -38 -178 -9 -155 -2 -35 32 -38 18 -3 26 -4 32 35 85 104 27 33 25 31 29 36 rrcurveto
          -134 19 52 -101 93 hhcurveto
          127 99 162 168 159 -87 149 -160 hvcurveto
          endchar
        </CharString>
        <CharString name="X">
          48 289 387 rmoveto
          -52 82 -39 81 58 vvcurveto
          26 -48 20 -34 -14 -4 -12 -14 -64 63 -127 76 -122 vhcurveto
          -80 -111 -68 -88 -31 -31 rrcurveto
          -15 -16 -8 -4 -12 vvcurveto
          -13 34 -24 20 44 52 78 143 103 vhcurveto
          -122 83 86 -100 33 hhcurveto
          14 13 11 19 29 -91 112 -85 123 hvcurveto
          101 137 59 82 31 29 rrcurveto
          24 22 23 3 19 vvcurveto
          17 -42 36 -17 -37 -40 -48 -197 -139 vhcurveto
          endchar
        </CharString>
        <CharString name="Y">
          19 callsubr
          endchar
        </CharString>
        <CharString name="Yacute">
          19 callsubr
          134 541 -70 callsubr
          endchar
        </CharString>
        <CharString name="Ydieresis">
          19 callsubr
          7 386 -25 callsubr
          endchar
        </CharString>
        <CharString name="Z">
          3 437 621 -37 callsubr
          endchar
        </CharString>
        <CharString name="Zacute">
          3 467 889 -70 callsubr
          -30 -268 -37 callsubr
          endchar
        </CharString>
        <CharString name="Zcaron">
          3 499 870 -63 callsubr
          -62 -249 -37 callsubr
          endchar
        </CharString>
        <CharString name="Zdotaccent">
          3 437 621 -37 callsubr
          -129 163 138 callsubr
        </CharString>
        <CharString name="a">
          -20 409 333 69 callsubr
        </CharString>
        <CharString name="aacute">
          -20 409 333 -73 callgsubr
          51 122 15 callgsubr
        </CharString>
        <CharString name="abreve">
          -20 409 333 -73 callgsubr
          201 184 87 callgsubr
        </CharString>
        <CharString name="acircumflex">
          -20 409 333 -73 callgsubr
          133 153 -49 callsubr
          endchar
        </CharString>
        <CharString name="acute">
          133 835 -70 callsubr
          endchar
        </CharString>
        <CharString name="adieresis">
          -20 355 559 rmoveto
          11 14 14 11 27 -35 70 -22 -20 -22 -27 -22 -27 45 -46 29 hvcurveto
          54 -226 -73 callgsubr
          124 172 rmoveto
          -20 -23 -27 -22 -27 45 -46 30 318 callsubr
          27 -34 70 -22 hvcurveto
          endchar
        </CharString>
        <CharString name="ae">
          228 336 509 rmoveto
          -140 -149 -251 -122 -61 58 -59 56 65 71 55 74 53 hvcurveto
          -78 13 69 -51 87 hhcurveto
          78 99 54 33 12 -7 7 -17 hvcurveto
          -28 -43 -36 -96 hhcurveto
          -54 -33 28 47 25 5 29 9 28 hvcurveto
          -10 40 42 -7 46 hhcurveto
          101 91 48 67 73 -73 95 -81 -56 -52 -37 -48 -42 hvcurveto
          45 -19 -42 40 -51 hhcurveto
          119 -212 rmoveto
          74 36 58 64 55 hhcurveto
          33 42 -50 -36 -39 -54 -23 -84 -25 -31 3 7 -30 hvcurveto
          -111 134 rmoveto
          34 13 -32 -55 1 hvcurveto
          -11 -19 -9 -20 -6 -19 -58 -122 -89 -73 -63 2 rrcurveto
          -20 1 -12 15 26 vvcurveto
          86 127 210 93 vhcurveto
          endchar
        </CharString>
        <CharString name="agrave">
          -20 376 585 rmoveto
          -12 callgsubr
          -22 -22 3 -34 16 -11 rrcurveto
          143 -333 69 callsubr
        </CharString>
        <CharString name="amacron">
          -20 409 333 -73 callgsubr
          214 123 rmoveto
          -28 callsubr
          155 callgsubr
          rrcurveto
          endchar
        </CharString>
        <CharString name="ampersand">
          101 100 109 rmoveto
          28 67 54 78 65 vhcurveto
          18 -32 21 -32 23 -28 rrcurveto
          -45 -72 -67 -35 -41 hhcurveto
          -16 -11 10 15 hvcurveto
          161 368 rmoveto
          71 3 35 52 52 hhcurveto
          36 16 -26 -30 hvcurveto
          -2 -48 -57 -60 -69 -60 -10 35 -5 35 1 31 rrcurveto
          297 -389 rmoveto
          -49 -48 23 36 -43 hvcurveto
          118 80 102 89 24 vvcurveto
          18 -6 10 -22 -18 -111 -88 -78 -116 vhcurveto
          -25 31 -21 35 -17 36 92 79 90 90 2 77 rrcurveto
          47 1 -23 74 -95 hhcurveto
          -113 -75 -86 -101 -2 hvcurveto
          -1 -49 12 -56 22 -56 rrcurveto
          -97 -79 -99 -76 -48 vvcurveto
          -52 57 -58 50 56 90 43 56 90 vhcurveto
          -53 58 65 -35 66 hhcurveto
          65 28 18 27 hvcurveto
          16 1 -20 6 -64 hhcurveto
          endchar
        </CharString>
        <CharString name="aogonek">
          -20 409 333 rmoveto
          -9 -3 -5 -7 -3 -9 -46 -139 -112 -84 -67 2 rrcurveto
          -25 1 -18 15 26 vvcurveto
          86 144 210 88 34 19 -39 -53 vhcurveto
          57 -54 rmoveto
          8 -5 9 -6 8 vhcurveto
          12 20 12 28 22 vvcurveto
          340 callgsubr
          -134 -166 -251 -122 -57 65 -63 60 60 72 51 65 54 vhcurveto
          1 -27 3 -25 4 -19 -2 -1 -2 -2 -2 -1 rrcurveto
          -48 -37 -62 -65 -56 -49 callgsubr
          20 16 9 18 13 vvcurveto
          4 23 0 33 6 35 rrcurveto
          14 77 21 44 30 vvcurveto
          endchar
        </CharString>
        <CharString name="approxequal">
          51 212 326 64 callgsubr
          55 226 64 callgsubr
          endchar
        </CharString>
        <CharString name="aring">
          -20 409 333 -73 callgsubr
          101 136 rmoveto
          -23 -1 -17 -20 -16 hhcurveto
          -17 -13 20 23 4 hvcurveto
          314 callgsubr
          17 12 -20 -24 -3 hvcurveto
          -19 98 rmoveto
          -48 -42 -44 -52 -6 hvcurveto
          -52 -6 34 -44 47 hhcurveto
          47 43 44 52 6 hvcurveto
          52 6 -34 44 -47 hhcurveto
          endchar
        </CharString>
        <CharString name="asciicircum">
          -116 328 684 rmoveto
          -35 85 -3 31 -16 19 rrcurveto
          12 -11 -33 10 -17 hhcurveto
          -34 -76 -118 -73 -24 hvcurveto
          -16 -43 8 -27 12 -11 11 -8 8 11 20 22 24 22 27 78 54 58 rrcurveto
          -69 32 62 -128 34 hhcurveto
          11 5 5 13 13 -18 40 -25 58 hvcurveto
          endchar
        </CharString>
        <CharString name="asciitilde">
          57 240 429 64 callgsubr
          endchar
        </CharString>
        <CharString name="asterisk">
          -183 196 564 rmoveto
          -14 20 -20 15 14 8 65 31 5 vhcurveto
          -25 16 33 -44 24 hhcurveto
          10 14 8 10 19 -65 39 -16 20 hvcurveto
          74 -14 58 17 23 vvcurveto
          9 -18 4 -24 -19 -44 -5 -10 -30 vhcurveto
          36 16 65 37 9 vvcurveto
          15 -23 17 -12 -12 -40 -50 -26 -25 vhcurveto
          12 25 12 22 10 vvcurveto
          16 -34 23 -15 -9 -3 -3 -11 -13 4 -33 3 -35 vhcurveto
          -16 16 -18 28 8 vvcurveto
          15 -44 11 -24 -11 0 -5 -9 -12 48 -50 41 -23 vhcurveto
          -40 -50 7 -9 hhcurveto
          -11 -5 -5 -8 -15 16 -24 23 16 42 13 6 20 hvcurveto
          -30 -24 -61 -35 -11 vvcurveto
          -10 15 -17 15 11 51 58 22 15 vhcurveto
          -3 -12 -25 -45 -11 vvcurveto
          endchar
        </CharString>
        <CharString name="at">
          785 571 108 rmoveto
          -32 -15 13 36 69 114 200 97 45 15 -45 -45 10 hvcurveto
          -10 -3 -4 -9 -3 -10 rrcurveto
          -95 -32 -110 -111 -75 hhcurveto
          454 506 rmoveto
          65 -57 -72 28 -95 hhcurveto
          -337 -255 -340 -256 -159 148 -129 174 115 165 58 62 48 -87 -88 -194 -145 -82 82 128 227 231 283 269 155 60 -106 -135 -146 -107 -113 -59 -28 -11 63 83 46 hvcurveto
          1 3 0 4 -1 4 rrcurveto
          9 18 6 23 26 vvcurveto
          63 -68 95 -71 -152 -139 -243 -108 -61 64 -61 63 66 60 47 54 49 vhcurveto
          -49 5 29 -41 52 hhcurveto
          122 151 171 168 97 -25 73 -55 62 hvcurveto
          endchar
        </CharString>
        <CharString name="atilde">
          -20 409 333 -73 callgsubr
          204 188 rmoveto
          -35 -6 -62 -5 -37 hvcurveto
          6 -35 -8 74 -67 hhcurveto
          126 callsubr
          33 7 57 23 49 hvcurveto
          -55 35 36 -31 38 hhcurveto
          53 46 61 45 1 hvcurveto
          19 -9 11 -15 vhcurveto
          endchar
        </CharString>
        <CharString name="b">
          -19 252 87 rmoveto
          -30 -39 20 46 -32 hvcurveto
          142 64 109 136 82 hhcurveto
          29 10 -26 -40 -135 -106 -143 -87 hvcurveto
          161 425 rmoveto
          -71 -78 -69 -96 -70 hvcurveto
          42 174 12 139 46 289 callgsubr
          -3 -9 -21 vhcurveto
          -305 -126 -317 -65 vvcurveto
          -23 31 -33 17 8 12 28 42 12 vhcurveto
          -45 41 46 -27 53 hhcurveto
          133 127 215 135 73 -46 75 -65 hvcurveto
          endchar
        </CharString>
        <CharString name="backslash">
          62 475 -76 rmoveto
          15 29 35 17 46 -123 290 -196 448 hvcurveto
          20 -8 -1 9 -13 hhcurveto
          -14 -39 -49 -27 -53 104 -182 78 -189 hvcurveto
          -286 120 33 -79 15 hhcurveto
          endchar
        </CharString>
        <CharString name="bar">
          -181 64 -74 rmoveto
          -22 33 -36 18 19 73 360 121 29 vhcurveto
          37 155 47 203 33 vvcurveto
          39 -41 44 339 callgsubr
          -102 -174 -709 -56 vvcurveto
          endchar
        </CharString>
        <CharString name="braceleft">
          -122 183 340 rmoveto
          72 41 51 50 1 hvcurveto
          1 59 -48 54 3 105 rrcurveto
          85 1 57 38 57 hhcurveto
          51 17 -26 -39 -1 hvcurveto
          -30 -2 -26 15 20 25 40 34 vhcurveto
          66 1 -55 59 -80 hhcurveto
          -95 -85 -69 -107 -2 hvcurveto
          -2 -102 50 -74 -1 -47 rrcurveto
          -35 -1 -22 -20 -37 -30 -38 35 -17 hhcurveto
          -7 -5 -13 -9 -17 11 -17 16 -13 hvcurveto
          7 -10 10 -13 -1 -16 -2 -106 -63 -39 -2 -116 rrcurveto
          -85 -2 71 -80 96 hhcurveto
          47 44 22 26 19 -14 6 -41 -80 -39 28 64 1 hvcurveto
          2 113 50 40 2 75 rrcurveto
          15 -1 13 -4 12 vhcurveto
          endchar
        </CharString>
        <CharString name="braceright">
          -10 404 366 rmoveto
          -34 4 -36 19 37 68 181 91 128 vvcurveto
          71 -88 76 -80 -78 -91 -60 -45 -14 28 -32 15 vhcurveto
          26 23 82 69 hhcurveto
          51 41 -35 -51 hvcurveto
          -99 -174 -91 -92 vvcurveto
          -46 32 -38 41 -19 vhcurveto
          -97 -76 59 -248 -105 -86 10 47 -38 hhcurveto
          -11 -5 -10 -14 -39 65 -49 75 198 -102 345 57 100 hvcurveto
          23 7 17 15 19 vvcurveto
          14 -26 -4 -24 3 vhcurveto
          endchar
        </CharString>
        <CharString name="bracketleft">
          -86 450 799 rmoveto
          -77 3 -97 -4 -5 -36 rrcurveto
          -1 -4 -1 -4 -5 -132 -193 -515 -85 vvcurveto
          -46 54 -34 59 51 115 37 37 10 -4 7 -14 vhcurveto
          -25 -74 -13 -50 hhcurveto
          -15 -8 6 14 20 15 50 50 159 hvcurveto
          49 153 71 231 60 vvcurveto
          4 0 3 -1 4 vhcurveto
          10 2 14 3 21 3 104 14 45 -3 1 29 1 23 -48 8 -47 1 rrcurveto
          endchar
        </CharString>
        <CharString name="bracketright">
          -97 400 711 rmoveto
          -1 33 -43 12 -91 -4 rrcurveto
          -83 -4 -55 -18 -30 vvcurveto
          -32 76 10 70 -1 vhcurveto
          15 12 -1 -1 11 hvcurveto
          -1 -3 -1 -4 -4 vvcurveto
          -109 -118 -485 -11 -43 vhcurveto
          -16 -3 -10 -7 -17 -50 -51 13 -34 hhcurveto
          -14 -9 -5 -13 -37 100 -36 65 69 29 22 54 13 hvcurveto
          31 129 101 440 134 vvcurveto
          3 vlineto
          endchar
        </CharString>
        <CharString name="breve">
          174 693 87 callgsubr
        </CharString>
        <CharString name="brokenbar">
          -179 118 231 rmoveto
          -101 -53 -148 -56 vvcurveto
          -22 33 -36 17 25 59 271 39 39 -41 44 -20 -17 -3 -9 -21 vhcurveto
          122 562 rmoveto
          -102 -53 -148 -55 vvcurveto
          -22 33 -36 17 25 59 270 40 39 -41 44 -20 -17 -3 -9 -21 vhcurveto
          endchar
        </CharString>
        <CharString name="bullet">
          -301 53 345 rmoveto
          -38 66 -68 41 16 20 20 11 36 -49 113 -31 -29 -34 -43 -31 vhcurveto
          endchar
        </CharString>
        <CharString name="c">
          -83 328 509 rmoveto
          -130 -148 -209 -137 -80 82 -67 77 38 callgsubr
          hvcurveto
          endchar
        </CharString>
        <CharString name="cacute">
          -83 423 739 -70 callsubr
          -95 -230 rmoveto
          -130 -148 -209 -137 -80 82 -67 77 38 callgsubr
          hvcurveto
          endchar
        </CharString>
        <CharString name="caron">
          165 720 86 callgsubr
        </CharString>
        <CharString name="ccaron">
          -83 455 720 -63 callsubr
          -127 -211 rmoveto
          -130 -148 -209 -137 -80 82 -67 77 38 callgsubr
          hvcurveto
          endchar
        </CharString>
        <CharString name="ccedilla">
          -83 209 16 rmoveto
          38 callgsubr
          -130 -148 -209 -137 -57 42 -51 52 -24 hvcurveto
          -17 -48 -28 -38 12 -14 -8 callgsubr
          11 18 9 18 6 15 rrcurveto
          endchar
        </CharString>
        <CharString name="cedilla">
          108 -94 rmoveto
          -1 27 -40 21 -35 6 -6 1 -8 1 -8 -1 rrcurveto
          20 33 13 32 14 vvcurveto
          17 -13 7 -15 -13 -14 -4 -17 -5 vhcurveto
          -17 -55 -35 -46 13 -15 25 -20 43 7 13 -21 -33 -43 -111 11 1 -28 rrcurveto
          -17 22 -6 35 1 vhcurveto
          107 6 63 46 -1 43 rrcurveto
          endchar
        </CharString>
        <CharString name="cent">
          -62 149 173 rmoveto
          75 73 123 72 49 vhcurveto
          -30 -102 -30 -122 -21 -93 rrcurveto
          -41 4 -23 28 38 vvcurveto
          236 341 rmoveto
          8 29 7 16 -1 16 rrcurveto
          18 -1 -6 19 -18 hhcurveto
          -12 -18 -38 -58 -20 hvcurveto
          -126 -23 -133 -192 -129 vvcurveto
          -69 64 -61 68 -14 vhcurveto
          -8 -37 -5 -26 -7 vvcurveto
          -12 15 -18 11 9 15 40 59 17 vhcurveto
          76 11 95 54 31 vvcurveto
          13 -5 6 -13 -28 -26 -28 -9 -76 vhcurveto
          28 103 32 129 29 102 rrcurveto
          -8 30 21 -38 24 hhcurveto
          9 7 7 11 29 -28 50 -42 20 hvcurveto
          endchar
        </CharString>
        <CharString name="circumflex">
          106 153 callsubr
          endchar
        </CharString>
        <CharString name="colon">
          -292 38 95 282 callgsubr
          80 349 rmoveto
          -33 53 -69 31 15 11 14 13 33 -35 107 -33 -19 -23 -39 -26 vhcurveto
          endchar
        </CharString>
        <CharString name="comma">
          -314 7 -171 77 callgsubr
        </CharString>
        <CharString name="copyright">
          170 455 545 rmoveto
          -101 -118 -161 -99 -50 57 -53 52 63 88 58 26 7 -5 9 -9 hvcurveto
          -20 -46 -42 -72 hhcurveto
          -27 -21 17 27 92 110 112 50 hvcurveto
          16 7 -8 12 hhcurveto
          6 7 5 9 20 -27 31 -22 hvcurveto
          172 -132 rmoveto
          -194 -121 -108 -188 -100 -71 63 117 202 175 115 139 93 73 -80 -115 vhcurveto
          -298 -353 rmoveto
          306 callgsubr
          301 callgsubr
          hvcurveto
          endchar
        </CharString>
        <CharString name="currency">
          62 212 300 rmoveto
          70 4 55 55 53 hhcurveto
          54 40 -57 -63 -7 hvcurveto
          -61 -2 -55 -60 -54 hhcurveto
          -52 -43 51 65 7 hvcurveto
          321 196 rmoveto
          18 -29 24 -18 -19 -31 -26 -44 -37 vhcurveto
          11 -21 -24 6 -27 hhcurveto
          -28 -28 -8 -13 -25 hvcurveto
          -7 16 -6 14 -2 9 rrcurveto
          24 -8 -45 11 -29 hhcurveto
          -13 -2 -6 -14 -14 28 -38 26 -49 hvcurveto
          -26 -32 -18 -39 -4 -43 -2 -42 10 -38 18 -30 rrcurveto
          -44 -46 -31 -28 -8 vvcurveto
          -15 24 -27 21 15 32 31 42 37 vhcurveto
          -12 21 26 -7 27 hhcurveto
          24 23 6 9 22 hvcurveto
          -42 32 30 -26 19 hhcurveto
          13 9 8 12 13 -20 30 -28 44 hvcurveto
          34 34 23 47 5 53 3 38 -9 35 -17 28 rrcurveto
          40 39 36 31 14 vvcurveto
          endchar
        </CharString>
        <CharString name="d">
          -30 49 callgsubr
          endchar
        </CharString>
        <CharString name="dagger">
          -150 358 454 rmoveto
          155 callsubr
          rrcurveto
          -33 -212 -53 -253 -38 vvcurveto
          -23 30 -33 18 16 34 176 138 27 vhcurveto
          274 callsubr
          rrcurveto
          endchar
        </CharString>
        <CharString name="daggerdbl">
          -150 161 136 rmoveto
          274 callsubr
          155 callsubr
          -14 -88 -17 -94 -15 -84 -94 -8 -88 -13 -1 -14 rrcurveto
          -15 22 -33 17 vhcurveto
          36 -1 34 5 61 7 rrcurveto
          -16 -84 -11 -63 -18 vvcurveto
          -23 30 -33 18 13 24 113 116 23 vhcurveto
          151 16 61 13 21 vvcurveto
          1 17 -34 6 -43 2 -25 1 -46 -2 -51 -3 rrcurveto
          endchar
        </CharString>
        <CharString name="dcaron">
          189 49 callgsubr
          165 -15 rmoveto
          48 callsubr
          42 95 231 callgsubr
          -38 vhcurveto
          endchar
        </CharString>
        <CharString name="dcroat">
          -30 378 293 rmoveto
          -3 -12 rlineto
          -111 -43 -117 -80 -45 hhcurveto
          -24 -24 17 26 105 100 193 92 37 27 -59 -74 hvcurveto
          160 357 rmoveto
          5 25 2 18 8 vvcurveto
          39 -39 44 -19 317 callsubr
          vhcurveto
          -2 -34 -3 -36 -6 -39 rrcurveto
          -82 -5 -58 -9 -19 vvcurveto
          1 -17 28 -28 27 1 17 1 21 4 35 6 -10 -53 -12 -56 -12 -54 rrcurveto
          53 -17 -34 35 -51 hhcurveto
          -146 -117 -255 -118 -54 52 -66 62 56 66 47 57 54 hvcurveto
          -6 -25 -3 -19 -10 vvcurveto
          -25 27 -25 17 19 43 165 120 30 vhcurveto
          28 113 24 108 14 76 101 16 31 5 -1 19 -1 15 -13 5 -48 -1 rrcurveto
          endchar
        </CharString>
        <CharString name="degree">
          -208 254 725 rmoveto
          -74 -76 -69 -84 -21 hvcurveto
          -83 -20 44 -70 76 hhcurveto
          75 76 70 83 21 hvcurveto
          84 19 -44 69 -76 hhcurveto
          -17 -68 rmoveto
          33 21 -40 -48 -13 hvcurveto
          -46 -8 -38 -40 -33 hhcurveto
          -34 -20 40 46 12 hvcurveto
          48 10 36 40 34 hhcurveto
          endchar
        </CharString>
        <CharString name="dieresis">
          6 710 -25 callsubr
          endchar
        </CharString>
        <CharString name="divide">
          62 102 282 rmoveto
          206 292 25 50 15 -26 6 -36 -48 -94 -7 -8 -114 hvcurveto
          -6 -104 -89 2 -20 307 callgsubr
          hvcurveto
          101 -146 rmoveto
          -31 53 -55 33 13 17 16 9 29 -40 92 -26 -23 -27 -36 -24 vhcurveto
          85 395 rmoveto
          -31 53 -55 33 14 16 16 9 29 -40 92 -26 -23 -27 -35 -25 vhcurveto
          endchar
        </CharString>
        <CharString name="dollar">
          -11 275 387 rmoveto
          -47 30 -36 27 22 vvcurveto
          29 64 33 68 21 vhcurveto
          -14 -45 -16 -53 -19 -64 rrcurveto
          119 -205 rmoveto
          -43 -63 -31 -77 -11 vhcurveto
          14 45 17 58 23 73 rrcurveto
          48 -31 38 -31 -29 vvcurveto
          39 487 rmoveto
          5 19 2 16 1 12 rrcurveto
          17 -5 17 -17 -23 -17 -29 -83 -27 vhcurveto
          -77 -18 -90 -35 -45 -42 rrcurveto
          -16 -15 -14 -41 -30 vvcurveto
          -54 72 -49 71 -45 vhcurveto
          -19 -67 -26 -81 -19 -69 rrcurveto
          1 -83 -40 90 -31 hhcurveto
          -13 -7 -10 -20 -40 59 -78 97 -16 hvcurveto
          -4 -21 -3 -17 -12 vvcurveto
          -16 -1 9 -14 13 hhcurveto
          15 9 12 66 21 hvcurveto
          116 7 129 58 6 96 3 64 -77 58 -75 50 19 63 23 71 26 83 17 3 16 1 12 -1 rrcurveto
          24 12 -8 14 hhcurveto
          9 6 4 10 27 -23 48 -42 -6 -6 0 -1 -6 hvcurveto
          endchar
        </CharString>
        <CharString name="dotaccent">
          -26 730 138 callsubr
        </CharString>
        <CharString name="dotlessi">
          157 callsubr
          endchar
        </CharString>
        <CharString name="dvDDH_DDHA">
          30 401 268 rmoveto
          33 18 -12 -16 -27 -54 -19 -68 -7 hvcurveto
          -1 5 0 6 5 vvcurveto
          44 21 21 51 vhcurveto
          -158 -482 rmoveto
          24 26 16 25 36 22 -22 -19 -25 -36 -17 -49 -9 vhcurveto
          -17 16 -7 18 18 vvcurveto
          -195 861 -102 callgsubr
          323 hlineto
          -9 -27 -4 -33 -1 -27 rrcurveto
          9 -18 -19 6 -16 hhcurveto
          -105 -200 -158 -102 -47 31 -39 44 -18 hvcurveto
          -18 38 43 -7 59 hhcurveto
          11 hlineto
          6 -28 9 -28 11 -25 rrcurveto
          2 -14 -15 1 -16 hhcurveto
          -135 -149 -112 -106 -112 101 -47 119 118 108 49 75 58 -54 47 -77 -72 -44 -32 -51 -28 9 -23 18 -23 hvcurveto
          -4 hlineto
          -81 -58 26 55 68 113 86 96 hvcurveto
          57 19 -12 25 hhcurveto
          12 11 10 16 hvcurveto
          1 vlineto
          2 vlineto
          24 -30 51 -19 62 vhcurveto
          104 15 73 48 57 vvcurveto
          53 -45 40 -75 -90 -44 -49 -79 -6 0 -6 1 -7 vhcurveto
          -87 -41 21 32 65 155 120 65 hvcurveto
          49 11 -39 30 hhcurveto
          4 4 1 1 3 hvcurveto
          16 5 4 14 25 vvcurveto
          74 8 40 4 30 vhcurveto
          176 hlineto
          43 25 230 callsubr
          -62 hvcurveto
          endchar
        </CharString>
        <CharString name="dvDD_GA">
          -51 75 -126 -23 callgsubr
        </CharString>
        <CharString name="dvD_MA.a">
          213 657 573 rmoveto
          -12 -58 -12 -59 -13 -63 -58 -24 -66 -24 -61 -21 -42 -15 -40 -14 -37 -15 rrcurveto
          -77 31 -86 14 39 vvcurveto
          27 37 18 46 vhcurveto
          75 21 -37 25 hhcurveto
          20 2 16 15 hvcurveto
          9 33 2 70 -5 57 rrcurveto
          3 -1 4 -1 3 vhcurveto
          -13 -420 rmoveto
          -30 -41 -17 -48 -46 -26 11 21 22 44 25 63 26 vhcurveto
          32 -14 22 -18 -26 vvcurveto
          -341 494 -95 callsubr
          233 hlineto
          2 -33 0 -42 -28 vvcurveto
          -7 vlineto
          11 -24 -30 7 -33 hhcurveto
          -84 -72 -46 -62 -75 79 -30 76 -26 hvcurveto
          -61 -31 -39 -32 -35 vvcurveto
          -56 56 -47 94 89 66 51 59 39 -18 28 -27 22 vhcurveto
          22 8 24 9 24 8 49 17 50 17 44 14 rrcurveto
          -26 -121 -26 -110 -34 92 callsubr
          95 -106 callgsubr
        </CharString>
        <CharString name="dvD_YA.a">
          190 586 342 rmoveto
          -74 -49 -105 -105 -103 hhcurveto
          -7 -4 2 6 34 20 45 43 45 hvcurveto
          36 38 35 26 25 vvcurveto
          16 -10 7 -18 vhcurveto
          0 -1 0 vlineto
          -14 -16 -6 -10 -16 hvcurveto
          -26 -46 -55 -50 -84 hhcurveto
          -13 -5 4 6 hvcurveto
          26 141 77 94 vvcurveto
          19 -3 17 -6 15 vhcurveto
          328 hlineto
          -14 -75 -15 -73 -15 -77 rrcurveto
          -586 299 -102 callgsubr
          20 hlineto
          -1 -2 0 -2 -2 vvcurveto
          -17 24 -28 23 vhcurveto
          23 11 33 40 hhcurveto
          24 15 -12 -25 hvcurveto
          -74 -137 -51 -66 vvcurveto
          -38 43 -38 49 21 28 6 10 30 vhcurveto
          -20 -37 -13 -38 -28 vvcurveto
          -41 29 -32 58 78 89 45 55 66 vhcurveto
          -14 -69 -11 -57 -13 vvcurveto
          -19 39 -27 14 23 178 callsubr
          92 hlineto
          43 25 230 callsubr
          -62 hvcurveto
          endchar
        </CharString>
        <CharString name="dvMatraIelse">
          -267 98 -21 callsubr
          16 hlineto
          -15 -85 -15 -83 -17 -89 rrcurveto
          -21 -119 -32 -116 -42 callsubr
          111 267 callgsubr
          80 40 56 146 158 203 -19 -277 42 hhcurveto
          25 13 25 39 92 -54 199 -214 -196 -120 -189 -115 -13 hvcurveto
          endchar
        </CharString>
        <CharString name="dvNG_GA">
          41 528 370 rmoveto
          269 callgsubr
          29 -34 67 -25 hvcurveto
          -459 -496 -23 callgsubr
        </CharString>
        <CharString name="dvNG_MA">
          -4 525 376 rmoveto
          269 callgsubr
          29 -34 67 -25 hvcurveto
          -329 -372 rmoveto
          6 42 3 41 1 33 rrcurveto
          -7 23 26 -4 27 hhcurveto
          29 26 4 7 22 hvcurveto
          -9 -29 -10 -35 -8 -36 -34 -3 -50 -6 -38 -5 rrcurveto
          -137 -164 rmoveto
          -18 -17 33 18 18 34 10 47 8 hvcurveto
          -49 -12 -16 -38 -18 hhcurveto
          -19 805 184 callsubr
          22 -34 26 314 callsubr
          -4 -49 vvcurveto
          -28 -37 -25 -66 -74 -34 31 40 -18 vhcurveto
          23 -10 -13 14 -21 hhcurveto
          -20 -10 -15 -21 -41 24 -37 40 -27 hvcurveto
          -3 -14 -2 -18 -19 vvcurveto
          -30 -3 -36 -5 -36 vhcurveto
          -101 -17 -63 -22 -52 vvcurveto
          -56 57 -75 50 56 35 77 88 19 vhcurveto
          45 6 49 5 41 7 rrcurveto
          0 vlineto
          -13 -73 -9 -67 -18 342 callgsubr
          12 87 39 148 4 46 rrcurveto
          21 20 11 24 27 74 callsubr
          57 6 32 4 23 hvcurveto
          193 -106 callgsubr
        </CharString>
        <CharString name="dvNY_CA">
          592 83 127 callsubr
          894 -13 callgsubr
          -30 -21 -25 -25 -16 -27 -32 -7 -45 -12 -34 -7 -37 -7 -36 -5 -29 -4 rrcurveto
          7 23 3 24 22 vvcurveto
          -35 callsubr
          102 76 64 77 41 vhcurveto
          6 hlineto
          45 95 13 20 69 hvcurveto
          -6 vlineto
          -64 42 -43 82 90 82 41 68 63 vhcurveto
          -19 -87 -19 -73 -17 vvcurveto
          -24 36 -30 13 49 callsubr
        </CharString>
        <CharString name="dvN_TA.aTRAD">
          140 384 139 rmoveto
          -23 -9 -21 -24 -28 -31 16 20 20 31 23 45 21 vhcurveto
          10 -15 6 -20 -21 vvcurveto
          -348 508 -102 callgsubr
          493 hlineto
          -13 -64 -14 -64 -15 -73 rrcurveto
          23 -58 -67 19 -101 hhcurveto
          -163 -106 -68 -120 -100 88 -118 51 20 9 9 15 hvcurveto
          37 -83 38 105 vvcurveto
          85 79 43 118 73 60 -17 -17 52 vhcurveto
          -131 -26 -157 -66 -78 vvcurveto
          -53 68 -49 62 67 28 55 50 32 -10 28 -14 19 vhcurveto
          29 10 32 10 31 7 rrcurveto
          -17 -93 -14 -76 -28 vvcurveto
          -16 31 -26 16 23 30 182 133 31 vhcurveto
          21 92 29 121 6 39 rrcurveto
          20 -106 callgsubr
        </CharString>
        <CharString name="dvSHA_MatraVocalicR">
          266 329 536 rmoveto
          49 42 34 46 37 17 -21 -28 -45 -30 -45 -46 -37 vhcurveto
          -41 25 -25 32 36 vvcurveto
          353 111 245 callgsubr
          35 -11 58 -3 hvcurveto
          -12 -65 -12 -63 -12 -65 -72 1 -68 11 -56 19 rrcurveto
          50 48 32 55 53 vvcurveto
          73 -48 50 -78 -90 -73 -73 -81 -54 29 -46 47 -36 vhcurveto
          -29 -55 -66 -19 -59 -24 -24 5 -16 hhcurveto
          -15 -10 -2 -15 -26 45 -33 50 80 89 32 47 72 hvcurveto
          69 -32 87 -19 90 -3 -17 -98 -22 -98 -6 -42 rrcurveto
          -91 -17 -117 -96 -81 vvcurveto
          -71 65 -32 101 65 79 16 32 13 -13 19 -25 vhcurveto
          -30 -14 -15 -67 hhcurveto
          -56 -36 14 25 48 104 82 73 hvcurveto
          2 hlineto
          2 hlineto
          35 24 171 33 callsubr
          62 callgsubr
        </CharString>
        <CharString name="dvSH_VA.aSimp">
          466 636 138 -76 callsubr
          -297 316 -52 callgsubr
          179 193 rmoveto
          -32 -26 -4 -10 -13 hvcurveto
          25 -31 -43 15 -52 -71 callsubr
          29 -6 28 -12 24 hvcurveto
          -4 22 28 -1 33 283 callgsubr
          -133 -85 -175 -129 1 callsubr
          hvcurveto
          -98 callgsubr
        </CharString>
        <CharString name="dvTTH_TTHA">
          56 252 190 rmoveto
          -47 -35 10 25 59 141 115 80 44 40 -45 -38 -59 -135 -67 -88 hvcurveto
          -116 -428 rmoveto
          -47 -35 10 25 59 141 116 80 44 40 -46 -38 -58 -135 -68 -88 hvcurveto
          -78 885 -95 callsubr
          322 hlineto
          -2 -8 -19 -33 -13 -32 -6 334 callgsubr
          61 -41 91 20 21 2 3 20 vhcurveto
          -5 -21 0 -23 -14 -36 rrcurveto
          0 -5 vlineto
          -123 -182 -147 -101 -64 61 -40 91 153 152 96 94 52 -39 65 -54 30 hvcurveto
          19 27 18 52 2 35 rrcurveto
          96 35 74 67 65 vvcurveto
          51 -37 63 -52 30 vhcurveto
          2 330 callsubr
          169 -94 callgsubr
          endchar
        </CharString>
        <CharString name="dvTT_GA">
          19 88 -133 rmoveto
          -24 -25 32 21 21 21 9 42 14 18 -2 -4 19 hvcurveto
          -47 -16 -23 -30 -26 hhcurveto
          19 780 201 callsubr
          -48 28 -34 48 -19 hvcurveto
          -5 -22 -3 -25 -4 -25 -2 -12 -2 -11 -2 -11 rrcurveto
          4 -22 -23 3 -27 hhcurveto
          -73 -55 -28 -54 -57 57 -73 65 116 51 202 92 4 hvcurveto
          -1 12 13 -1 14 hhcurveto
          25 25 2 5 22 hvcurveto
          -40 -88 -33 -141 -73 55 callgsubr
        </CharString>
        <CharString name="dvT_KH_NA">
          619 1071 280 callsubr
          -8 -42 -8 -44 144 callsubr
          -64 55 -54 76 -7 hvcurveto
          -32 -60 -67 -18 -69 hhcurveto
          -65 -41 32 36 -34 hvcurveto
          119 33 82 95 99 216 callgsubr
          -201 -376 316 callsubr
          -25 -33 15 23 26 36 28 50 21 vhcurveto
          10 -19 4 -21 -20 vvcurveto
          -716 719 -102 callgsubr
          411 hlineto
          -1 -2 0 -3 -2 vvcurveto
          -22 37 -39 22 vhcurveto
          23 16 44 54 hhcurveto
          38 17 -21 -40 -80 -73 -54 -97 -21 hvcurveto
          40 -28 -130 24 -94 hhcurveto
          -9 callgsubr
          37 31 -3 -4 26 vhcurveto
          9 -36 44 -22 49 -3 rrcurveto
          -71 53 79 -64 104 hhcurveto
          90 107 35 64 89 hvcurveto
          -13 -60 -13 -51 -5 -28 rrcurveto
          6 -27 -26 2 -27 hhcurveto
          -128 -191 -76 -89 -57 67 -51 68 73 29 53 56 29 -6 32 -12 25 hvcurveto
          9 36 37 6 33 hhcurveto
          33 38 -2 -12 33 hvcurveto
          -3 5 4 -2 3 hhcurveto
          24 35 -79 callsubr
          hvcurveto
          21 90 25 -89 callgsubr
          100 -94 callgsubr
          endchar
        </CharString>
        <CharString name="dvT_S_NA">
          678 1108 134 callgsubr
          -806 593 -102 callgsubr
          437 73 callsubr
          -55 -12 43 1 -37 hvcurveto
          20 -38 -60 13 -52 hhcurveto
          -135 -84 -46 -105 -105 115 -110 68 281 callgsubr
          41 -135 38 103 vvcurveto
          58 49 23 95 45 40 -10 -8 35 vhcurveto
          9 -30 26 -51 33 -56 rrcurveto
          25 callgsubr
        </CharString>
        <CharString name="e">
          -84 292 435 10 callgsubr
          -43 callgsubr
          endchar
        </CharString>
        <CharString name="eacute">
          -84 229 287 rmoveto
          -25 -32 3 6 -29 hvcurveto
          75 36 59 64 54 hhcurveto
          34 41 -50 -36 -39 -54 -23 -84 hvcurveto
          57 222 rmoveto
          -43 callgsubr
          101 91 48 67 73 -73 95 -82 hvcurveto
          16 122 15 callgsubr
        </CharString>
        <CharString name="ecaron">
          -84 229 287 rmoveto
          -25 -32 3 6 -29 hvcurveto
          75 36 59 64 54 hhcurveto
          34 41 -50 -36 -39 -54 -23 -84 hvcurveto
          57 222 rmoveto
          -43 callgsubr
          101 91 48 67 73 -73 95 -82 hvcurveto
          157 211 86 callgsubr
        </CharString>
        <CharString name="ecircumflex">
          -84 229 287 rmoveto
          -25 -32 3 6 -29 hvcurveto
          75 36 59 64 54 hhcurveto
          34 41 -50 -36 -39 -54 -23 -84 hvcurveto
          57 222 rmoveto
          -43 callgsubr
          101 91 48 67 73 -73 95 -82 hvcurveto
          98 153 -49 callsubr
          endchar
        </CharString>
        <CharString name="edieresis">
          -84 407 559 15 callsubr
          33 -124 10 callgsubr
          -43 callgsubr
          endchar
        </CharString>
        <CharString name="edotaccent">
          -84 328 561 rmoveto
          12 14 14 8 26 -33 80 -24 -21 -24 -32 -23 -28 49 -45 27 hvcurveto
          -36 -126 10 callgsubr
          -43 callgsubr
          endchar
        </CharString>
        <CharString name="egrave">
          -84 280 585 rmoveto
          -12 callgsubr
          -22 -22 3 -34 16 -11 rrcurveto
          122 -231 10 callgsubr
          -43 callgsubr
          endchar
        </CharString>
        <CharString name="eight">
          86 413 218 rmoveto
          -67 -98 -55 -63 -28 -18 18 21 39 70 56 81 62 vhcurveto
          33 -29 23 -26 -19 vvcurveto
          190 340 rmoveto
          67 -58 43 -84 -111 -116 -38 -37 -21 41 -25 20 vhcurveto
          32 66 43 77 hhcurveto
          37 10 -12 -16 -41 -77 -62 -86 -67 hvcurveto
          -58 46 -65 46 -50 45 rrcurveto
          15 -17 -13 17 -11 hhcurveto
          -12 -7 -27 -20 -42 92 -66 80 -62 hvcurveto
          -89 -73 -83 -75 -63 vvcurveto
          -59 78 -49 54 102 147 85 95 43 -35 45 -50 46 vhcurveto
          95 74 91 78 67 vvcurveto
          endchar
        </CharString>
        <CharString name="ellipsis">
          114 189 callgsubr
          213 hmoveto
          -31 54 -55 33 13 16 16 9 29 -39 92 -26 -24 -27 -35 -25 vhcurveto
          214 hmoveto
          275 callsubr
        </CharString>
        <CharString name="emacron">
          -84 229 287 rmoveto
          -25 -32 3 6 -29 hvcurveto
          75 36 59 64 54 hhcurveto
          34 41 -50 -36 -39 -54 -23 -84 hvcurveto
          57 222 rmoveto
          -43 callgsubr
          101 91 48 67 73 -73 95 -82 hvcurveto
          179 123 rmoveto
          -28 callsubr
          155 callgsubr
          rrcurveto
          endchar
        </CharString>
        <CharString name="emdash">
          373 791 364 rmoveto
          -341 -381 -28 -45 -20 19 -27 20 hvcurveto
          37 3 120 22 129 12 rrcurveto
          238 20 250 -1 36 vvcurveto
          15 -25 13 -66 vhcurveto
          endchar
        </CharString>
        <CharString name="endash">
          71 569 346 rmoveto
          15 -20 10 -40 vhcurveto
          -173 -3 -267 -50 1 -30 rrcurveto
          -20 24 -25 19 1 vhcurveto
          37 4 83 21 92 14 rrcurveto
          127 20 117 17 26 vvcurveto
          endchar
        </CharString>
        <CharString name="eogonek">
          -84 292 435 10 callgsubr
          -120 -133 -188 -142 -92 68 -67 96 -4 hvcurveto
          -23 -29 -17 -32 -29 -49 callgsubr
          9 7 6 7 5 7 rrcurveto
          38 18 28 24 17 vvcurveto
          12 -8 7 -17 vhcurveto
          -28 -43 -36 -95 hhcurveto
          -55 -32 28 47 25 5 29 9 28 hvcurveto
          -10 39 42 -7 47 hhcurveto
          endchar
        </CharString>
        <CharString name="equal">
          88 594 460 rmoveto
          22 -42 6 -41 1 vhcurveto
          -55 -368 -20 -35 -15 18 -34 17 34 174 17 10 78 hvcurveto
          127 19 58 6 23 vvcurveto
          -27 -185 rmoveto
          16 -28 7 -42 1 vhcurveto
          -45 -395 -34 -26 -15 18 -34 18 -1 hvcurveto
          39 133 11 11 71 hvcurveto
          187 29 44 11 24 vvcurveto
          endchar
        </CharString>
        <CharString name="eth">
          221 callsubr
          308 552 rmoveto
          8 -9 7 -14 -12 -29 -12 -19 -47 vhcurveto
          56 -36 -48 36 -49 hhcurveto
          271 callgsubr
          10 -9 9 -11 9 -13 rrcurveto
          -60 -22 -47 -17 -23 vvcurveto
          -11 12 -6 11 15 45 14 19 48 vhcurveto
          13 -33 9 -37 3 -43 232 callsubr
          64 -14 62 -24 52 hvcurveto
          48 23 39 23 14 vvcurveto
          endchar
        </CharString>
        <CharString name="exclam">
          -178 290 752 rmoveto
          18 -58 39 -21 -1 vhcurveto
          -8 -7 -8 -17 -204 -35 -182 -22 -110 hvcurveto
          -26 -3 23 -26 20 hhcurveto
          36 75 414 103 hvcurveto
          -114 -733 rmoveto
          29 -39 90 -24 -23 -26 -34 -24 -30 52 -53 33 12 15 14 8 vhcurveto
          endchar
        </CharString>
        <CharString name="exclamdown">
          -192 82 hmoveto
          -18 58 -39 21 1 vhcurveto
          8 7 8 17 204 35 182 22 110 hvcurveto
          26 3 -23 26 -20 hhcurveto
          -36 -75 -414 -103 hvcurveto
          114 733 rmoveto
          -29 39 -90 24 23 26 34 24 30 -52 53 -33 -12 -15 -14 -8 vhcurveto
          endchar
        </CharString>
        <CharString name="f">
          -164 243 392 rmoveto
          102 18 47 8 25 vvcurveto
          15 -21 12 -38 -23 -26 -1 -4 -30 vhcurveto
          11 46 rlineto
          100 25 20 99 51 54 -8 -106 39 hhcurveto
          14 11 14 40 58 -41 67 -71 -91 -45 -69 -175 -33 hvcurveto
          -6 -29 -5 -29 -6 -28 -25 -5 -27 -6 -28 -7 rrcurveto
          -27 -7 -16 -10 -11 vvcurveto
          -21 25 -21 22 14 17 4 5 27 vhcurveto
          -30 -126 -30 -104 -20 -76 rrcurveto
          -24 -4 28 -31 15 hhcurveto
          30 49 201 177 43 hvcurveto
          endchar
        </CharString>
        <CharString name="fi">
          -9 260 400 rmoveto
          64 11 70 11 31 2 rrcurveto
          -4 -24 -89 -313 -20 vvcurveto
          -31 -3 17 -20 18 hhcurveto
          15 13 12 39 11 hvcurveto
          23 77 82 264 20 vvcurveto
          41 7 -22 21 -44 hhcurveto
          -21 -85 -6 -11 -87 hvcurveto
          9 38 rlineto
          100 25 20 99 51 54 47 -117 39 hhcurveto
          13 11 8 40 58 -95 84 -71 -91 -45 -69 -175 -33 hvcurveto
          -5 -27 -5 -26 -6 -25 -34 -6 -32 -7 -25 -7 rrcurveto
          -21 -7 -12 -8 -10 vvcurveto
          -19 23 -24 23 9 23 4 5 29 vhcurveto
          -31 -129 -31 -108 -20 -77 rrcurveto
          -24 -4 28 -31 15 hhcurveto
          30 50 205 178 43 hvcurveto
          endchar
        </CharString>
        <CharString name="five">
          28 602 597 rmoveto
          28 -71 4 -71 -61 -61 -7 -7 -28 vhcurveto
          -38 -9 -76 -106 -51 -111 167 -50 -86 vvcurveto
          -47 -68 -46 -67 vhcurveto
          -89 -25 49 -15 hhcurveto
          -7 -3 -13 -15 -47 73 -48 87 119 87 71 96 hvcurveto
          120 -162 48 66 vvcurveto
          21 45 76 22 5 vhcurveto
          45 10 197 18 31 vvcurveto
          endchar
        </CharString>
        <CharString name="fl">
          8 111 462 rmoveto
          -34 -2 -24 -13 -15 vvcurveto
          -15 22 -27 24 -1 vhcurveto
          12 14 1 1 17 hvcurveto
          -24 -113 -27 -113 -27 -88 rrcurveto
          -33 -10 29 -31 18 hhcurveto
          16 9 23 42 15 hvcurveto
          28 78 32 127 25 119 4 1 rcurveline
          95 18 51 18 56 41 -17 -100 -28 -125 -47 -163 rrcurveto
          -37 -12 19 -39 33 hhcurveto
          10 11 21 52 18 hvcurveto
          61 198 55 265 2 158 rrcurveto
          45 2 -37 28 -24 hhcurveto
          -12 -4 -11 -31 -3 hvcurveto
          -2 -24 -2 -37 -4 -54 -4 -92 -96 -35 -109 -19 7 34 5 31 5 29 rrcurveto
          88 15 15 48 32 37 -4 -46 25 hhcurveto
          14 8 11 28 39 -29 41 -54 -66 -51 -45 -112 -16 hvcurveto
          -8 -49 -9 -54 -11 -55 rrcurveto
          endchar
        </CharString>
        <CharString name="florin">
          -109 277 376 rmoveto
          106 17 43 14 24 vvcurveto
          16 -21 11 -38 -20 -26 -1 -3 -27 vhcurveto
          173 39 26 80 44 55 -8 -103 39 hhcurveto
          14 11 14 40 58 -41 67 -72 -104 -39 -73 -268 -60 hvcurveto
          -69 -11 -59 -17 -19 vvcurveto
          -21 25 -29 23 14 19 5 7 28 vhcurveto
          -334 -72 -23 -74 -37 -40 -14 37 -14 hhcurveto
          -8 -7 -8 -17 -42 48 -41 37 97 41 68 400 84 hvcurveto
          endchar
        </CharString>
        <CharString name="four">
          38 459 432 rmoveto
          -13 -11 -9 -21 -46 -3 -42 -6 -40 hvcurveto
          -15 -47 -69 -37 -61 hhcurveto
          -34 -14 16 32 hvcurveto
          92 208 207 34 vvcurveto
          21 -28 28 -20 -40 -209 -268 -116 -78 57 -48 81 50 60 16 20 48 vhcurveto
          -25 -107 -34 -74 -35 vvcurveto
          -22 15 -25 20 48 93 336 111 28 -48 42 -18 vhcurveto
          endchar
        </CharString>
        <CharString name="fraction">
          240 129 callsubr
        </CharString>
        <CharString name="g">
          -67 141 93 110 callsubr
          269 225 rmoveto
          1 8 1 9 -1 11 rrcurveto
          27 callsubr
          rrcurveto
          endchar
        </CharString>
        <CharString name="gbreve">
          -67 141 93 110 callsubr
          270 253 rmoveto
          27 callsubr
          1 8 1 9 -1 11 rrcurveto
          89 347 87 callgsubr
        </CharString>
        <CharString name="germandbls">
          45 391 370 rmoveto
          28 128 19 112 vvcurveto
          82 -76 98 -87 -110 -71 -70 -117 -22 vhcurveto
          -49 -266 -53 -134 -57 vvcurveto
          -22 22 -28 19 36 53 221 259 52 vhcurveto
          82 17 44 53 53 hhcurveto
          38 50 -48 -59 hvcurveto
          -77 -133 -24 -40 -71 139 -39 -88 vvcurveto
          -61 -75 -35 -55 vhcurveto
          -20 -17 2 -13 hhcurveto
          -17 -9 -5 -16 -27 30 -25 58 95 102 61 106 hvcurveto
          109 -129 55 22 vvcurveto
          endchar
        </CharString>
        <CharString name="grave">
          -105 829 rmoveto
          -22 -22 3 -34 16 -11 110 -81 rcurveline
          -12 callgsubr
          rrcurveto
          endchar
        </CharString>
        <CharString name="greater">
          17 155 535 rmoveto
          -14 -8 -4 -10 -14 32 -43 27 -8 hvcurveto
          60 -17 154 -80 -31 -25 -321 -138 -46 vvcurveto
          -11 9 -7 19 32 50 16 70 128 vhcurveto
          93 52 83 40 40 vvcurveto
          14 -13 25 -18 18 vhcurveto
          68 -67 -153 91 -93 hhcurveto
          endchar
        </CharString>
        <CharString name="greaterequal">
          19 159 558 rmoveto
          -14 -8 -4 -10 -15 22 -38 22 -4 hvcurveto
          62 -9 178 -48 -30 -30 -336 -86 -42 vvcurveto
          -11 10 -7 20 36 70 20 31 83 vhcurveto
          87 32 92 40 15 27 7 13 -6 32 -9 16 rrcurveto
          53 -38 -172 70 -121 hhcurveto
          -101 -466 rmoveto
          -12 26 -9 26 92 269 77 24 20 -22 24 -16 -22 -48 -22 -31 -107 vhcurveto
          -113 -34 -85 -16 -21 vvcurveto
          endchar
        </CharString>
        <CharString name="guillemotleft">
          146 364 497 rmoveto
          -54 -180 344 callgsubr
          249 -109 54 23 344 callsubr
          155 62 102 32 vhcurveto
          19 6 16 5 15 vvcurveto
          12 -23 19 -26 vhcurveto
          311 -23 rmoveto
          -58 -194 -60 -41 -56 hvcurveto
          -16 -12 -23 -30 -17 vvcurveto
          -54 240 -97 69 21 10 4 14 vhcurveto
          33 -257 66 34 vvcurveto
          30 161 47 116 24 vhcurveto
          19 5 16 4 1 15 rrcurveto
          13 -23 22 -26 vhcurveto
          endchar
        </CharString>
        <CharString name="guillemotright">
          295 171 474 rmoveto
          -17 -27 -26 -12 -12 18 -6 22 -5 hvcurveto
          82 -16 117 -42 -28 -35 -282 -86 -35 vvcurveto
          -9 9 -6 18 69 266 113 54 70 -214 81 -61 vhcurveto
          284 23 220 callgsubr
          194 87 44 53 vhcurveto
          12 10 7 19 14 vvcurveto
          69 -207 106 -60 1 vhcurveto
          endchar
        </CharString>
        <CharString name="guilsinglleft">
          36 404 497 rmoveto
          -55 -179 344 callgsubr
          248 -109 54 24 344 callsubr
          154 62 102 32 vhcurveto
          20 6 16 5 15 vvcurveto
          12 -24 19 -25 vhcurveto
          endchar
        </CharString>
        <CharString name="guilsinglright">
          51 213 497 220 callgsubr
          195 87 44 52 vhcurveto
          12 10 8 19 14 vvcurveto
          69 -207 106 -61 1 vhcurveto
          endchar
        </CharString>
        <CharString name="h">
          -1 168 789 rmoveto
          -18 -6 -11 -27 -39 -11 -133 -38 -185 hvcurveto
          -23 -113 -31 -118 -21 -86 rrcurveto
          -23 -3 34 -38 18 hhcurveto
          18 42 75 83 53 hvcurveto
          129 84 62 101 48 hhcurveto
          13 17 -18 -27 -28 -10 -43 -12 -43 hvcurveto
          -25 -85 -33 -74 -43 vvcurveto
          -19 7 -8 14 40 42 106 116 33 vhcurveto
          16 56 9 50 39 vvcurveto
          54 -60 72 -33 -62 -81 -92 -255 -142 vhcurveto
          78 231 38 236 76 vvcurveto
          36 -34 48 -23 vhcurveto
          endchar
        </CharString>
        <CharString name="hungarumlaut">
          50 863 -18 callgsubr
          endchar
        </CharString>
        <CharString name="hyphen">
          -87 197 callgsubr
        </CharString>
        <CharString name="i">
          -278 163 509 rmoveto
          245 callsubr
          hvcurveto
          -16 -70 -24 -77 -13 -60 rrcurveto
          -25 -4 16 -22 17 hhcurveto
          16 15 12 39 13 hvcurveto
          63 198 39 153 30 vvcurveto
          363 callgsubr
          vhcurveto
          113 93 rmoveto
          33 -38 72 -22 -22 -24 -29 -23 -28 49 -49 31 12 14 11 13 vhcurveto
          endchar
        </CharString>
        <CharString name="iacute">
          -278 307 739 -70 callsubr
          -96 -291 -11 callsubr
          endchar
        </CharString>
        <CharString name="icircumflex">
          -278 280 153 callsubr
          -69 -214 -11 callsubr
          endchar
        </CharString>
        <CharString name="idieresis">
          -278 180 584 -25 callsubr
          -116 -136 -11 callsubr
          endchar
        </CharString>
        <CharString name="igrave">
          157 callsubr
          -142 285 rmoveto
          -22 -22 3 -34 16 -11 110 -81 rcurveline
          -12 callgsubr
          rrcurveto
          endchar
        </CharString>
        <CharString name="imacron">
          157 callsubr
          -3 141 rmoveto
          219 callgsubr
          25 1 36 9 74 12 rrcurveto
          endchar
        </CharString>
        <CharString name="infinity">
          207 517 159 rmoveto
          -47 -35 36 49 -30 hvcurveto
          76 86 81 74 37 hhcurveto
          18 13 -13 -26 -84 -53 -112 -70 hvcurveto
          -366 7 rmoveto
          -27 -10 16 18 39 51 143 66 55 19 -71 -39 23 hvcurveto
          -58 -69 -64 -48 -44 hhcurveto
          460 313 rmoveto
          -53 -93 -87 -82 -93 hvcurveto
          63 -14 -46 92 -86 hhcurveto
          -115 -80 -183 -85 -63 67 -45 59 52 74 53 62 75 hvcurveto
          -66 39 53 -53 79 hhcurveto
          100 92 141 129 66 -55 58 -55 hvcurveto
          endchar
        </CharString>
        <CharString name="integral">
          -62 499 698 rmoveto
          41 -48 42 -37 -97 -26 -64 -381 -86 vhcurveto
          -315 -72 -13 -72 -40 -33 -15 37 -13 hhcurveto
          -9 -6 -8 -17 -42 48 -41 37 97 30 76 374 82 hvcurveto
          320 72 19 62 32 40 9 -38 14 hhcurveto
          8 7 9 17 hvcurveto
          endchar
        </CharString>
        <CharString name="iogonek">
          -278 36 60 rmoveto
          -3 -2 rlineto
          -48 -37 -62 -65 -56 -49 callgsubr
          14 11 9 12 4 11 6 8 6 12 5 16 rrcurveto
          63 198 39 153 30 vvcurveto
          363 callgsubr
          245 callsubr
          vhcurveto
          -16 -70 -24 -77 -13 -60 rrcurveto
          endchar
        </CharString>
        <CharString name="itfLogo">
          1110 147 hmoveto
          193 callgsubr
          236 -634 rmoveto
          193 callgsubr
          236 -634 rmoveto
          193 callgsubr
          -410 vmoveto
          196 185 -196 hlineto
          endchar
        </CharString>
        <CharString name="itfStar">
          134 663 452 rmoveto
          -28 -200 -6 -2 -34 hvcurveto
          -66 246 -8 -27 -53 -188 -8 -31 rlinecurve
          -261 8 25 -15 168 -108 28 -17 rlinecurve
          -96 -247 24 20 152 128 29 20 rlinecurve
          204 -168 -11 28 -71 189 -12 30 rlinecurve
          endchar
        </CharString>
        <CharString name="j">
          -292 288 602 rmoveto
          33 -36 72 -24 -21 -24 -29 -23 -28 49 -49 31 11 14 11 13 vhcurveto
          -146 -139 rmoveto
          -378 -100 -26 -264 -77 hhcurveto
          -26 -20 17 25 -21 hvcurveto
          24 -21 -18 27 -14 hhcurveto
          -12 -15 -29 -16 -34 73 -79 70 75 48 51 103 27 hvcurveto
          92 363 41 144 -1 31 rrcurveto
          30 -29 32 -20 -1 vhcurveto
          -8 -8 -12 -34 -10 hvcurveto
          endchar
        </CharString>
        <CharString name="k">
          -43 434 509 82 callsubr
        </CharString>
        <CharString name="l">
          -304 140 202 9 callgsubr
          endchar
        </CharString>
        <CharString name="lacute">
          -304 342 980 -70 callsubr
          -202 -778 9 callgsubr
          endchar
        </CharString>
        <CharString name="lcaron">
          -97 140 202 9 callgsubr
          139 364 rmoveto
          42 95 231 callgsubr
          -38 48 callsubr
          vhcurveto
          endchar
        </CharString>
        <CharString name="less">
          9 497 535 rmoveto
          -69 -243 -118 -52 -62 hvcurveto
          -15 -12 -19 -39 -20 vvcurveto
          -58 289 -133 69 22 13 5 15 vhcurveto
          34 -292 109 38 vvcurveto
          33 223 94 96 35 vhcurveto
          19 7 15 5 15 vvcurveto
          12 -15 30 -31 vhcurveto
          endchar
        </CharString>
        <CharString name="lessequal">
          -10 464 558 rmoveto
          -75 -219 -66 -48 -65 hvcurveto
          -17 -12 -20 -35 -20 vvcurveto
          -58 291 -89 65 27 12 8 14 vhcurveto
          35 -302 73 25 vvcurveto
          32 201 43 115 30 vhcurveto
          19 5 15 6 15 vvcurveto
          13 -15 29 -32 vhcurveto
          -15 -461 rmoveto
          21 -95 15 -109 30 vhcurveto
          28 -108 -47 25 -21 hhcurveto
          -17 -21 -24 -20 -24 238 -72 128 27 25 8 13 hvcurveto
          endchar
        </CharString>
        <CharString name="logicalnot">
          -42 19 481 rmoveto
          -12 -5 -6 -13 -24 45 -39 54 hvcurveto
          122 105 2 68 hhcurveto
          28 38 -5 -19 hvcurveto
          -103 -116 -151 -25 vvcurveto
          -11 7 -6 11 55 127 210 83 41 -19 42 -33 9 vhcurveto
          10 -33 -79 0 -92 -169 -71 5 -31 hhcurveto
          endchar
        </CharString>
        <CharString name="lozenge">
          -116 254 577 rmoveto
          -34 -125 -189 -61 -23 61 -142 23 -51 hvcurveto
          -12 7 37 -10 17 hhcurveto
          34 125 182 76 12 -11 17 -18 44 hvcurveto
          -30 70 -9 47 -16 18 rrcurveto
          12 -11 -33 10 -17 hhcurveto
          85 -232 rmoveto
          -24 -65 -39 -71 -56 -59 -14 40 -33 90 -15 38 20 57 37 69 55 56 16 -40 28 -69 25 -46 rrcurveto
          endchar
        </CharString>
        <CharString name="lslash">
          -178 256 457 rmoveto
          17 97 10 89 67 vvcurveto
          37 -44 42 -17 -16 -2 -9 -23 1 vhcurveto
          1 -93 -15 -108 -24 -122 -77 -21 -52 -21 3 -18 4 -15 33 -24 26 7 12 3 15 6 21 8 -18 -88 -22 -94 -23 -102 rrcurveto
          -23 -3 32 -36 17 hhcurveto
          16 25 93 93 25 hvcurveto
          16 64 15 65 12 62 104 38 31 14 -4 18 -4 14 -14 3 -47 -11 rrcurveto
          endchar
        </CharString>
        <CharString name="m">
          292 675 509 rmoveto
          -62 -71 -74 -163 -84 hvcurveto
          12 41 5 44 30 vvcurveto
          57 -61 65 -29 -75 -70 -120 -233 -128 vhcurveto
          36 110 30 114 66 vvcurveto
          30 -33 36 -28 -36 34 -111 -167 -49 vhcurveto
          -18 -64 -15 -52 -9 -44 rrcurveto
          -20 -3 34 -38 18 hhcurveto
          18 51 88 74 49 hvcurveto
          157 101 40 82 40 hhcurveto
          13 18 -21 -30 hvcurveto
          -153 -74 -114 -40 vvcurveto
          -18 24 -25 15 26 46 111 46 27 vhcurveto
          156 96 51 88 40 hhcurveto
          12 9 -19 -41 hvcurveto
          -136 -72 -115 -63 vvcurveto
          -19 7 -8 14 61 67 255 103 74 -38 61 -39 vhcurveto
          endchar
        </CharString>
        <CharString name="macron">
          34 589 rmoveto
          219 callgsubr
          25 1 36 9 74 12 rrcurveto
          endchar
        </CharString>
        <CharString name="minus">
          62 102 282 rmoveto
          171 316 29 50 15 -26 6 -36 -48 -106 -12 -7 -91 hvcurveto
          -7 -104 -89 3 -20 307 callgsubr
          hvcurveto
          endchar
        </CharString>
        <CharString name="multiply">
          -44 504 506 rmoveto
          18 -29 24 -19 -35 -62 -72 -99 -96 vhcurveto
          -41 55 -33 52 26 vvcurveto
          23 -52 14 -30 -15 -2 -7 -13 -24 55 -91 65 -89 vhcurveto
          -93 -91 -74 -46 -18 vvcurveto
          -16 27 -25 22 22 65 64 75 76 vhcurveto
          -76 61 62 -63 33 hhcurveto
          12 11 8 13 16 -64 75 -62 79 hvcurveto
          90 87 106 87 14 vvcurveto
          endchar
        </CharString>
        <CharString name="n">
          -9 388 509 -63 callgsubr
        </CharString>
        <CharString name="nacute">
          -9 469 665 119 callsubr
          33 -73 -63 callgsubr
        </CharString>
        <CharString name="ncaron">
          -9 302 554 37 callsubr
          86 -45 -63 callgsubr
        </CharString>
        <CharString name="nine">
          -20 210 325 rmoveto
          -29 -22 17 31 70 98 150 72 24 11 -18 -27 hvcurveto
          -29 -9 -19 -20 vvcurveto
          -9 6 -6 12 -3 vhcurveto
          -53 -38 -52 -84 -73 hhcurveto
          219 180 rmoveto
          5 17 3 19 18 vvcurveto
          55 -38 59 -73 -117 -131 -178 -115 -57 67 -68 64 38 43 20 30 39 vhcurveto
          -23 -80 -18 -84 -3 -47 -4 -61 11 -40 21 -1 26 -1 14 152 49 148 18 57 36 78 2 26 4 30 -12 18 -21 5 rrcurveto
          endchar
        </CharString>
        <CharString name="notequal">
          56 409 412 rmoveto
          127 19 58 6 23 vvcurveto
          22 -42 6 -41 1 vhcurveto
          -14 -32 -1 -3 -42 hvcurveto
          27 62 rlineto
          10 27 6 21 13 vvcurveto
          17 -7 8 -14 -25 -32 -51 -102 -46 vhcurveto
          -119 -9 -135 -16 -21 vvcurveto
          -15 18 -34 17 23 85 8 8 77 vhcurveto
          -18 -44 -11 -27 -11 -25 -10 -24 rlinecurve
          -103 -10 -97 -14 -13 vvcurveto
          -15 17 -34 17 -1 vhcurveto
          23 -1 54 4 55 4 rrcurveto
          -27 -63 -16 -40 -18 vvcurveto
          -13 10 -11 14 18 34 62 91 43 vhcurveto
          13 1 12 1 11 2 187 26 44 11 1 23 1 16 -28 8 -42 1 rrcurveto
          -17 -68 -3 -7 -77 hvcurveto
          17 39 18 41 18 42 rrcurveto
          endchar
        </CharString>
        <CharString name="ntilde">
          -9 190 567 rmoveto
          7 callgsubr
          126 callsubr
          198 -58 -63 callgsubr
        </CharString>
        <CharString name="numbersign">
          104 305 442 rmoveto
          123 16 -12 -56 -14 -61 -16 -67 rlinecurve
          -41 -2 -45 -4 -43 -4 18 65 16 60 13 53 rrcurveto
          -69 -258 rmoveto
          26 3 108 14 -9 -41 -10 -43 -9 -43 rlinecurve
          -28 -2 16 -29 17 hhcurveto
          18 16 42 87 26 hvcurveto
          17 65 rlineto
          98 13 41 10 19 vvcurveto
          15 1 -11 12 -50 hhcurveto
          -14 -21 -1 -1 -25 hvcurveto
          18 71 17 65 13 55 rrcurveto
          82 12 35 9 18 vvcurveto
          15 -11 12 -49 -11 -14 0 -1 -18 vhcurveto
          6 35 4 29 21 vvcurveto
          37 -47 34 -17 -16 -2 -9 -23 1 vhcurveto
          -32 -6 -44 -10 -52 vhcurveto
          -38 -3 -42 -3 -42 -4 rrcurveto
          8 41 5 34 24 vvcurveto
          37 -47 34 -17 -16 -2 -9 -23 1 vhcurveto
          -38 -7 -51 -12 -59 vhcurveto
          -82 -12 -63 -16 -20 vvcurveto
          -17 17 -28 16 vhcurveto
          13 -1 33 6 48 8 -12 -54 -15 -59 -15 -64 rrcurveto
          -74 -11 -55 -15 -19 vvcurveto
          -18 17 -28 16 vhcurveto
          11 -1 27 5 39 6 -7 -29 -6 -30 -7 -30 rrcurveto
          -34 -3 20 -32 18 hhcurveto
          17 13 49 87 27 hvcurveto
          endchar
        </CharString>
        <CharString name="o">
          111 callgsubr
          endchar
        </CharString>
        <CharString name="oacute">
          -86 420 739 -70 callsubr
          -4 -397 -64 callsubr
          endchar
        </CharString>
        <CharString name="ocircumflex">
          -86 393 153 callsubr
          23 -320 -64 callsubr
          endchar
        </CharString>
        <CharString name="odieresis">
          -86 293 584 -25 callsubr
          -24 -242 -64 callsubr
          endchar
        </CharString>
        <CharString name="oe">
          196 158 80 rmoveto
          -30 14 -9 38 38 vvcurveto
          108 71 148 101 25 vhcurveto
          30 -18 16 -48 -44 vvcurveto
          -93 -72 -150 -107 -18 vhcurveto
          414 355 10 callgsubr
          -56 -59 -41 -58 -47 hvcurveto
          56 -20 -46 43 -59 hhcurveto
          -123 -118 -177 -156 -89 48 -71 69 66 61 37 54 47 hvcurveto
          -55 26 59 -36 73 hhcurveto
          78 100 54 33 12 -8 7 -17 hvcurveto
          -28 -43 -36 -95 hhcurveto
          -55 -32 28 47 25 5 29 9 28 hvcurveto
          -10 39 42 -7 47 hhcurveto
          endchar
        </CharString>
        <CharString name="ogonek">
          28 -3 rmoveto
          29 23 6 26 -12 13 -13 13 -25 -1 -17 -13 rrcurveto
          -48 -37 -62 -65 -56 -49 callgsubr
          endchar
        </CharString>
        <CharString name="ograve">
          111 callgsubr
          -109 282 rmoveto
          -22 -22 3 -34 16 -11 110 -81 rcurveline
          -12 callgsubr
          rrcurveto
          endchar
        </CharString>
        <CharString name="ohungarumlaut">
          -86 337 767 -18 callgsubr
          -77 -415 -64 callsubr
          endchar
        </CharString>
        <CharString name="omacron">
          -86 321 589 rmoveto
          219 callgsubr
          25 1 36 9 74 12 rrcurveto
          95 -247 -64 callsubr
          endchar
        </CharString>
        <CharString name="one">
          -236 225 322 rmoveto
          20 105 14 96 2 76 rrcurveto
          23 -50 47 -28 -10 -9 -8 -21 -1 vhcurveto
          -8 -336 -51 -162 -3 -72 rrcurveto
          -32 26 -29 18 -1 vhcurveto
          30 22 155 159 28 hvcurveto
          endchar
        </CharString>
        <CharString name="onehalf">
          240 144 325 callgsubr
          10 68 1 53 rrcurveto
          16 -39 122 callsubr
          117 167 138 156 12 52 6 27 -26 40 -14 3 rrcurveto
          74 -685 rmoveto
          -31 -102 -18 -9 -56 hvcurveto
          116 71 113 102 112 vvcurveto
          62 -43 52 -70 -60 -66 -53 -32 -15 33 -17 12 vhcurveto
          14 26 50 45 hhcurveto
          26 15 -21 -31 -128 -235 -112 -1 -42 hvcurveto
          -28 40 -29 27 51 190 34 33 17 -20 2 -24 vhcurveto
          endchar
        </CharString>
        <CharString name="onequarter">
          240 161 325 callgsubr
          9 68 1 53 rrcurveto
          16 -38 122 callsubr
          116 362 callgsubr
          -26 283 callsubr
          -10 -33 -47 -25 -42 hhcurveto
          -22 -9 9 23 hvcurveto
          64 146 144 24 vvcurveto
          16 -21 21 -15 -29 -148 -189 -82 -56 40 -35 58 34 41 10 14 33 vhcurveto
          -17 -73 -22 -50 -24 vvcurveto
          -16 11 -19 15 36 65 235 80 20 -34 31 -14 vhcurveto
          endchar
        </CharString>
        <CharString name="onesuperior">
          -385 157 531 rmoveto
          11 56 8 55 41 vvcurveto
          12 1 -32 29 -14 hhcurveto
          -8 1 -6 -6 -14 vvcurveto
          -5 -183 -32 -89 -1 -39 rrcurveto
          -20 18 -17 12 -1 vhcurveto
          21 -2 11 89 16 88 rrcurveto
          endchar
        </CharString>
        <CharString name="ordfeminine">
          -72 196 478 rmoveto
          -28 -13 16 26 65 69 129 70 30 19 -29 -23 3 hvcurveto
          -109 -31 -70 -75 -49 hhcurveto
          206 197 rmoveto
          35 -49 68 -62 -118 -83 -178 -81 -48 49 -54 53 43 48 32 45 36 vhcurveto
          -41 3 19 -36 19 hhcurveto
          19 -5 35 51 3 hvcurveto
          3 64 17 48 23 vvcurveto
          3 0 3 -1 2 vhcurveto
          4 10 2 10 9 vvcurveto
          endchar
        </CharString>
        <CharString name="ordmasculine">
          -86 399 627 rmoveto
          69 -38 82 -73 -106 -77 -112 -101 -72 43 -73 60 119 72 118 89 vhcurveto
          -229 -67 rmoveto
          67 37 75 81 20 vhcurveto
          34 -18 13 -35 -42 vvcurveto
          -77 -48 -64 -77 -12 vhcurveto
          -23 17 -17 31 38 vvcurveto
          endchar
        </CharString>
        <CharString name="oslash">
          -86 368 349 rmoveto
          -93 -90 -176 -114 -5 vhcurveto
          -13 3 -11 8 -9 11 46 51 73 83 117 132 rrcurveto
          1 -5 0 -4 -5 vvcurveto
          -257 -184 rmoveto
          108 91 167 103 11 vhcurveto
          13 -3 12 -9 10 -12 -31 -35 -37 -46 -47 -54 -42 -49 -39 -45 -33 -39 rrcurveto
          323 279 rmoveto
          30 33 6 12 10 vvcurveto
          10 -9 8 -10 -21 -20 -13 -23 -25 vhcurveto
          21 -22 -28 13 -33 hhcurveto
          -136 -128 -182 -151 -31 7 -28 12 -24 hvcurveto
          -23 -30 -13 -21 -8 vvcurveto
          -10 4 -9 16 10 10 6 29 27 vhcurveto
          -21 22 27 -13 27 hhcurveto
          143 131 174 152 28 -6 28 -11 25 hvcurveto
          endchar
        </CharString>
        <CharString name="otilde">
          111 callgsubr
          -15 259 rmoveto
          126 callsubr
          7 callgsubr
          endchar
        </CharString>
        <CharString name="p">
          -30 157 188 rmoveto
          1 -1 rlineto
          154 58 112 90 45 hhcurveto
          30 10 -40 -46 -130 -159 -124 -106 -5 -5 0 1 -4 hvcurveto
          -17 -69 rmoveto
          -4 11 14 -2 16 hhcurveto
          135 202 177 145 84 -44 89 -60 -61 -67 -46 -79 -58 hvcurveto
          5 23 2 15 9 vvcurveto
          48 -2 -44 33 -19 hhcurveto
          -17 -2 -10 -20 -2 hvcurveto
          -14 -253 -115 -359 -57 vvcurveto
          -22 24 -35 18 23 35 175 88 20 vhcurveto
          endchar
        </CharString>
        <CharString name="paragraph">
          -25 68 465 rmoveto
          -43 43 -54 50 29 29 15 22 28 vhcurveto
          -28 -124 -36 -125 -23 -97 rrcurveto
          -20 -3 29 -23 16 hhcurveto
          14 27 89 92 28 hvcurveto
          50 188 40 190 3 124 rrcurveto
          4 0 3 -1 4 vhcurveto
          51 10 25 4 17 5 -14 -171 -52 -222 -70 -277 rrcurveto
          -20 -3 30 -23 15 hhcurveto
          14 28 89 92 27 hvcurveto
          50 188 40 191 3 124 2 35 -32 39 -16 5 rrcurveto
          4 -10 -15 2 -19 hhcurveto
          -42 -105 -11 -21 -45 hvcurveto
          -101 -44 -73 -149 -95 vvcurveto
          endchar
        </CharString>
        <CharString name="parenleft">
          -52 164 261 rmoveto
          366 386 147 52 vvcurveto
          21 -26 26 -22 -68 -353 -237 -364 -250 218 -121 115 20 9 9 12 vhcurveto
          54 -279 25 260 vvcurveto
          endchar
        </CharString>
        <CharString name="parenright">
          -37 -5 -85 rmoveto
          56 370 252 399 2 hvcurveto
          170 2 -120 122 -79 hhcurveto
          -29 -27 -14 -32 hvcurveto
          -55 165 -9 -213 -353 -365 -207 -41 vvcurveto
          -13 3 -6 22 vhcurveto
          endchar
        </CharString>
        <CharString name="partialdiff">
          221 callsubr
          64 628 rmoveto
          271 callgsubr
          42 -39 28 -67 7 -86 232 callsubr
          165 -95 149 -100 hvcurveto
          endchar
        </CharString>
        <CharString name="percent">
          340 0 callgsubr
          endchar
        </CharString>
        <CharString name="period">
          -301 189 callgsubr
          endchar
        </CharString>
        <CharString name="periodcentered">
          -301 58 333 rmoveto
          275 callsubr
        </CharString>
        <CharString name="perthousand">
          645 0 callgsubr
          262 -318 rmoveto
          -28 -14 35 35 84 65 90 38 21 21 -38 -57 -77 -66 -72 -37 hvcurveto
          66 318 rmoveto
          -87 -96 -126 -130 -67 47 -69 57 90 100 114 116 83 -46 79 -65 hvcurveto
          endchar
        </CharString>
        <CharString name="pi">
          161 584 558 rmoveto
          -75 3 -432 -7 -48 vvcurveto
          -19 27 -32 19 21 38 3 3 49 vhcurveto
          -2 -47 0 -70 -17 -79 rrcurveto
          -41 -176 -56 -1 -33 vvcurveto
          -25 22 -14 26 62 86 211 193 15 -2 16 -4 15 vhcurveto
          55 4 62 3 65 3 -1 -4 -2 -3 -1 -4 rrcurveto
          -24 -73 -13 -93 -72 vvcurveto
          -132 49 -79 55 22 17 10 16 vhcurveto
          37 -65 6 142 vvcurveto
          147 35 52 11 52 vhcurveto
          98 4 41 7 25 vvcurveto
          1 31 -52 12 -74 1 rrcurveto
          endchar
        </CharString>
        <CharString name="plus">
          62 603 361 rmoveto
          15 -27 6 -36 -36 -67 -7 -6 -71 vhcurveto
          15 64 9 42 2 29 1 21 -48 48 -23 1 rrcurveto
          -10 -9 -8 -21 -1 hvcurveto
          -6 -75 -7 -59 -6 -49 rrcurveto
          -6 -98 -84 3 -19 307 callgsubr
          45 56 2 4 57 hvcurveto
          -13 -83 -11 -37 -2 -35 rrcurveto
          -33 -1 25 -30 19 hhcurveto
          20 -1 9 72 31 153 rrcurveto
          132 13 121 23 31 vvcurveto
          endchar
        </CharString>
        <CharString name="plusminus">
          62 290 137 rmoveto
          -6 -72 -88 -1 -32 hhcurveto
          -13 -6 -7 -8 -18 24 -35 28 75 349 16 55 28 -121 -11 -144 -13 hvcurveto
          247 349 rmoveto
          -30 -57 -5 -5 -60 hvcurveto
          11 53 7 35 2 25 rrcurveto
          19 -46 44 -21 vhcurveto
          -9 1 -9 -8 -1 -19 -3 -58 -6 -53 -6 -47 rrcurveto
          -6 -90 -77 3 -18 hhcurveto
          -15 -10 -6 -13 -23 29 -36 30 40 49 2 4 50 hvcurveto
          -10 -65 -10 -47 -2 -27 rrcurveto
          -29 -2 27 -28 18 hhcurveto
          19 12 75 127 25 hvcurveto
          118 13 106 22 28 vvcurveto
          16 -23 8 -38 vhcurveto
          endchar
        </CharString>
        <CharString name="product">
          -39 339 743 rmoveto
          -121 -88 -7 -41 hvcurveto
          -138 -103 -428 -55 vvcurveto
          -23 29 -34 15 32 87 460 177 19 vhcurveto
          75 14 87 6 77 2 rrcurveto
          -7 -150 -95 -406 -46 vvcurveto
          -23 29 -34 15 41 98 590 42 84 -64 10 -126 vhcurveto
          endchar
        </CharString>
        <CharString name="q">
          -49 431 -83 rmoveto
          -21 -44 -17 -35 -52 hvcurveto
          86 245 64 144 38 vvcurveto
          16 -35 23 -18 -12 -6 -2 -12 -3 vhcurveto
          -36 -141 -123 -85 -66 2 rrcurveto
          -20 1 -18 18 23 vvcurveto
          86 141 212 93 vhcurveto
          38 20 -44 27 hhcurveto
          11 5 9 10 35 -55 66 -59 -135 -160 -248 -122 -55 64 -68 52 41 61 28 48 48 hvcurveto
          -69 -188 -27 -65 -24 vvcurveto
          -22 20 -36 19 19 56 51 41 72 vhcurveto
          34 20 16 12 -3 16 rrcurveto
          9 -1 -10 11 -14 hhcurveto
          endchar
        </CharString>
        <CharString name="question">
          -25 488 635 rmoveto
          95 -71 57 -86 -82 -77 -67 -73 -22 32 -39 14 12 14 6 5 4 vhcurveto
          8 12 -8 6 21 vvcurveto
          41 38 29 43 40 38 -29 -45 vhcurveto
          -110 -205 -101 -123 vvcurveto
          -31 8 -29 17 18 10 28 52 22 vhcurveto
          42 101 169 98 118 vvcurveto
          -357 -555 rmoveto
          -30 52 -53 32 13 15 14 8 29 -39 90 -25 -23 -25 -34 -24 vhcurveto
          endchar
        </CharString>
        <CharString name="questiondown">
          -160 -1 61 rmoveto
          -95 71 -57 86 82 77 67 73 22 -32 39 -14 -12 -14 -6 -5 -4 vhcurveto
          -8 -12 8 -6 -21 vvcurveto
          -41 -38 -29 -43 -40 -38 29 45 vhcurveto
          110 205 101 123 vvcurveto
          31 -8 29 -17 -18 -10 -28 -52 -22 vhcurveto
          -42 -101 -169 -98 -118 vvcurveto
          357 555 rmoveto
          30 -52 53 -32 -13 -15 -14 -8 -29 39 -90 25 23 25 34 24 vhcurveto
          endchar
        </CharString>
        <CharString name="quotedbl">
          -224 133 800 rmoveto
          13 -34 28 -15 -8 -4 361 callsubr
          19 -20 13 27 20 199 46 vhcurveto
          165 hmoveto
          13 -34 28 -15 -8 -5 361 callsubr
          20 -20 13 27 20 199 46 vhcurveto
          endchar
        </CharString>
        <CharString name="quotedblbase">
          62 7 -171 77 callgsubr
        </CharString>
        <CharString name="quotedblleft">
          -58 493 841 rmoveto
          -45 -108 -98 -88 -59 43 -41 50 28 28 21 22 hvcurveto
          36 -68 -8 52 70 96 44 31 vvcurveto
          12 -8 6 -16 vhcurveto
          -211 hmoveto
          209 callsubr
        </CharString>
        <CharString name="quotedblright">
          -57 196 callsubr
          212 hmoveto
          45 108 98 88 58 -43 42 -50 -28 -28 -21 -22 hvcurveto
          -36 67 8 -52 -70 -95 -44 -31 vvcurveto
          -12 8 -6 16 vhcurveto
          endchar
        </CharString>
        <CharString name="quoteleft">
          -269 273 841 rmoveto
          209 callsubr
        </CharString>
        <CharString name="quoteright">
          -269 196 callsubr
          endchar
        </CharString>
        <CharString name="quotesinglbase">
          -161 7 -171 77 callgsubr
        </CharString>
        <CharString name="quotesingle">
          -237 231 800 rmoveto
          13 -39 28 -14 -8 -5 -6 -12 vhcurveto
          -105 -23 -100 -25 vvcurveto
          -18 20 -20 13 vhcurveto
          25 -6 31 207 44 vvcurveto
          endchar
        </CharString>
        <CharString name="r">
          -212 322 503 -3 callsubr
          endchar
        </CharString>
        <CharString name="racute">
          -212 322 503 -3 callsubr
          -91 128 15 callgsubr
        </CharString>
        <CharString name="radical">
          -42 309 -22 rmoveto
          -37 115 -2 117 -15 81 rrcurveto
          27 -9 -31 21 -24 hhcurveto
          -57 -70 -95 -46 -11 7 -7 9 28 30 61 21 40 hvcurveto
          11 -108 36 -153 28 -70 rrcurveto
          -23 10 32 -25 18 hhcurveto
          44 46 130 192 79 hvcurveto
          81 195 105 189 32 vvcurveto
          16 -25 16 -18 -52 -158 -407 -268 -106 vhcurveto
          endchar
        </CharString>
        <CharString name="rcaron">
          -212 322 503 -3 callsubr
          50 217 86 callgsubr
        </CharString>
        <CharString name="registered">
          229 366 370 rmoveto
          12 49 5 27 17 vvcurveto
          3 -1 4 -1 3 vhcurveto
          5 14 15 4 18 hhcurveto
          29 17 -6 -16 -43 -70 -24 -38 -23 hvcurveto
          -15 -52 rmoveto
          -47 29 83 -73 33 hhcurveto
          13 8 8 8 14 -32 21 -27 23 hvcurveto
          -28 24 -34 34 9 6 129 32 82 vvcurveto
          49 -47 25 -63 -39 -58 -19 -19 -7 7 -13 9 -7 vhcurveto
          -8 -78 -48 -129 -30 vvcurveto
          -14 18 -19 10 14 13 62 58 18 vhcurveto
          -20 -207 rmoveto
          -100 -71 63 117 202 176 115 138 93 73 -80 -115 -194 -121 -108 -188 hvcurveto
          120 549 rmoveto
          301 callgsubr
          306 callgsubr
          hvcurveto
          endchar
        </CharString>
        <CharString name="ring">
          55 743 138 callgsubr
          endchar
        </CharString>
        <CharString name="s">
          -117 406 409 -7 callsubr
          endchar
        </CharString>
        <CharString name="sacute">
          -117 379 739 -70 callsubr
          27 -330 -7 callsubr
          endchar
        </CharString>
        <CharString name="scaron">
          -117 411 720 -63 callsubr
          -5 -311 -7 callsubr
          endchar
        </CharString>
        <CharString name="section">
          -81 221 187 rmoveto
          -44 38 -42 34 34 vvcurveto
          61 66 41 47 23 vhcurveto
          49 -41 48 -39 -43 vvcurveto
          -54 -46 -48 -78 -6 vhcurveto
          5 373 rmoveto
          48 42 32 50 vhcurveto
          56 -13 -89 43 hhcurveto
          16 10 15 30 59 -41 61 -63 -85 -96 -73 -85 -33 20 -30 27 -28 hvcurveto
          -65 -30 -75 -66 -76 -109 181 -59 -83 vvcurveto
          -42 -16 -33 -67 -41 -22 21 23 -15 vhcurveto
          21 -15 -8 23 -15 hhcurveto
          -13 -16 -28 -23 -51 66 -59 82 105 60 71 71 38 -20 33 -26 29 hvcurveto
          88 19 69 57 71 vvcurveto
          126 -202 75 -1 74 vhcurveto
          endchar
        </CharString>
        <CharString name="semicolon">
          -232 128 444 282 callgsubr
          -125 -636 77 callgsubr
        </CharString>
        <CharString name="seven">
          -70 393 614 rmoveto
          10 -15 -58 3 -44 hhcurveto
          -73 -147 -18 -16 -21 42 -56 23 hvcurveto
          48 80 22 52 hhcurveto
          24 13 -4 -9 -49 -223 -355 5 -59 hvcurveto
          -26 2 20 -26 17 hhcurveto
          28 64 139 123 65 hvcurveto
          50 95 52 94 17 57 4 29 -23 50 -23 17 rrcurveto
          endchar
        </CharString>
        <CharString name="six">
          4 217 118 rmoveto
          -28 -26 18 44 51 24 55 35 54 hvcurveto
          101 -14 62 -39 -43 vvcurveto
          -57 -97 -69 -71 vhcurveto
          42 275 rmoveto
          83 110 107 93 21 vvcurveto
          15 -36 20 -22 -48 -268 -290 -177 -90 57 -57 76 124 143 112 101 63 -78 65 -138 14 vhcurveto
          endchar
        </CharString>
        <CharString name="slash">
          -176 61 -76 rmoveto
          15 33 79 286 120 hvcurveto
          78 189 104 182 53 vvcurveto
          27 -39 49 -14 -13 -1 -9 -20 -8 vhcurveto
          -196 -448 -123 -290 -46 vvcurveto
          -17 29 -35 15 vhcurveto
          endchar
        </CharString>
        <CharString name="space">
          -238 endchar
        </CharString>
        <CharString name="sterling">
          110 186 81 rmoveto
          -24 -34 42 21 23 15 13 24 21 23 -19 -25 26 hvcurveto
          -43 -23 -16 -12 -12 hhcurveto
          211 244 rmoveto
          8 1 45 3 129 12 -1 32 rlinecurve
          19 -1 -24 1 -111 hhcurveto
          -22 hlineto
          165 57 32 31 35 hhcurveto
          27 15 -17 -28 hvcurveto
          -17 -6 -8 -13 vvcurveto
          -10 6 -6 9 18 44 34 31 59 -43 56 -65 -91 -60 -55 -220 -69 vhcurveto
          -43 2 -20 2 -32 -2 -15 -1 -22 -30 1 -20 2 -17 53 -5 54 -1 -15 -49 -14 -39 -12 -32 rrcurveto
          25 -31 -35 19 -43 hhcurveto
          -61 -46 -43 -52 -65 85 -72 47 44 35 17 48 33 hvcurveto
          -37 41 50 -33 62 hhcurveto
          71 107 73 42 23 -13 18 -25 hvcurveto
          -36 -31 -85 -85 hhcurveto
          -40 -32 29 33 -34 hvcurveto
          20 44 21 56 24 72 rrcurveto
          endchar
        </CharString>
        <CharString name="summation">
          295 477 121 rmoveto
          -39 -78 -40 -1 -197 hvcurveto
          -23 -20 7 21 21 42 43 94 72 hvcurveto
          76 58 118 46 19 vvcurveto
          9 -5 5 -8 3 vhcurveto
          3 -5 -9 2 -11 -15 -103 -13 -65 hhcurveto
          -47 -33 3 18 47 208 180 88 hvcurveto
          29 1 -29 17 hhcurveto
          9 12 20 15 30 -24 40 -43 -112 -269 -212 -100 -55 77 -18 93 -1 hvcurveto
          -102 -64 -101 -91 -68 vvcurveto
          -41 60 -40 57 98 115 9 26 85 vhcurveto
          42 14 27 16 19 vvcurveto
          17 -12 10 -27 vhcurveto
          endchar
        </CharString>
        <CharString name="t">
          -174 221 421 rmoveto
          346 callsubr
          -24 -32 -2 -4 -35 vhcurveto
          6 callsubr
          endchar
        </CharString>
        <CharString name="tcaron">
          -116 330 499 rmoveto
          -24 -32 -2 -4 -35 hvcurveto
          6 callsubr
          346 callsubr
          vhcurveto
          38 248 rmoveto
          -21 -26 -20 -20 -28 37 6 14 -28 hvcurveto
          -11 -45 -76 296 callsubr
          -4 12 42 95 61 75 40 -37 31 -38 vhcurveto
          endchar
        </CharString>
        <CharString name="thorn">
          -12 166 247 rmoveto
          11 42 10 44 10 44 rrcurveto
          29 49 49 15 29 hhcurveto
          54 44 -43 -58 -86 -151 -79 -82 6 hvcurveto
          -17 1 -14 5 -11 4 rrcurveto
          184 331 rmoveto
          -26 -47 -11 -20 -42 hvcurveto
          16 89 10 73 23 vvcurveto
          39 -38 44 339 callgsubr
          -206 -170 -581 -65 vvcurveto
          -23 31 -34 17 12 45 174 140 35 vhcurveto
          12 -10 17 -8 24 -5 rrcurveto
          117 -10 195 101 140 vvcurveto
          86 -95 94 -72 vhcurveto
          endchar
        </CharString>
        <CharString name="three">
          -21 306 346 rmoveto
          85 43 101 75 68 vvcurveto
          66 -58 65 -80 -77 -125 -50 -40 -17 32 -33 19 vhcurveto
          33 54 61 69 hhcurveto
          40 7 -24 -16 -102 -225 -60 -14 -49 hvcurveto
          -1 -3 -1 -3 -4 -46 219 18 -68 -123 -348 -19 -32 vvcurveto
          -21 27 -11 66 152 202 92 112 64 -74 42 -103 15 vhcurveto
          endchar
        </CharString>
        <CharString name="threequarters">
          328 405 482 rmoveto
          44 -51 30 -69 12 vhcurveto
          59 30 67 51 48 vvcurveto
          46 -43 47 -57 -54 -90 -36 -29 -13 24 -24 14 vhcurveto
          25 38 42 47 hhcurveto
          25 4 -14 -12 -67 -148 -42 -17 -35 hvcurveto
          -2 -2 -1 -4 -4 -35 153 15 -47 -85 -243 -11 -26 vvcurveto
          -16 21 -8 47 106 145 64 81 vhcurveto
          276 271 rmoveto
          -12 3 -3 -9 -12 -18 -284 -399 -184 -256 -10 -45 -3 -16 19 -24 14 -3 16 -4 50 69 176 257 117 362 callgsubr
          -27 283 callsubr
          -11 -33 -47 -24 -42 hhcurveto
          -21 -9 9 23 hvcurveto
          64 145 144 24 vvcurveto
          16 -20 21 -15 -30 -147 -189 -82 -56 39 -35 58 34 41 10 13 33 vhcurveto
          -17 -72 -22 -50 -24 vvcurveto
          -16 9 -19 15 37 65 235 80 20 -33 31 -14 vhcurveto
          endchar
        </CharString>
        <CharString name="threesuperior">
          -225 220 547 rmoveto
          45 24 48 39 36 vvcurveto
          38 -33 37 -46 -42 -72 -27 -25 -12 20 -20 11 vhcurveto
          20 30 33 36 hhcurveto
          19 3 -9 -8 -49 -101 -29 -25 -29 hvcurveto
          -4 -3 -3 -5 -6 -30 120 12 -34 -66 -190 -5 -24 vvcurveto
          -16 18 -6 37 84 114 50 66 35 -38 23 -51 10 vhcurveto
          endchar
        </CharString>
        <CharString name="tilde">
          -11 710 rmoveto
          126 callsubr
          7 callgsubr
          endchar
        </CharString>
        <CharString name="trademark">
          199 206 657 rmoveto
          -122 -33 -1 -11 -13 15 -22 14 17 27 2 1 29 hvcurveto
          -10 -69 -39 -109 -26 vvcurveto
          -11 19 -15 8 12 13 49 48 14 vhcurveto
          15 54 16 55 3 24 rrcurveto
          -1 33 21 -1 18 hhcurveto
          20 12 4 7 16 -34 19 -68 hvcurveto
          410 -2 rmoveto
          -20 -51 -64 -83 -78 hvcurveto
          -27 50 -21 51 -2 18 rrcurveto
          14 -2 -26 18 -9 hhcurveto
          -10 -5 -4 -10 hvcurveto
          -47 -56 -155 -30 vvcurveto
          -10 20 -20 8 8 9 36 51 16 vhcurveto
          11 31 8 23 6 21 16 -34 12 -25 11 -14 rrcurveto
          -9 6 14 -6 8 hhcurveto
          25 35 44 66 61 hvcurveto
          -19 -51 -15 -75 -27 vvcurveto
          -17 14 -14 8 15 5 46 63 20 vhcurveto
          20 65 19 52 21 vvcurveto
          11 -23 14 -11 vhcurveto
          endchar
        </CharString>
        <CharString name="two">
          45 234 501 rmoveto
          18 38 73 65 hhcurveto
          40 23 -33 -45 hvcurveto
          -184 -336 -161 -58 vvcurveto
          -39 -1 54 -39 37 hhcurveto
          71 269 49 43 21 -23 3 -36 -44 -160 -28 -11 -72 hvcurveto
          173 111 157 141 158 vvcurveto
          89 -59 72 -99 -84 -91 -74 -44 -20 43 -24 17 vhcurveto
          endchar
        </CharString>
        <CharString name="twosuperior">
          -233 148 626 rmoveto
          12 20 39 33 hhcurveto
          21 10 -15 -24 hvcurveto
          -98 -183 -88 -34 vvcurveto
          -23 -1 33 -23 21 hhcurveto
          39 150 26 27 16 -17 2 -19 -22 -65 -12 -7 -49 hvcurveto
          88 57 81 77 84 vvcurveto
          50 -34 41 -55 -49 -51 -41 -27 -13 27 -14 10 vhcurveto
          endchar
        </CharString>
        <CharString name="u">
          88 callgsubr
          endchar
        </CharString>
        <CharString name="uacute">
          88 callgsubr
          -36 573 15 callgsubr
        </CharString>
        <CharString name="ucircumflex">
          -59 182 555 70 callsubr
          275 -130 -70 callgsubr
          endchar
        </CharString>
        <CharString name="udieresis">
          -59 416 559 15 callsubr
          189 -134 -70 callgsubr
          endchar
        </CharString>
        <CharString name="ugrave">
          -59 289 585 rmoveto
          -12 callgsubr
          -22 -22 3 -34 16 -11 rrcurveto
          278 -241 -70 callgsubr
          endchar
        </CharString>
</ttFont>
